%FSTAX24Y24*%
%MOIN*%
%SFA1B1*%

%IPPOS*%
%AMD62*
4,1,4,-0.028800,0.001900,0.001900,-0.028800,0.028800,-0.001900,-0.001900,0.028800,-0.028800,0.001900,0.0*
%
%AMD68*
4,1,4,0.025000,-0.006900,-0.006900,0.025000,-0.025000,0.006900,0.006900,-0.025000,0.025000,-0.006900,0.0*
1,1,0.025700,-0.016000,0.016000*
1,1,0.025700,0.016000,-0.016000*
%
%AMD69*
4,1,4,-0.006900,-0.025000,0.025000,0.006900,0.006900,0.025000,-0.025000,-0.006900,-0.006900,-0.025000,0.0*
1,1,0.025700,0.016000,0.016000*
1,1,0.025700,-0.016000,-0.016000*
%
%AMD70*
4,1,4,0.016100,0.034200,-0.034200,-0.016100,-0.016100,-0.034200,0.034200,0.016100,0.016100,0.034200,0.0*
%
%AMD74*
4,1,4,0.003900,-0.016800,0.016800,-0.003900,-0.003900,0.016800,-0.016800,0.003900,0.003900,-0.016800,0.0*
1,1,0.018200,0.010300,-0.010300*
1,1,0.018200,-0.010300,0.010300*
%
%AMD75*
4,1,4,-0.016800,-0.003900,-0.003900,-0.016800,0.016800,0.003900,0.003900,0.016800,-0.016800,-0.003900,0.0*
1,1,0.018200,-0.010300,-0.010300*
1,1,0.018200,0.010300,0.010300*
%
%AMD76*
4,1,4,0.010300,-0.023200,0.023200,-0.010300,-0.010300,0.023200,-0.023200,0.010300,0.010300,-0.023200,0.0*
%
%ADD20R,0.088600X0.019700*%
%ADD21R,0.157500X0.080700*%
%ADD22R,0.137800X0.080700*%
%ADD37C,0.019700*%
%ADD58O,0.073000X0.019800*%
%ADD59R,0.043400X0.038000*%
%ADD60R,0.094600X0.031600*%
%ADD61O,0.094600X0.031600*%
G04~CAMADD=62~9~0.0~0.0~434.0~380.0~0.0~0.0~0~0.0~0.0~0.0~0.0~0~0.0~0.0~0.0~0.0~0~0.0~0.0~0.0~135.0~576.0~575.0*
%ADD62D62*%
%ADD63R,0.068000X0.071000*%
%ADD64O,0.094600X0.023700*%
%ADD65R,0.094600X0.023700*%
%ADD66R,0.102500X0.134000*%
%ADD67R,0.059200X0.063100*%
G04~CAMADD=68~3~0.0~0.0~710.0~257.0~0.0~0.0~0~0.0~0.0~0.0~0.0~0~0.0~0.0~0.0~0.0~0~0.0~0.0~0.0~315.0~576.0~576.0*
%ADD68D68*%
G04~CAMADD=69~3~0.0~0.0~710.0~257.0~0.0~0.0~0~0.0~0.0~0.0~0.0~0~0.0~0.0~0.0~0.0~0~0.0~0.0~0.0~225.0~576.0~576.0*
%ADD69D69*%
G04~CAMADD=70~9~0.0~0.0~710.0~257.0~0.0~0.0~0~0.0~0.0~0.0~0.0~0~0.0~0.0~0.0~0.0~0~0.0~0.0~0.0~45.0~684.0~683.0*
%ADD70D70*%
%ADD71R,0.038000X0.043400*%
%ADD72R,0.047400X0.057200*%
%ADD73R,0.023700X0.043400*%
G04~CAMADD=74~3~0.0~0.0~182.0~474.0~0.0~0.0~0~0.0~0.0~0.0~0.0~0~0.0~0.0~0.0~0.0~0~0.0~0.0~0.0~225.0~388.0~388.0*
%ADD74D74*%
G04~CAMADD=75~3~0.0~0.0~182.0~474.0~0.0~0.0~0~0.0~0.0~0.0~0.0~0~0.0~0.0~0.0~0.0~0~0.0~0.0~0.0~135.0~388.0~388.0*
%ADD75D75*%
G04~CAMADD=76~9~0.0~0.0~182.0~474.0~0.0~0.0~0~0.0~0.0~0.0~0.0~0~0.0~0.0~0.0~0.0~0~0.0~0.0~0.0~225.0~464.0~463.0*
%ADD76D76*%
%ADD77R,0.382000X0.362300*%
%ADD78O,0.045400X0.214700*%
%ADD79R,0.045400X0.214700*%
%ADD80R,0.063100X0.059200*%
%ADD81R,0.067100X0.067100*%
%ADD82C,0.067100*%
%ADD83R,0.067100X0.067100*%
%ADD84C,0.074900*%
%ADD85C,0.086700*%
%ADD86C,0.165500*%
%ADD87C,0.055200*%
%ADD88C,0.204900*%
%ADD89C,0.008000*%
%ADD90C,0.039500*%
%ADD91C,0.047400*%
%ADD92C,0.106400*%
%ADD93C,0.155600*%
%LNaddl-1*%
%LPD*%
G54D20*
X056087Y035543D03*
Y036488D03*
Y035858D03*
Y036173D03*
Y035228D03*
G54D21*
X05776Y033919D03*
Y037797D03*
G54D22*
X056087Y033919D03*
Y037797D03*
G54D37*
X0361Y019877D02*
D01*
X036085Y019973*
X036063Y020068*
X036035Y020162*
X036001Y020253*
X03596Y020341*
X035914Y020427*
X035861Y020509*
X035803Y020587*
X035739Y020661*
X035671Y020731*
X035597Y020795*
X03552Y020854*
X035438Y020908*
X035353Y020956*
X035265Y020998*
X035174Y021033*
X035081Y021062*
X034986Y021085*
X03489Y0211*
X034793Y02111*
X034695Y021112*
X034598Y021107*
X034501Y021096*
X034405Y021078*
X034311Y021053*
X034219Y021022*
X034129Y020985*
X034041Y020941*
X033957Y020891*
X033877Y020836*
X033801Y020775*
X033729Y020709*
X033662Y020638*
X033601Y020562*
X033544Y020483*
X033493Y020399*
X033449Y020313*
X03341Y020223*
X033378Y020131*
X033352Y020037*
X033333Y019941*
X033327Y0199*
X05219Y019906D02*
D01*
X052173Y020002*
X05215Y020097*
X052121Y02019*
X052085Y020281*
X052043Y020369*
X051995Y020454*
X051941Y020536*
X051881Y020613*
X051816Y020686*
X051746Y020755*
X051672Y020818*
X051594Y020876*
X051511Y020929*
X051425Y020975*
X051336Y021016*
X051245Y02105*
X051151Y021077*
X051055Y021098*
X050959Y021113*
X050861Y02112*
X050764Y021121*
X050666Y021115*
X050569Y021102*
X050473Y021083*
X050379Y021056*
X050287Y021024*
X050198Y020985*
X050111Y02094*
X050028Y020888*
X049948Y020832*
X049873Y020769*
X049802Y020702*
X049736Y02063*
X049675Y020553*
X04962Y020473*
X04957Y020388*
X049527Y020301*
X04949Y020211*
X049459Y020118*
X049434Y020023*
X049417Y019929*
X0494Y039257D02*
D01*
X049414Y03916*
X049436Y039065*
X049464Y038971*
X049498Y03888*
X049539Y038792*
X049585Y038706*
X049638Y038624*
X049696Y038546*
X04976Y038472*
X049828Y038402*
X049902Y038338*
X049979Y038279*
X050061Y038225*
X050146Y038177*
X050234Y038135*
X050325Y0381*
X050418Y038071*
X050513Y038048*
X050609Y038033*
X050706Y038023*
X050804Y038021*
X050901Y038026*
X050998Y038037*
X051094Y038055*
X051188Y03808*
X05128Y038111*
X05137Y038148*
X051458Y038192*
X051542Y038242*
X051622Y038297*
X051698Y038358*
X05177Y038424*
X051837Y038495*
X051898Y038571*
X051955Y03865*
X052006Y038734*
X05205Y03882*
X052089Y03891*
X052121Y039002*
X052147Y039096*
X052166Y039192*
X052174Y039234*
X033361Y0391D02*
D01*
X033384Y039006*
X033414Y038914*
X03345Y038825*
X033493Y038739*
X033541Y038655*
X033595Y038575*
X033655Y0385*
X033719Y038428*
X033789Y038361*
X033863Y0383*
X033941Y038243*
X034023Y038192*
X034108Y038147*
X034196Y038108*
X034287Y038075*
X034379Y038049*
X034474Y038029*
X034569Y038016*
X034665Y038009*
X034762Y03801*
X034858Y038017*
X034953Y03803*
X035047Y03805*
X03514Y038077*
X035231Y03811*
X035318Y03815*
X035403Y038195*
X035485Y038246*
X035563Y038303*
X035637Y038365*
X035706Y038432*
X03577Y038504*
X035829Y03858*
X035883Y03866*
X035931Y038744*
X035973Y038831*
X036009Y03892*
X036039Y039012*
X036062Y039105*
X03607Y039147*
X02657Y018497D02*
Y040607D01*
X02655Y018477D02*
X02657Y018497D01*
X02655Y018477D02*
X03333D01*
Y018497D02*
Y019837D01*
X0361Y018477D02*
Y019837D01*
Y018477D02*
X04942D01*
Y019887*
X05219Y018517D02*
Y019887D01*
Y018517D02*
X05892D01*
X05889D02*
X05892Y018487D01*
Y040627*
X05893Y040637*
X05216D02*
X05893D01*
X05216Y039167D02*
Y040647D01*
X04941Y039167D02*
X04942Y039157D01*
X04941Y039167D02*
Y040627D01*
X0494D02*
X04945Y040577D01*
X03607Y040627D02*
X0494D01*
X03607Y039137D02*
Y040657D01*
X03334Y039097D02*
Y040607D01*
X02659D02*
X03334D01*
G54D58*
X04402Y021624D03*
Y02182D03*
Y022017D03*
Y022214D03*
Y022411D03*
X042406Y021624D03*
Y02182D03*
Y022017D03*
Y022214D03*
Y022411D03*
Y026587D03*
Y02639D03*
Y026193D03*
Y025996D03*
Y025799D03*
X04402Y026587D03*
Y02639D03*
Y026193D03*
Y025996D03*
Y025799D03*
G54D59*
X045137Y022059D03*
X045687D03*
X040192Y02511D03*
X039642D03*
X041047D03*
X041597D03*
X03971Y023552D03*
X04026D03*
X041597Y023568D03*
X041047D03*
X04921Y028827D03*
X04976D03*
X037759Y032787D03*
X037209D03*
X042385Y031508D03*
X041835D03*
X041146Y03152D03*
X040596D03*
X039571Y031508D03*
X039021D03*
X037151Y031503D03*
X037701D03*
X035987Y02639D03*
X035437D03*
X034337Y024816D03*
X033787D03*
X042466Y02782D03*
X043016D03*
X045222Y036626D03*
X045772D03*
X042385Y032787D03*
X041835D03*
X040596Y032799D03*
X041146D03*
X051219Y022862D03*
X051769D03*
X049747Y035129D03*
X049197D03*
X049158Y036505D03*
X049708D03*
X049765Y029502D03*
X049215D03*
X047255Y036993D03*
X047805D03*
X045222Y035079D03*
X045772D03*
X050635Y02952D03*
X051185D03*
G54D60*
X047287Y038238D03*
X036658Y022293D03*
G54D61*
X04524Y039738D03*
Y039238D03*
Y038738D03*
Y038238D03*
X047287Y039738D03*
Y039238D03*
Y038738D03*
X034611Y023793D03*
Y023293D03*
Y022793D03*
Y022293D03*
X036658Y023793D03*
Y023293D03*
Y022793D03*
G54D62*
X05074Y026298D03*
X051129Y025909D03*
X049866Y027132D03*
X050255Y026743D03*
G54D63*
X042722Y035079D03*
Y036429D03*
G54D64*
X053047Y030752D03*
Y031008D03*
Y031264D03*
Y03152D03*
Y031776D03*
Y032031D03*
Y032287D03*
Y032543D03*
Y032799D03*
Y033055D03*
Y033311D03*
Y033567D03*
Y033823D03*
Y034079D03*
X049976Y030752D03*
Y031008D03*
Y031264D03*
Y03152D03*
Y031776D03*
Y032031D03*
Y032287D03*
Y032543D03*
Y032799D03*
Y033055D03*
Y033311D03*
Y033567D03*
Y033823D03*
G54D65*
X049976Y034079D03*
G54D66*
X05148Y035607D03*
X053252D03*
G54D67*
X054412Y029441D03*
X05516D03*
X055083Y03102D03*
X054335D03*
G54D68*
X045003Y031855D03*
X04478Y031632D03*
X044335Y031187D03*
X044112Y030964D03*
X046896Y029071D03*
X044558Y031409D03*
X046451Y028625D03*
X047119Y029293D03*
X047564Y029739D03*
X047787Y029962D03*
X043889Y030741D03*
X046673Y028848D03*
X047342Y029516D03*
X046228Y028403D03*
X045226Y032077D03*
X045448Y0323D03*
G54D69*
X046228Y0323D03*
X047787Y030741D03*
X047119Y031409D03*
X045448Y028403D03*
X045226Y028625D03*
X04478Y029071D03*
X046896Y031632D03*
X044558Y029294D03*
X047564Y030964D03*
X046673Y031855D03*
X047342Y031187D03*
X045003Y028848D03*
X044335Y029516D03*
X044112Y029739D03*
X046451Y032077D03*
G54D70*
X043889Y029962D03*
G54D71*
X048898Y033046D03*
Y032496D03*
X054531Y0357D03*
Y03515D03*
X036913Y025902D03*
Y026451D03*
X037307Y035051D03*
Y035601D03*
X054138Y037159D03*
Y037709D03*
X056598Y027157D03*
Y026607D03*
X051627Y024407D03*
Y024957D03*
X055213Y024417D03*
Y024967D03*
G54D72*
X051961Y027722D03*
X052711D03*
X052341Y028522D03*
G54D73*
X037759Y025406D03*
X038511D03*
X038134D03*
X038511Y026425D03*
X037759D03*
G54D74*
X048797Y023618D03*
X05005Y024871D03*
X049911Y024732D03*
X046403Y026291D03*
X047099Y026987D03*
X047238Y027126D03*
X047377Y027265D03*
X047517Y027404D03*
X048936Y023757D03*
X049354Y024175D03*
X049215Y024036D03*
X04696Y026847D03*
X046821Y026708D03*
X046681Y026569D03*
X046542Y02643D03*
X046264Y026152D03*
X046125Y026012D03*
X045985Y025873D03*
X049493Y024314D03*
X048658Y023479D03*
X049076Y023897D03*
X049772Y024593D03*
X049632Y024453D03*
G54D75*
X049215Y026708D03*
X049493Y02643D03*
X049632Y026291D03*
X046821Y024036D03*
X046403Y024453D03*
X046125Y024732D03*
X048797Y027126D03*
X048936Y026987D03*
X049772Y026152D03*
X045985Y024871D03*
X048519Y027404D03*
X048658Y027265D03*
X046264Y024593D03*
X046542Y024314D03*
X046681Y024175D03*
X04696Y023897D03*
X049076Y026847D03*
X049354Y026569D03*
X047099Y023757D03*
X047238Y023618D03*
X049911Y026012D03*
X047377Y023479D03*
X047517Y02334D03*
X05005Y025873D03*
G54D76*
X048519Y02334D03*
G54D77*
X039799Y037883D03*
G54D78*
X041299Y034883D03*
X040799D03*
X040299D03*
X039799D03*
X039299D03*
X038799D03*
G54D79*
X038299Y034883D03*
G54D80*
X057484Y026503D03*
Y027251D03*
G54D81*
X057484Y025346D03*
X037602Y029947D03*
X033665Y029829D03*
G54D82*
X057484Y024346D03*
Y023346D03*
Y022346D03*
X038602Y029947D03*
X037602Y028947D03*
X038602D03*
X055532Y03948D03*
X056532D03*
X057531D03*
X034665Y029829D03*
X033665Y028829D03*
X034665D03*
G54D83*
X054531Y03948D03*
G54D84*
X04085Y028817D03*
Y026896D03*
X054872Y026305D03*
X052951D03*
G54D85*
X054335Y032197D03*
X03524Y025012D03*
X037922Y023774D03*
X032307Y028457D03*
X042446Y02929D03*
X052268Y029468D03*
X031897Y021026D03*
G54D86*
X035379Y037174D03*
X035389Y034014D03*
G54D87*
X02832Y022647D03*
X02918Y021617D03*
X02832Y022017D03*
Y021387D03*
X02918Y022417D03*
X029197Y02929D03*
X028337Y02826D03*
Y02889D03*
X029197Y02849D03*
X028337Y02952D03*
G54D88*
X0287Y024407D03*
Y019687D03*
X028717Y02656D03*
Y03128D03*
G54D89*
X032142Y024071D03*
X053402Y024051D03*
G54D90*
X044406Y020789D03*
X047937Y022551D03*
X047957Y024036D03*
X050496Y022639D03*
X037759Y027079D03*
X037701Y022806D03*
X038685Y022796D03*
X039112Y023552D03*
X053437Y028266D03*
X042622Y024575D03*
X047489Y024421D03*
X048454Y026466D03*
X047051Y024717D03*
X042425Y025408D03*
X043705Y025307D03*
X044266Y03499D03*
X046569Y034953D03*
X047287D03*
X03954Y026291D03*
X039488Y02974D03*
X038587Y027722D03*
X048921Y031803D03*
X054728Y036823D03*
X046092Y023864D03*
X05148Y030111D03*
X044492Y028358D03*
X054335Y030226D03*
X055171Y028947D03*
X036913Y025167D03*
X044271Y036626D03*
X048823Y038201D03*
X046559Y036823D03*
X04902Y025701D03*
X049309Y025406D03*
X049807Y034502D03*
X043016Y024574D03*
X044689Y026847D03*
Y026152D03*
X041736Y02639D03*
X041441Y02783D03*
X043803Y027404D03*
X045003Y030524D03*
X045673Y024323D03*
X045253Y029715D03*
X048134Y026882D03*
X044177Y032295D03*
X046815Y030398D03*
X050496Y025406D03*
X044583Y027601D03*
X048724Y025996D03*
X047642Y02656D03*
X051087Y033919D03*
X044866Y032833D03*
X043882Y031896D03*
X045378Y032848D03*
X04461Y032294D03*
X047031Y033969D03*
X047622Y033994D03*
X042457Y027088D03*
X047289Y036478D03*
X051874Y031508D03*
X052103Y032689D03*
X050929Y032029D03*
X05156Y033898D03*
X050877Y032787D03*
X053997Y036566D03*
X039642Y024453D03*
X048895Y023043D03*
X049884Y02351D03*
X045464Y027349D03*
X05342Y03715D03*
X054153Y027838D03*
X041351Y036855D03*
Y037445D03*
Y038036D03*
Y038627D03*
Y039217D03*
X04076Y038627D03*
Y037445D03*
Y036855D03*
X040169D03*
X039579D03*
X038988D03*
Y037445D03*
Y038627D03*
X04076Y039217D03*
X040169D03*
X039579D03*
X038988D03*
X038398Y038627D03*
Y038036D03*
Y037445D03*
Y036855D03*
Y039217D03*
X03594Y021665D03*
X055446Y02755D03*
X051837Y022266D03*
X0515Y027724D03*
X051325Y026847D03*
X051135Y024362D03*
X046891Y022824D03*
X046403Y023535D03*
X044251Y023018D03*
X037941Y022052D03*
X038263Y027079D03*
G54D91*
X044271Y037854D03*
G54D92*
X02723Y035607D03*
G54D93*
X039874Y038036D03*
M02*