%FSTAX24Y24*%
%MOIN*%
%SFA1B1*%

%IPPOS*%
%ADD37C,0.019700*%
%ADD51C,0.010000*%
%ADD55C,0.012000*%
%ADD94C,0.001000*%
%LNaddl-1*%
%LPD*%
G54D37*
X0361Y019877D02*
D01*
X036085Y019973*
X036063Y020068*
X036035Y020162*
X036001Y020253*
X03596Y020341*
X035914Y020427*
X035861Y020509*
X035803Y020587*
X035739Y020661*
X035671Y020731*
X035597Y020795*
X03552Y020854*
X035438Y020908*
X035353Y020956*
X035265Y020998*
X035174Y021033*
X035081Y021062*
X034986Y021085*
X03489Y0211*
X034793Y02111*
X034695Y021112*
X034598Y021107*
X034501Y021096*
X034405Y021078*
X034311Y021053*
X034219Y021022*
X034129Y020985*
X034041Y020941*
X033957Y020891*
X033877Y020836*
X033801Y020775*
X033729Y020709*
X033662Y020638*
X033601Y020562*
X033544Y020483*
X033493Y020399*
X033449Y020313*
X03341Y020223*
X033378Y020131*
X033352Y020037*
X033333Y019941*
X033327Y0199*
X05219Y019906D02*
D01*
X052173Y020002*
X05215Y020097*
X052121Y02019*
X052085Y020281*
X052043Y020369*
X051995Y020454*
X051941Y020536*
X051881Y020613*
X051816Y020686*
X051746Y020755*
X051672Y020818*
X051594Y020876*
X051511Y020929*
X051425Y020975*
X051336Y021016*
X051245Y02105*
X051151Y021077*
X051055Y021098*
X050959Y021113*
X050861Y02112*
X050764Y021121*
X050666Y021115*
X050569Y021102*
X050473Y021083*
X050379Y021056*
X050287Y021024*
X050198Y020985*
X050111Y02094*
X050028Y020888*
X049948Y020832*
X049873Y020769*
X049802Y020702*
X049736Y02063*
X049675Y020553*
X04962Y020473*
X04957Y020388*
X049527Y020301*
X04949Y020211*
X049459Y020118*
X049434Y020023*
X049417Y019929*
X0494Y039257D02*
D01*
X049414Y03916*
X049436Y039065*
X049464Y038971*
X049498Y03888*
X049539Y038792*
X049585Y038706*
X049638Y038624*
X049696Y038546*
X04976Y038472*
X049828Y038402*
X049902Y038338*
X049979Y038279*
X050061Y038225*
X050146Y038177*
X050234Y038135*
X050325Y0381*
X050418Y038071*
X050513Y038048*
X050609Y038033*
X050706Y038023*
X050804Y038021*
X050901Y038026*
X050998Y038037*
X051094Y038055*
X051188Y03808*
X05128Y038111*
X05137Y038148*
X051458Y038192*
X051542Y038242*
X051622Y038297*
X051698Y038358*
X05177Y038424*
X051837Y038495*
X051898Y038571*
X051955Y03865*
X052006Y038734*
X05205Y03882*
X052089Y03891*
X052121Y039002*
X052147Y039096*
X052166Y039192*
X052174Y039234*
X033361Y0391D02*
D01*
X033384Y039006*
X033414Y038914*
X03345Y038825*
X033493Y038739*
X033541Y038655*
X033595Y038575*
X033655Y0385*
X033719Y038428*
X033789Y038361*
X033863Y0383*
X033941Y038243*
X034023Y038192*
X034108Y038147*
X034196Y038108*
X034287Y038075*
X034379Y038049*
X034474Y038029*
X034569Y038016*
X034665Y038009*
X034762Y03801*
X034858Y038017*
X034953Y03803*
X035047Y03805*
X03514Y038077*
X035231Y03811*
X035318Y03815*
X035403Y038195*
X035485Y038246*
X035563Y038303*
X035637Y038365*
X035706Y038432*
X03577Y038504*
X035829Y03858*
X035883Y03866*
X035931Y038744*
X035973Y038831*
X036009Y03892*
X036039Y039012*
X036062Y039105*
X03607Y039147*
X02657Y018497D02*
Y040607D01*
X02655Y018477D02*
X02657Y018497D01*
X02655Y018477D02*
X03333D01*
Y018497D02*
Y019837D01*
X0361Y018477D02*
Y019837D01*
Y018477D02*
X04942D01*
Y019887*
X05219Y018517D02*
Y019887D01*
Y018517D02*
X05892D01*
X05889D02*
X05892Y018487D01*
Y040627*
X05893Y040637*
X05216D02*
X05893D01*
X05216Y039167D02*
Y040647D01*
X04941Y039167D02*
X04942Y039157D01*
X04941Y039167D02*
Y040627D01*
X0494D02*
X04945Y040577D01*
X03607Y040627D02*
X0494D01*
X03607Y039137D02*
Y040657D01*
X03334Y039097D02*
Y040607D01*
X02659D02*
X03334D01*
G54D51*
X045889Y026421D02*
X045955Y026486D01*
X046086*
X046151Y026421*
Y026158*
X046086Y026093*
X045955*
X045889Y026158*
X045758Y026093D02*
X045627D01*
X045692*
Y026486*
X045758Y026421*
X045167Y026093D02*
X04543D01*
X045167Y026355*
Y026421*
X045233Y026486*
X045364*
X04543Y026421*
X039997Y026718D02*
X040063Y026783D01*
X040194*
X04026Y026718*
Y026455*
X040194Y02639*
X040063*
X039997Y026455*
X039866Y02639D02*
X039735D01*
X039801*
Y026783*
X039866Y026718*
X039538D02*
X039473Y026783D01*
X039341*
X039276Y026718*
Y026652*
X039341Y026587*
X039407*
X039341*
X039276Y026521*
Y026455*
X039341Y02639*
X039473*
X039538Y026455*
X040038Y028314D02*
X040104Y02838D01*
X040235*
X0403Y028314*
Y028052*
X040235Y027986*
X040104*
X040038Y028052*
X039907Y027986D02*
X039776D01*
X039841*
Y02838*
X039907Y028314*
X039316Y02838D02*
X039579D01*
Y028183*
X039448Y028249*
X039382*
X039316Y028183*
Y028052*
X039382Y027986*
X039513*
X039579Y028052*
X051185Y028829D02*
Y029222D01*
X050988*
X050923Y029157*
Y029025*
X050988Y02896*
X051185*
X051054D02*
X050923Y028829D01*
X050791D02*
X05066D01*
X050726*
Y029222*
X050791Y029157*
X050463D02*
X050398Y029222D01*
X050267*
X050201Y029157*
Y029091*
X050267Y029025*
X050201Y02896*
Y028894*
X050267Y028829*
X050398*
X050463Y028894*
Y02896*
X050398Y029025*
X050463Y029091*
Y029157*
X050398Y029025D02*
X050267D01*
X055319Y031504D02*
Y031897D01*
X055122*
X055057Y031832*
Y031701*
X055122Y031635*
X055319*
X055188D02*
X055057Y031504D01*
X054925D02*
X054794D01*
X05486*
Y031897*
X054925Y031832*
X054401Y031504D02*
Y031897D01*
X054597Y031701*
X054335*
X055146Y029988D02*
Y030382D01*
X054949*
X054884Y030316*
Y030185*
X054949Y030119*
X055146*
X055015D02*
X054884Y029988D01*
X054752D02*
X054621D01*
X054687*
Y030382*
X054752Y030316*
X054162Y030382D02*
X054425D01*
Y030185*
X054293Y03025*
X054228*
X054162Y030185*
Y030054*
X054228Y029988*
X054359*
X054425Y030054*
X045879Y028686D02*
X045945Y028752D01*
X046076*
X046142Y028686*
Y028424*
X046076Y028358*
X045945*
X045879Y028424*
X045486Y028752D02*
X045748D01*
Y028555*
X045617Y028621*
X045551*
X045486Y028555*
Y028424*
X045551Y028358*
X045683*
X045748Y028424*
X035924Y023568D02*
X035989Y023634D01*
X036121*
X036186Y023568*
Y023306*
X036121Y02324*
X035989*
X035924Y023306*
X035793Y02324D02*
X035661D01*
X035727*
Y023634*
X035793Y023568*
X035202Y023634D02*
X035334Y023568D01*
X035465Y023437*
Y023306*
X035399Y02324*
X035268*
X035202Y023306*
Y023371*
X035268Y023437*
X035465*
G54D55*
X049571Y028823D02*
X050043D01*
X049571Y029847D02*
X050043D01*
X049571Y028823D02*
Y029217D01*
X050043Y028823D02*
Y029217D01*
Y029492D02*
Y029847D01*
X049571Y029492D02*
Y029847D01*
X054236Y029341D02*
Y029814D01*
X05526Y029341D02*
Y029814D01*
X054236D02*
X05463D01*
X054236Y029341D02*
X05463D01*
X054906D02*
X05526D01*
X054906Y029814D02*
X05526D01*
X05522Y030874D02*
Y031346D01*
X054197Y030874D02*
Y031346D01*
X054827Y030874D02*
X05522D01*
X054827Y031346D02*
X05522D01*
X054197D02*
X054551D01*
X054197Y030874D02*
X054551D01*
X039251Y026954D02*
Y027426D01*
X040275Y026954D02*
Y027426D01*
X039251D02*
X039645D01*
X039251Y026954D02*
X039645D01*
X03992D02*
X040275D01*
X03992Y027426D02*
X040275D01*
X039342Y028553D02*
Y029026D01*
X040365Y028553D02*
Y029026D01*
X039342D02*
X039735D01*
X039342Y028553D02*
X039735D01*
X040011D02*
X040365D01*
X040011Y029026D02*
X040365D01*
X047432Y025883D02*
Y026356D01*
X046408Y025883D02*
Y026356D01*
X047038Y025883D02*
X047432D01*
X047038Y026356D02*
X047432D01*
X046408D02*
X046763D01*
X046408Y025883D02*
X046763D01*
X04627Y027665D02*
Y028138D01*
X045246Y027665D02*
Y028138D01*
X045876Y027665D02*
X04627D01*
X045876Y028138D02*
X04627D01*
X045246D02*
X045601D01*
X045246Y027665D02*
X045601D01*
X036176Y02257D02*
Y023042D01*
X035152Y02257D02*
Y023042D01*
X035782Y02257D02*
X036176D01*
X035782Y023042D02*
X036176D01*
X035152D02*
X035507D01*
X035152Y02257D02*
X035507D01*
G54D94*
X041657Y01898D02*
X041787D01*
X041437Y01899D02*
X042047D01*
X041307Y019D02*
X042167D01*
X041207Y01901D02*
X042257D01*
X041147Y01902D02*
X042307D01*
X041057Y01903D02*
X042377D01*
X040987Y01904D02*
X042447D01*
X040937Y01905D02*
X042477D01*
X040877Y01906D02*
X042517D01*
X040817Y01907D02*
X042567D01*
X040777Y01908D02*
X042597D01*
X040727Y01909D02*
X042647D01*
X040677Y0191D02*
X042687D01*
X040627Y01911D02*
X042717D01*
X040597Y01912D02*
X042747D01*
X040547Y01913D02*
X042777D01*
X040497Y01914D02*
X042807D01*
X040467Y01915D02*
X042827D01*
X040427Y01916D02*
X042857D01*
X040387Y01917D02*
X042887D01*
X040357Y01918D02*
X042907D01*
X040327Y01919D02*
X042927D01*
X040287Y0192D02*
X042957D01*
X040247Y01921D02*
X042977D01*
X040227Y01922D02*
X042997D01*
X040187Y01923D02*
X043017D01*
X040147Y01924D02*
X041417D01*
X041907D02*
X043037D01*
X040127Y01925D02*
X041297D01*
X042027D02*
X043047D01*
X040107Y01926D02*
X041157D01*
X042117D02*
X043077D01*
X040077Y01927D02*
X041067D01*
X042207D02*
X043087D01*
X040037Y01928D02*
X040967D01*
X042287D02*
X043107D01*
X040017Y01929D02*
X040907D01*
X042327D02*
X043117D01*
X039987Y0193D02*
X040847D01*
X042387D02*
X043137D01*
X039947Y01931D02*
X040777D01*
X042437D02*
X043157D01*
X039927Y01932D02*
X040737D01*
X042477D02*
X043167D01*
X039897Y01933D02*
X040677D01*
X042517D02*
X043187D01*
X039867Y01934D02*
X040627D01*
X042557D02*
X043207D01*
X039847Y01935D02*
X040597D01*
X042587D02*
X043217D01*
X039827Y01936D02*
X040547D01*
X042617D02*
X043227D01*
X039797Y01937D02*
X040487D01*
X042657D02*
X043247D01*
X039777Y01938D02*
X040437D01*
X042687D02*
X043257D01*
X039757Y01939D02*
X040407D01*
X042717D02*
X043267D01*
X039727Y0194D02*
X040357D01*
X042747D02*
X043277D01*
X039707Y01941D02*
X040317D01*
X042777D02*
X043297D01*
X039687Y01942D02*
X040287D01*
X042787D02*
X043307D01*
X039657Y01943D02*
X040247D01*
X042817D02*
X043317D01*
X039627Y01944D02*
X040207D01*
X042847D02*
X043327D01*
X039617Y01945D02*
X040187D01*
X042857D02*
X043337D01*
X039587Y01946D02*
X040147D01*
X042887D02*
X043347D01*
X039567Y01947D02*
X040107D01*
X042907D02*
X043357D01*
X039537Y01948D02*
X040077D01*
X042927D02*
X043367D01*
X039527Y01949D02*
X040047D01*
X042947D02*
X043377D01*
X039497Y0195D02*
X040017D01*
X042967D02*
X043387D01*
X039477Y01951D02*
X039987D01*
X042987D02*
X043397D01*
X039457Y01952D02*
X039957D01*
X042997D02*
X043407D01*
X039437Y01953D02*
X039927D01*
X043017D02*
X043417D01*
X039417Y01954D02*
X039897D01*
X043027D02*
X043417D01*
X039397Y01955D02*
X039867D01*
X043047D02*
X043427D01*
X039377Y01956D02*
X039847D01*
X043057D02*
X043437D01*
X039357Y01957D02*
X039817D01*
X043077D02*
X043447D01*
X039337Y01958D02*
X039777D01*
X043097D02*
X043447D01*
X039327Y01959D02*
X039757D01*
X043107D02*
X043457D01*
X039307Y0196D02*
X039727D01*
X043117D02*
X043467D01*
X039287Y01961D02*
X039697D01*
X043137D02*
X043467D01*
X039277Y01962D02*
X039677D01*
X043147D02*
X043477D01*
X039247Y01963D02*
X039657D01*
X043157D02*
X043477D01*
X039227Y01964D02*
X039627D01*
X043167D02*
X043487D01*
X039217Y01965D02*
X039607D01*
X043177D02*
X043497D01*
X039197Y01966D02*
X039587D01*
X043187D02*
X043497D01*
X039177Y01967D02*
X039557D01*
X043197D02*
X043507D01*
X039157Y01968D02*
X039527D01*
X043217D02*
X043517D01*
X039147Y01969D02*
X039507D01*
X043217D02*
X043517D01*
X039127Y0197D02*
X039487D01*
X043227D02*
X043517D01*
X039107Y01971D02*
X039457D01*
X043237D02*
X043527D01*
X039097Y01972D02*
X039447D01*
X043247D02*
X043527D01*
X039077Y01973D02*
X039417D01*
X043257D02*
X043537D01*
X039057Y01974D02*
X039397D01*
X043267D02*
X043547D01*
X039047Y01975D02*
X039377D01*
X043277D02*
X043547D01*
X039037Y01976D02*
X039357D01*
X043277D02*
X043547D01*
X039017Y01977D02*
X039337D01*
X043287D02*
X043547D01*
X038997Y01978D02*
X039307D01*
X043297D02*
X043557D01*
X038987Y01979D02*
X039287D01*
X043297D02*
X043557D01*
X038977Y0198D02*
X039267D01*
X043307D02*
X043557D01*
X038957Y01981D02*
X039247D01*
X043317D02*
X043567D01*
X038947Y01982D02*
X039227D01*
X043317D02*
X043567D01*
X038927Y01983D02*
X039207D01*
X043327D02*
X043577D01*
X038907Y01984D02*
X039187D01*
X043327D02*
X043577D01*
X038897Y01985D02*
X039167D01*
X043337D02*
X043577D01*
X038887Y01986D02*
X039157D01*
X043337D02*
X043577D01*
X038867Y01987D02*
X039137D01*
X043347D02*
X043587D01*
X038847Y01988D02*
X039117D01*
X043347D02*
X043587D01*
X038837Y01989D02*
X039107D01*
X043347D02*
X043587D01*
X036887Y0199D02*
X036997D01*
X038827D02*
X039087D01*
X040587D02*
X040797D01*
X042997D02*
X043097D01*
X043357D02*
X043587D01*
X043887D02*
X044067D01*
X036827Y01991D02*
X037037D01*
X038807D02*
X039057D01*
X040497D02*
X040877D01*
X042927D02*
X043157D01*
X043357D02*
X043587D01*
X043847D02*
X044117D01*
X036787Y01992D02*
X037067D01*
X037617D02*
X037637D01*
X037877D02*
X037897D01*
X038117D02*
X038147D01*
X038387D02*
X038407D01*
X038797D02*
X039197D01*
X039557D02*
X039867D01*
X040447D02*
X040917D01*
X041257D02*
X041607D01*
X041867D02*
X042217D01*
X042397D02*
X042727D01*
X042897D02*
X043187D01*
X043367D02*
X043587D01*
X043807D02*
X044157D01*
X036767Y01993D02*
X037077D01*
X037617D02*
X037887D01*
X038117D02*
X038407D01*
X038787D02*
X039197D01*
X039547D02*
X039867D01*
X040427D02*
X040947D01*
X041257D02*
X041607D01*
X041857D02*
X042217D01*
X042397D02*
X042727D01*
X042877D02*
X043207D01*
X043367D02*
X043597D01*
X043787D02*
X044177D01*
X036737Y01994D02*
X037087D01*
X037617D02*
X037887D01*
X038117D02*
X038407D01*
X038767D02*
X039207D01*
X039547D02*
X039867D01*
X040397D02*
X040967D01*
X041257D02*
X041607D01*
X041857D02*
X042217D01*
X042397D02*
X042717D01*
X042857D02*
X043217D01*
X043367D02*
X043597D01*
X043767D02*
X044197D01*
X036717Y01995D02*
X037107D01*
X037617D02*
X037887D01*
X038117D02*
X038397D01*
X038757D02*
X039207D01*
X039537D02*
X039877D01*
X040377D02*
X040987D01*
X041247D02*
X041607D01*
X041857D02*
X042207D01*
X042387D02*
X042717D01*
X042837D02*
X043227D01*
X043377D02*
X043597D01*
X043747D02*
X044217D01*
X036707Y01996D02*
X037107D01*
X037617D02*
X037887D01*
X038117D02*
X038397D01*
X038747D02*
X039207D01*
X039537D02*
X039877D01*
X040357D02*
X041007D01*
X041247D02*
X041607D01*
X041857D02*
X042207D01*
X042387D02*
X042717D01*
X042827D02*
X043237D01*
X043377D02*
X043597D01*
X043727D02*
X044217D01*
X036707Y01997D02*
X037117D01*
X037607D02*
X037887D01*
X038117D02*
X038397D01*
X038727D02*
X039207D01*
X039527D02*
X039877D01*
X040337D02*
X041017D01*
X041247D02*
X041597D01*
X041857D02*
X042207D01*
X042387D02*
X042717D01*
X042807D02*
X043247D01*
X043377D02*
X043597D01*
X043717D02*
X044237D01*
X036707Y01998D02*
X037117D01*
X037607D02*
X037877D01*
X038117D02*
X038387D01*
X038717D02*
X039207D01*
X039517D02*
X039877D01*
X040317D02*
X041027D01*
X041247D02*
X041597D01*
X041857D02*
X042207D01*
X042387D02*
X042717D01*
X042797D02*
X043257D01*
X043377D02*
X043597D01*
X043707D02*
X044237D01*
X036707Y01999D02*
X037127D01*
X037607D02*
X037877D01*
X038117D02*
X038387D01*
X038707D02*
X039207D01*
X039517D02*
X039877D01*
X040307D02*
X041037D01*
X041247D02*
X041597D01*
X041847D02*
X042207D01*
X042387D02*
X042717D01*
X042787D02*
X043267D01*
X043387D02*
X043597D01*
X043697D02*
X044237D01*
X036707Y02D02*
X037127D01*
X037607D02*
X037877D01*
X038107D02*
X038387D01*
X038697D02*
X039207D01*
X039517D02*
X039877D01*
X040287D02*
X041047D01*
X041237D02*
X041587D01*
X041847D02*
X042207D01*
X042387D02*
X042707D01*
X042767D02*
X043267D01*
X043387D02*
X043597D01*
X043677D02*
X043877D01*
X044007D02*
X044227D01*
X036697Y02001D02*
X036757D01*
X036847D02*
X037137D01*
X037607D02*
X037877D01*
X038107D02*
X038387D01*
X038687D02*
X039207D01*
X039507D02*
X039877D01*
X040277D02*
X041057D01*
X041237D02*
X041587D01*
X041847D02*
X042197D01*
X042377D02*
X042707D01*
X042757D02*
X043277D01*
X043387D02*
X043597D01*
X043667D02*
X043847D01*
X044037D02*
X044227D01*
X036697Y02002D02*
X036717D01*
X036867D02*
X037137D01*
X037607D02*
X037867D01*
X038107D02*
X038377D01*
X038667D02*
X039217D01*
X039507D02*
X039887D01*
X040257D02*
X041067D01*
X041237D02*
X041587D01*
X041847D02*
X042197D01*
X042377D02*
X042707D01*
X042747D02*
X043277D01*
X043387D02*
X043597D01*
X043657D02*
X043827D01*
X044057D02*
X044227D01*
X036867Y02003D02*
X037147D01*
X037607D02*
X037867D01*
X038107D02*
X038377D01*
X038657D02*
X039217D01*
X039497D02*
X039887D01*
X040257D02*
X041077D01*
X041237D02*
X041587D01*
X041847D02*
X042197D01*
X042377D02*
X042707D01*
X042737D02*
X043287D01*
X043387D02*
X043597D01*
X043647D02*
X043827D01*
X044067D02*
X044227D01*
X036877Y02004D02*
X037147D01*
X037607D02*
X037867D01*
X038107D02*
X038377D01*
X038647D02*
X039217D01*
X039487D02*
X039887D01*
X040247D02*
X041077D01*
X041227D02*
X041587D01*
X041837D02*
X042187D01*
X042377D02*
X042707D01*
X042727D02*
X043287D01*
X043397D02*
X043597D01*
X043637D02*
X043817D01*
X044077D02*
X044217D01*
X036877Y02005D02*
X037147D01*
X037607D02*
X037857D01*
X038107D02*
X038377D01*
X038637D02*
X039217D01*
X039487D02*
X039887D01*
X040227D02*
X041087D01*
X041227D02*
X041587D01*
X041837D02*
X042187D01*
X042377D02*
X042697D01*
X042717D02*
X043287D01*
X043397D02*
X043597D01*
X043627D02*
X043807D01*
X044087D02*
X044217D01*
X036877Y02006D02*
X037147D01*
X037607D02*
X037857D01*
X038107D02*
X038377D01*
X038627D02*
X039217D01*
X039487D02*
X039887D01*
X040227D02*
X041087D01*
X041227D02*
X041577D01*
X041837D02*
X042187D01*
X042367D02*
X042697D01*
X042707D02*
X043297D01*
X043397D02*
X043597D01*
X043627D02*
X043807D01*
X044097D02*
X044217D01*
X036887Y02007D02*
X037147D01*
X037597D02*
X037857D01*
X038097D02*
X038367D01*
X038617D02*
X039217D01*
X039477D02*
X039887D01*
X040217D02*
X041097D01*
X041227D02*
X041577D01*
X041837D02*
X042187D01*
X042367D02*
X043297D01*
X043397D02*
X043597D01*
X043617D02*
X043797D01*
X044107D02*
X044207D01*
X036887Y02008D02*
X037147D01*
X037597D02*
X037857D01*
X038097D02*
X038367D01*
X038607D02*
X038787D01*
X038797D02*
X039217D01*
X039477D02*
X039887D01*
X040207D02*
X041097D01*
X041227D02*
X041577D01*
X041827D02*
X042187D01*
X042367D02*
X043297D01*
X043397D02*
X043597D01*
X043607D02*
X043787D01*
X044107D02*
X044207D01*
X036887Y02009D02*
X037147D01*
X037597D02*
X037857D01*
X038097D02*
X038367D01*
X038587D02*
X038777D01*
X038797D02*
X039217D01*
X039467D02*
X039897D01*
X040207D02*
X041107D01*
X041227D02*
X041577D01*
X041827D02*
X042187D01*
X042367D02*
X043297D01*
X043397D02*
X043597D01*
X043607D02*
X043787D01*
X044117D02*
X044207D01*
X036887Y0201D02*
X037147D01*
X037597D02*
X037847D01*
X038097D02*
X038357D01*
X038577D02*
X038757D01*
X038787D02*
X039217D01*
X039457D02*
X039897D01*
X040197D02*
X040607D01*
X040657D02*
X041107D01*
X041217D02*
X041577D01*
X041827D02*
X042177D01*
X042357D02*
X043307D01*
X043397D02*
X043787D01*
X044117D02*
X044207D01*
X036887Y02011D02*
X037147D01*
X037587D02*
X037847D01*
X038087D02*
X038357D01*
X038567D02*
X038747D01*
X038777D02*
X039227D01*
X039457D02*
X039897D01*
X040187D02*
X040547D01*
X040697D02*
X041107D01*
X041217D02*
X041577D01*
X041827D02*
X042177D01*
X042357D02*
X043307D01*
X043397D02*
X043777D01*
X044127D02*
X044197D01*
X036877Y02012D02*
X037147D01*
X037587D02*
X037847D01*
X038087D02*
X038357D01*
X038557D02*
X038727D01*
X038777D02*
X039227D01*
X039447D02*
X039897D01*
X040187D02*
X040517D01*
X040717D02*
X041107D01*
X041217D02*
X041567D01*
X041827D02*
X042177D01*
X042357D02*
X043307D01*
X043397D02*
X043777D01*
X044127D02*
X044197D01*
X036877Y02013D02*
X037147D01*
X037587D02*
X037847D01*
X038087D02*
X038357D01*
X038547D02*
X038717D01*
X038777D02*
X039227D01*
X039447D02*
X039907D01*
X040177D02*
X040507D01*
X040727D02*
X041107D01*
X041217D02*
X041567D01*
X041827D02*
X042177D01*
X042357D02*
X043307D01*
X043397D02*
X043777D01*
X044127D02*
X044197D01*
X036877Y02014D02*
X037147D01*
X037587D02*
X037837D01*
X038087D02*
X038357D01*
X038537D02*
X038707D01*
X038767D02*
X039227D01*
X039447D02*
X039907D01*
X040177D02*
X040497D01*
X040737D02*
X041107D01*
X041217D02*
X041567D01*
X041817D02*
X042177D01*
X042357D02*
X043307D01*
X043397D02*
X043777D01*
X044137D02*
X044187D01*
X036877Y02015D02*
X037137D01*
X037587D02*
X037837D01*
X038087D02*
X038347D01*
X038527D02*
X038687D01*
X038757D02*
X039227D01*
X039437D02*
X039907D01*
X040167D02*
X040487D01*
X040737D02*
X041117D01*
X041217D02*
X041557D01*
X041817D02*
X042177D01*
X042357D02*
X043307D01*
X043397D02*
X043777D01*
X044137D02*
X044187D01*
X036877Y02016D02*
X037137D01*
X037587D02*
X037837D01*
X038087D02*
X038347D01*
X038517D02*
X038677D01*
X038757D02*
X039227D01*
X039427D02*
X039907D01*
X040157D02*
X040477D01*
X040747D02*
X041117D01*
X041207D02*
X041557D01*
X041817D02*
X042167D01*
X042347D02*
X043307D01*
X043397D02*
X043777D01*
X044137D02*
X044187D01*
X036877Y02017D02*
X037137D01*
X037587D02*
X037827D01*
X038087D02*
X038347D01*
X038507D02*
X038657D01*
X038747D02*
X039227D01*
X039427D02*
X039907D01*
X040157D02*
X040477D01*
X040747D02*
X041117D01*
X041207D02*
X041557D01*
X041817D02*
X042167D01*
X042347D02*
X043307D01*
X043397D02*
X043787D01*
X044137D02*
X044177D01*
X036877Y02018D02*
X037137D01*
X037577D02*
X037827D01*
X038087D02*
X038347D01*
X038497D02*
X038647D01*
X038747D02*
X039227D01*
X039417D02*
X039907D01*
X040157D02*
X040477D01*
X040757D02*
X041117D01*
X041207D02*
X041557D01*
X041817D02*
X042167D01*
X042347D02*
X043307D01*
X043397D02*
X043787D01*
X044147D02*
X044177D01*
X036877Y02019D02*
X037127D01*
X037577D02*
X037827D01*
X038087D02*
X038347D01*
X038487D02*
X038637D01*
X038737D02*
X039227D01*
X039417D02*
X039907D01*
X040147D02*
X040467D01*
X040757D02*
X041057D01*
X041207D02*
X041557D01*
X041817D02*
X042167D01*
X042347D02*
X042797D01*
X042867D02*
X043297D01*
X043397D02*
X043797D01*
X044147D02*
X044177D01*
X036877Y0202D02*
X037127D01*
X037577D02*
X037827D01*
X038077D02*
X038347D01*
X038477D02*
X038627D01*
X038727D02*
X039237D01*
X039417D02*
X039917D01*
X040147D02*
X040467D01*
X040757D02*
X040947D01*
X041207D02*
X041557D01*
X041807D02*
X042157D01*
X042347D02*
X042777D01*
X042897D02*
X043297D01*
X043397D02*
X043807D01*
X036867Y02021D02*
X037127D01*
X037577D02*
X037827D01*
X038077D02*
X038337D01*
X038467D02*
X038607D01*
X038727D02*
X039237D01*
X039407D02*
X039917D01*
X040147D02*
X040477D01*
X040757D02*
X040837D01*
X041197D02*
X041547D01*
X041807D02*
X042157D01*
X042337D02*
X042757D01*
X042907D02*
X043297D01*
X043397D02*
X043817D01*
X036867Y02022D02*
X037127D01*
X037577D02*
X037817D01*
X038077D02*
X038337D01*
X038457D02*
X038597D01*
X038717D02*
X039237D01*
X039407D02*
X039917D01*
X040147D02*
X040477D01*
X041197D02*
X041547D01*
X041807D02*
X042157D01*
X042337D02*
X042737D01*
X042917D02*
X043297D01*
X043387D02*
X043837D01*
X036867Y02023D02*
X037127D01*
X037577D02*
X037817D01*
X038077D02*
X038337D01*
X038447D02*
X038587D01*
X038717D02*
X039237D01*
X039397D02*
X039917D01*
X040137D02*
X040477D01*
X041197D02*
X041547D01*
X041807D02*
X042157D01*
X042337D02*
X042727D01*
X042917D02*
X043297D01*
X043387D02*
X043847D01*
X036867Y02024D02*
X037117D01*
X037577D02*
X037817D01*
X038077D02*
X038327D01*
X038437D02*
X038567D01*
X038707D02*
X039237D01*
X039387D02*
X039917D01*
X040137D02*
X040487D01*
X041197D02*
X041547D01*
X041807D02*
X042157D01*
X042337D02*
X042717D01*
X042927D02*
X043297D01*
X043387D02*
X043857D01*
X036867Y02025D02*
X037117D01*
X037567D02*
X037817D01*
X038067D02*
X038327D01*
X038427D02*
X038557D01*
X038707D02*
X039237D01*
X039387D02*
X039917D01*
X040137D02*
X040517D01*
X041187D02*
X041547D01*
X041797D02*
X042147D01*
X042327D02*
X042707D01*
X042927D02*
X043287D01*
X043387D02*
X043877D01*
X036857Y02026D02*
X037117D01*
X037567D02*
X037817D01*
X038067D02*
X038327D01*
X038417D02*
X038547D01*
X038707D02*
X039247D01*
X039387D02*
X039917D01*
X040137D02*
X040537D01*
X041187D02*
X041547D01*
X041797D02*
X042147D01*
X042327D02*
X042707D01*
X042927D02*
X043287D01*
X043387D02*
X043887D01*
X036857Y02027D02*
X037117D01*
X037567D02*
X037807D01*
X038067D02*
X038327D01*
X038417D02*
X038527D01*
X038697D02*
X039247D01*
X039377D02*
X039927D01*
X040137D02*
X040577D01*
X041187D02*
X041537D01*
X041797D02*
X042147D01*
X042327D02*
X042697D01*
X042927D02*
X043287D01*
X043387D02*
X043917D01*
X036857Y02028D02*
X037117D01*
X037557D02*
X037807D01*
X038057D02*
X038327D01*
X038407D02*
X038517D01*
X038687D02*
X038957D01*
X038967D02*
X039247D01*
X039377D02*
X039927D01*
X040137D02*
X040627D01*
X041187D02*
X041537D01*
X041797D02*
X042147D01*
X042327D02*
X042687D01*
X042927D02*
X043287D01*
X043377D02*
X043937D01*
X036857Y02029D02*
X037107D01*
X037557D02*
X037807D01*
X038057D02*
X038317D01*
X038387D02*
X038507D01*
X038687D02*
X038957D01*
X038967D02*
X039247D01*
X039367D02*
X039927D01*
X040137D02*
X040697D01*
X041187D02*
X041537D01*
X041787D02*
X042147D01*
X042327D02*
X042687D01*
X042927D02*
X043287D01*
X043377D02*
X043957D01*
X036857Y0203D02*
X037107D01*
X037557D02*
X037807D01*
X038057D02*
X038317D01*
X038387D02*
X038497D01*
X038677D02*
X038957D01*
X038967D02*
X039247D01*
X039357D02*
X039637D01*
X039647D02*
X039927D01*
X040137D02*
X040727D01*
X041187D02*
X041527D01*
X041787D02*
X042147D01*
X042327D02*
X042687D01*
X042927D02*
X043287D01*
X043377D02*
X043977D01*
X036857Y02031D02*
X037107D01*
X037557D02*
X037807D01*
X038057D02*
X038317D01*
X038377D02*
X038487D01*
X038677D02*
X038947D01*
X038967D02*
X039247D01*
X039357D02*
X039627D01*
X039647D02*
X039927D01*
X040137D02*
X040767D01*
X041177D02*
X041527D01*
X041787D02*
X042137D01*
X042317D02*
X042677D01*
X042927D02*
X043277D01*
X043377D02*
X043997D01*
X036847Y02032D02*
X037107D01*
X037557D02*
X037797D01*
X038057D02*
X038317D01*
X038367D02*
X038477D01*
X038667D02*
X038947D01*
X038967D02*
X039247D01*
X039347D02*
X039627D01*
X039657D02*
X039927D01*
X040137D02*
X040817D01*
X041177D02*
X041527D01*
X041787D02*
X042137D01*
X042317D02*
X042677D01*
X042927D02*
X043277D01*
X043367D02*
X044017D01*
X036847Y02033D02*
X037107D01*
X037557D02*
X037797D01*
X038057D02*
X038317D01*
X038357D02*
X038467D01*
X038657D02*
X038947D01*
X038977D02*
X039247D01*
X039347D02*
X039627D01*
X039657D02*
X039927D01*
X040147D02*
X040837D01*
X041177D02*
X041527D01*
X041787D02*
X042137D01*
X042317D02*
X042677D01*
X042927D02*
X043277D01*
X043367D02*
X044027D01*
X036847Y02034D02*
X037097D01*
X037547D02*
X037797D01*
X038057D02*
X038307D01*
X038347D02*
X038457D01*
X038657D02*
X038937D01*
X038977D02*
X039247D01*
X039347D02*
X039617D01*
X039657D02*
X039927D01*
X040147D02*
X040867D01*
X041177D02*
X041527D01*
X041787D02*
X042137D01*
X042317D02*
X042667D01*
X042917D02*
X043277D01*
X043367D02*
X044047D01*
X036847Y02035D02*
X037097D01*
X037547D02*
X037797D01*
X038057D02*
X038307D01*
X038337D02*
X038437D01*
X038647D02*
X038927D01*
X038977D02*
X039257D01*
X039337D02*
X039617D01*
X039657D02*
X039937D01*
X040147D02*
X040887D01*
X041177D02*
X041527D01*
X041777D02*
X042127D01*
X042317D02*
X042667D01*
X042917D02*
X043277D01*
X043357D02*
X043537D01*
X043547D02*
X044057D01*
X036847Y02036D02*
X037097D01*
X037547D02*
X037787D01*
X038047D02*
X038307D01*
X038337D02*
X038427D01*
X038647D02*
X038927D01*
X038977D02*
X039257D01*
X039327D02*
X039607D01*
X039657D02*
X039937D01*
X040147D02*
X040907D01*
X041177D02*
X041517D01*
X041777D02*
X042127D01*
X042317D02*
X042657D01*
X042917D02*
X043277D01*
X043357D02*
X043537D01*
X043557D02*
X044067D01*
X036847Y02037D02*
X037087D01*
X037547D02*
X037787D01*
X038047D02*
X038307D01*
X038327D02*
X038417D01*
X038637D02*
X038927D01*
X038977D02*
X039257D01*
X039327D02*
X039607D01*
X039657D02*
X039937D01*
X040157D02*
X040917D01*
X041167D02*
X041517D01*
X041777D02*
X042127D01*
X042307D02*
X042657D01*
X042917D02*
X043267D01*
X043357D02*
X043527D01*
X043557D02*
X044077D01*
X036837Y02038D02*
X037087D01*
X037547D02*
X037787D01*
X038047D02*
X038307D01*
X038317D02*
X038407D01*
X038637D02*
X038917D01*
X038977D02*
X039257D01*
X039317D02*
X039597D01*
X039657D02*
X039937D01*
X040157D02*
X040927D01*
X041167D02*
X041517D01*
X041777D02*
X042127D01*
X042307D02*
X042657D01*
X042917D02*
X043267D01*
X043357D02*
X043527D01*
X043567D02*
X044097D01*
X036837Y02039D02*
X037087D01*
X037547D02*
X037787D01*
X038047D02*
X038297D01*
X038307D02*
X038397D01*
X038627D02*
X038917D01*
X038977D02*
X039257D01*
X039317D02*
X039587D01*
X039657D02*
X039947D01*
X040167D02*
X040947D01*
X041167D02*
X041517D01*
X041777D02*
X042127D01*
X042307D02*
X042657D01*
X042907D02*
X043267D01*
X043347D02*
X043527D01*
X043577D02*
X044107D01*
X036837Y0204D02*
X037087D01*
X037537D02*
X037787D01*
X038047D02*
X038297D01*
X038307D02*
X038387D01*
X038627D02*
X038907D01*
X038977D02*
X039257D01*
X039317D02*
X039587D01*
X039657D02*
X039947D01*
X040177D02*
X040947D01*
X041157D02*
X041517D01*
X041767D02*
X042127D01*
X042307D02*
X042657D01*
X042907D02*
X043267D01*
X043347D02*
X043517D01*
X043577D02*
X044107D01*
X036827Y02041D02*
X037087D01*
X037537D02*
X037787D01*
X038037D02*
X038377D01*
X038617D02*
X038907D01*
X038977D02*
X039257D01*
X039307D02*
X039587D01*
X039657D02*
X039947D01*
X040177D02*
X040957D01*
X041157D02*
X041517D01*
X041767D02*
X042117D01*
X042307D02*
X042657D01*
X042907D02*
X043257D01*
X043347D02*
X043517D01*
X043587D02*
X044117D01*
X036827Y02042D02*
X037077D01*
X037537D02*
X037777D01*
X038037D02*
X038367D01*
X038617D02*
X038907D01*
X038987D02*
X039257D01*
X039307D02*
X039577D01*
X039657D02*
X039947D01*
X040187D02*
X040967D01*
X041157D02*
X041507D01*
X041767D02*
X042117D01*
X042297D02*
X042647D01*
X042907D02*
X043257D01*
X043337D02*
X043507D01*
X043607D02*
X044127D01*
X036827Y02043D02*
X037077D01*
X037537D02*
X037777D01*
X038037D02*
X038357D01*
X038607D02*
X038897D01*
X038987D02*
X039257D01*
X039297D02*
X039577D01*
X039657D02*
X039947D01*
X040197D02*
X040967D01*
X041157D02*
X041507D01*
X041757D02*
X042117D01*
X042297D02*
X042647D01*
X042907D02*
X043257D01*
X043337D02*
X043507D01*
X043607D02*
X044127D01*
X036827Y02044D02*
X037077D01*
X037537D02*
X037777D01*
X038037D02*
X038347D01*
X038607D02*
X038887D01*
X038987D02*
X039267D01*
X039287D02*
X039567D01*
X039657D02*
X039947D01*
X040207D02*
X040977D01*
X041157D02*
X041507D01*
X041757D02*
X042117D01*
X042297D02*
X042647D01*
X042907D02*
X043257D01*
X043327D02*
X043507D01*
X043627D02*
X044137D01*
X036827Y02045D02*
X037077D01*
X037527D02*
X037777D01*
X038027D02*
X038337D01*
X038597D02*
X038887D01*
X038987D02*
X039267D01*
X039287D02*
X039557D01*
X039657D02*
X039947D01*
X040217D02*
X040977D01*
X041157D02*
X041507D01*
X041757D02*
X042117D01*
X042297D02*
X042647D01*
X042897D02*
X043257D01*
X043327D02*
X043497D01*
X043637D02*
X044137D01*
X036827Y02046D02*
X037077D01*
X037527D02*
X037777D01*
X038027D02*
X038327D01*
X038587D02*
X038887D01*
X038987D02*
X039267D01*
X039287D02*
X039557D01*
X039657D02*
X039957D01*
X040227D02*
X040987D01*
X041147D02*
X041507D01*
X041757D02*
X042107D01*
X042287D02*
X042647D01*
X042897D02*
X043247D01*
X043317D02*
X043497D01*
X043647D02*
X044137D01*
X036827Y02047D02*
X037077D01*
X037527D02*
X037767D01*
X038027D02*
X038317D01*
X038587D02*
X038877D01*
X038987D02*
X039267D01*
X039277D02*
X039557D01*
X039657D02*
X039957D01*
X040247D02*
X040987D01*
X041147D02*
X041507D01*
X041747D02*
X042107D01*
X042287D02*
X042647D01*
X042897D02*
X043247D01*
X043317D02*
X043487D01*
X043677D02*
X044147D01*
X036817Y02048D02*
X037077D01*
X037527D02*
X037767D01*
X038027D02*
X038307D01*
X038577D02*
X038877D01*
X038987D02*
X039547D01*
X039657D02*
X039957D01*
X040267D02*
X040987D01*
X041147D02*
X041507D01*
X041747D02*
X042107D01*
X042287D02*
X042637D01*
X042897D02*
X043247D01*
X043307D02*
X043487D01*
X043687D02*
X044147D01*
X036817Y02049D02*
X037067D01*
X037527D02*
X037767D01*
X038027D02*
X038307D01*
X038577D02*
X038867D01*
X038987D02*
X039547D01*
X039657D02*
X039957D01*
X040297D02*
X040997D01*
X041147D02*
X041507D01*
X041747D02*
X042107D01*
X042287D02*
X042637D01*
X042887D02*
X043247D01*
X043307D02*
X043477D01*
X043707D02*
X044147D01*
X036817Y0205D02*
X037067D01*
X037527D02*
X037767D01*
X038027D02*
X038297D01*
X038567D02*
X038867D01*
X038997D02*
X039537D01*
X039657D02*
X039957D01*
X040317D02*
X040997D01*
X041147D02*
X041507D01*
X041737D02*
X042107D01*
X042287D02*
X042637D01*
X042887D02*
X043247D01*
X043307D02*
X043477D01*
X043727D02*
X044147D01*
X036817Y02051D02*
X037067D01*
X037517D02*
X037757D01*
X038017D02*
X038287D01*
X038567D02*
X038857D01*
X038997D02*
X039527D01*
X039657D02*
X039957D01*
X040357D02*
X041007D01*
X041147D02*
X041497D01*
X041727D02*
X042107D01*
X042287D02*
X042637D01*
X042887D02*
X043247D01*
X043297D02*
X043467D01*
X043747D02*
X044147D01*
X036817Y02052D02*
X037057D01*
X037517D02*
X037757D01*
X038017D02*
X038277D01*
X038557D02*
X038857D01*
X038997D02*
X039527D01*
X039657D02*
X039957D01*
X040407D02*
X041007D01*
X041137D02*
X041497D01*
X041727D02*
X042097D01*
X042277D02*
X042627D01*
X042887D02*
X043237D01*
X043287D02*
X043457D01*
X043777D02*
X044147D01*
X036817Y02053D02*
X037057D01*
X037517D02*
X037757D01*
X038017D02*
X038277D01*
X038557D02*
X038857D01*
X038997D02*
X039527D01*
X039657D02*
X039967D01*
X040447D02*
X041007D01*
X041137D02*
X041507D01*
X041727D02*
X042097D01*
X042277D02*
X042627D01*
X042887D02*
X043237D01*
X043287D02*
X043457D01*
X043787D02*
X044147D01*
X036807Y02054D02*
X037057D01*
X037517D02*
X037757D01*
X038017D02*
X038277D01*
X038547D02*
X038847D01*
X038997D02*
X039517D01*
X039657D02*
X039967D01*
X040527D02*
X041007D01*
X041137D02*
X041507D01*
X041717D02*
X042097D01*
X042277D02*
X042627D01*
X042887D02*
X043237D01*
X043277D02*
X043457D01*
X043817D02*
X044147D01*
X036807Y02055D02*
X037057D01*
X037517D02*
X037757D01*
X038007D02*
X038277D01*
X038547D02*
X038847D01*
X038997D02*
X039517D01*
X039667D02*
X039967D01*
X040587D02*
X041007D01*
X041137D02*
X041507D01*
X041707D02*
X042097D01*
X042277D02*
X042627D01*
X042877D02*
X043237D01*
X043277D02*
X043447D01*
X043837D02*
X044137D01*
X036807Y02056D02*
X037057D01*
X037507D02*
X037757D01*
X038007D02*
X038277D01*
X038537D02*
X038837D01*
X039007D02*
X039507D01*
X039667D02*
X039967D01*
X040617D02*
X040997D01*
X041137D02*
X041507D01*
X041697D02*
X042087D01*
X042277D02*
X042627D01*
X042877D02*
X043227D01*
X043267D02*
X043447D01*
X043847D02*
X044137D01*
X036807Y02057D02*
X037057D01*
X037507D02*
X037757D01*
X038007D02*
X038267D01*
X038527D02*
X038837D01*
X039007D02*
X039507D01*
X039667D02*
X039967D01*
X040657D02*
X040997D01*
X041127D02*
X041517D01*
X041687D02*
X042087D01*
X042277D02*
X042627D01*
X042877D02*
X043227D01*
X043257D02*
X043437D01*
X043867D02*
X044137D01*
X036797Y02058D02*
X037047D01*
X037507D02*
X037747D01*
X038007D02*
X038267D01*
X038527D02*
X038827D01*
X039007D02*
X039497D01*
X039667D02*
X039977D01*
X040667D02*
X040997D01*
X041127D02*
X041527D01*
X041667D02*
X042087D01*
X042267D02*
X042617D01*
X042877D02*
X043227D01*
X043257D02*
X043427D01*
X043887D02*
X044137D01*
X036797Y02059D02*
X037047D01*
X037507D02*
X037747D01*
X038007D02*
X038267D01*
X038517D02*
X038827D01*
X039007D02*
X039487D01*
X039667D02*
X039977D01*
X040677D02*
X040997D01*
X041127D02*
X041537D01*
X041647D02*
X042087D01*
X042267D02*
X042617D01*
X042877D02*
X043227D01*
X043247D02*
X043427D01*
X043907D02*
X044127D01*
X036797Y0206D02*
X037047D01*
X037507D02*
X037747D01*
X038007D02*
X038267D01*
X038517D02*
X038817D01*
X039007D02*
X039487D01*
X039667D02*
X039977D01*
X040417D02*
X040427D01*
X040677D02*
X040997D01*
X041127D02*
X041557D01*
X041607D02*
X042087D01*
X042267D02*
X042617D01*
X042877D02*
X043227D01*
X043247D02*
X043417D01*
X043907D02*
X044127D01*
X036797Y02061D02*
X037047D01*
X037497D02*
X037747D01*
X037997D02*
X038257D01*
X038507D02*
X038817D01*
X039007D02*
X039487D01*
X039667D02*
X039977D01*
X040307D02*
X040437D01*
X040677D02*
X040987D01*
X041127D02*
X042077D01*
X042257D02*
X042617D01*
X042867D02*
X043217D01*
X043237D02*
X043417D01*
X043917D02*
X044127D01*
X036787Y02062D02*
X037047D01*
X037497D02*
X037747D01*
X037997D02*
X038257D01*
X038507D02*
X038817D01*
X039007D02*
X039477D01*
X039667D02*
X039977D01*
X040207D02*
X040437D01*
X040677D02*
X040987D01*
X041127D02*
X042077D01*
X042257D02*
X042617D01*
X042867D02*
X043217D01*
X043227D02*
X043407D01*
X043567D02*
X043587D01*
X043927D02*
X044127D01*
X036787Y02063D02*
X037047D01*
X037497D02*
X037747D01*
X037997D02*
X038257D01*
X038497D02*
X038807D01*
X039007D02*
X039477D01*
X039667D02*
X039977D01*
X040127D02*
X040437D01*
X040677D02*
X040987D01*
X041127D02*
X042077D01*
X042257D02*
X042607D01*
X042867D02*
X043217D01*
X043227D02*
X043407D01*
X043557D02*
X043587D01*
X043927D02*
X044117D01*
X036787Y02064D02*
X037037D01*
X037487D02*
X037737D01*
X037987D02*
X038257D01*
X038497D02*
X038807D01*
X039007D02*
X039467D01*
X039667D02*
X039977D01*
X040087D02*
X040437D01*
X040667D02*
X040987D01*
X041127D02*
X042077D01*
X042257D02*
X042607D01*
X042867D02*
X043397D01*
X043557D02*
X043587D01*
X043927D02*
X044117D01*
X036787Y02065D02*
X037037D01*
X037487D02*
X037737D01*
X037987D02*
X038257D01*
X038487D02*
X038797D01*
X039017D02*
X039457D01*
X039667D02*
X039987D01*
X040097D02*
X040447D01*
X040657D02*
X040977D01*
X041127D02*
X042077D01*
X042257D02*
X042607D01*
X042857D02*
X043387D01*
X043547D02*
X043597D01*
X043927D02*
X044117D01*
X036777Y02066D02*
X037037D01*
X037487D02*
X037737D01*
X037987D02*
X038257D01*
X038477D02*
X038797D01*
X039017D02*
X039457D01*
X039667D02*
X039987D01*
X040097D02*
X040457D01*
X040657D02*
X040977D01*
X041127D02*
X042077D01*
X042257D02*
X042607D01*
X042857D02*
X043377D01*
X043547D02*
X043597D01*
X043927D02*
X044107D01*
X036777Y02067D02*
X037027D01*
X037487D02*
X037737D01*
X037987D02*
X038247D01*
X038477D02*
X038787D01*
X039017D02*
X039457D01*
X039667D02*
X039987D01*
X040097D02*
X040467D01*
X040647D02*
X040967D01*
X041127D02*
X042067D01*
X042247D02*
X042607D01*
X042857D02*
X043377D01*
X043547D02*
X043607D01*
X043927D02*
X044107D01*
X036777Y02068D02*
X037027D01*
X037487D02*
X037727D01*
X037987D02*
X038247D01*
X038477D02*
X038787D01*
X039017D02*
X039447D01*
X039667D02*
X039987D01*
X040107D02*
X040477D01*
X040627D02*
X040967D01*
X041127D02*
X042067D01*
X042247D02*
X042607D01*
X042857D02*
X043367D01*
X043537D02*
X043607D01*
X043927D02*
X044097D01*
X036777Y02069D02*
X037027D01*
X037477D02*
X037727D01*
X037977D02*
X038247D01*
X038467D02*
X038777D01*
X039017D02*
X039447D01*
X039667D02*
X039987D01*
X040107D02*
X040517D01*
X040587D02*
X040957D01*
X041127D02*
X042067D01*
X042247D02*
X042597D01*
X042857D02*
X043357D01*
X043527D02*
X043607D01*
X043927D02*
X044087D01*
X036777Y0207D02*
X037027D01*
X037477D02*
X037727D01*
X037977D02*
X038247D01*
X038457D02*
X038777D01*
X039017D02*
X039437D01*
X039667D02*
X039987D01*
X040107D02*
X040957D01*
X041127D02*
X042067D01*
X042247D02*
X042597D01*
X042857D02*
X043347D01*
X043527D02*
X043617D01*
X043927D02*
X044087D01*
X036777Y02071D02*
X037027D01*
X037477D02*
X037727D01*
X037977D02*
X038247D01*
X038457D02*
X038777D01*
X039017D02*
X039427D01*
X039677D02*
X039987D01*
X040117D02*
X040947D01*
X041127D02*
X042057D01*
X042247D02*
X042597D01*
X042847D02*
X043347D01*
X043517D02*
X043617D01*
X043917D02*
X044077D01*
X036767Y02072D02*
X037027D01*
X037477D02*
X037727D01*
X037977D02*
X038247D01*
X038447D02*
X038767D01*
X039017D02*
X039427D01*
X039677D02*
X039997D01*
X040117D02*
X040937D01*
X041127D02*
X042057D01*
X042247D02*
X042597D01*
X042847D02*
X043337D01*
X043517D02*
X043627D01*
X043917D02*
X044077D01*
X036767Y02073D02*
X037017D01*
X037477D02*
X037727D01*
X037977D02*
X038237D01*
X038447D02*
X038767D01*
X039017D02*
X039427D01*
X039677D02*
X039997D01*
X040117D02*
X040927D01*
X041137D02*
X041717D01*
X041727D02*
X042057D01*
X042237D02*
X042587D01*
X042847D02*
X043327D01*
X043517D02*
X043627D01*
X043907D02*
X044067D01*
X036757Y02074D02*
X037017D01*
X037477D02*
X037717D01*
X037967D02*
X038237D01*
X038437D02*
X038757D01*
X039027D02*
X039417D01*
X039677D02*
X039997D01*
X040127D02*
X040917D01*
X041137D02*
X041707D01*
X041727D02*
X042057D01*
X042237D02*
X042587D01*
X042847D02*
X043317D01*
X043507D02*
X043647D01*
X043897D02*
X044057D01*
X036577Y02075D02*
X036607D01*
X036757D02*
X037017D01*
X037117D02*
X037147D01*
X037287D02*
X037847D01*
X037967D02*
X038237D01*
X038427D02*
X038757D01*
X039027D02*
X039417D01*
X039677D02*
X039997D01*
X040127D02*
X040917D01*
X041137D02*
X041697D01*
X041727D02*
X042057D01*
X042237D02*
X042587D01*
X042847D02*
X043317D01*
X043507D02*
X043657D01*
X043887D02*
X044047D01*
X036577Y02076D02*
X037137D01*
X037287D02*
X037847D01*
X037967D02*
X038237D01*
X038427D02*
X038747D01*
X039027D02*
X039407D01*
X039677D02*
X039997D01*
X040137D02*
X040907D01*
X041147D02*
X041687D01*
X041727D02*
X042047D01*
X042227D02*
X042587D01*
X042837D02*
X043307D01*
X043497D02*
X043667D01*
X043877D02*
X044037D01*
X036577Y02077D02*
X037137D01*
X037287D02*
X037847D01*
X037957D02*
X038237D01*
X038427D02*
X038747D01*
X039027D02*
X039407D01*
X039677D02*
X040007D01*
X040137D02*
X040897D01*
X041147D02*
X041677D01*
X041727D02*
X042047D01*
X042227D02*
X042587D01*
X042837D02*
X043297D01*
X043497D02*
X043677D01*
X043867D02*
X044027D01*
X036577Y02078D02*
X037137D01*
X037287D02*
X037837D01*
X037957D02*
X038237D01*
X038417D02*
X038747D01*
X039027D02*
X039397D01*
X039677D02*
X040007D01*
X040147D02*
X040877D01*
X041157D02*
X041667D01*
X041717D02*
X042047D01*
X042227D02*
X042577D01*
X042837D02*
X043287D01*
X043487D02*
X043697D01*
X043847D02*
X044017D01*
X036567Y02079D02*
X037127D01*
X037287D02*
X037837D01*
X037957D02*
X038087D01*
X038097D02*
X038227D01*
X038407D02*
X038737D01*
X039027D02*
X039387D01*
X039677D02*
X040007D01*
X040157D02*
X040867D01*
X041167D02*
X041657D01*
X041717D02*
X042047D01*
X042227D02*
X042577D01*
X042837D02*
X043277D01*
X043477D02*
X043727D01*
X043817D02*
X044007D01*
X036567Y0208D02*
X037127D01*
X037287D02*
X037837D01*
X037957D02*
X038227D01*
X038407D02*
X038737D01*
X039027D02*
X039387D01*
X039677D02*
X040007D01*
X040157D02*
X040857D01*
X041167D02*
X041647D01*
X041717D02*
X042047D01*
X042227D02*
X042577D01*
X042827D02*
X043277D01*
X043477D02*
X043767D01*
X043777D02*
X043997D01*
X036567Y02081D02*
X037127D01*
X037287D02*
X037837D01*
X037957D02*
X038227D01*
X038407D02*
X038727D01*
X039027D02*
X039387D01*
X039677D02*
X040007D01*
X040177D02*
X040847D01*
X041177D02*
X041627D01*
X041717D02*
X042047D01*
X042227D02*
X042577D01*
X042827D02*
X043267D01*
X043477D02*
X043987D01*
X036567Y02082D02*
X037127D01*
X037277D02*
X037827D01*
X037947D02*
X038227D01*
X038397D02*
X038727D01*
X039027D02*
X039377D01*
X039677D02*
X040007D01*
X040187D02*
X040827D01*
X041187D02*
X041617D01*
X041717D02*
X042037D01*
X042217D02*
X042577D01*
X042827D02*
X043257D01*
X043487D02*
X043967D01*
X036567Y02083D02*
X037127D01*
X037277D02*
X037827D01*
X037947D02*
X038227D01*
X038387D02*
X038717D01*
X039037D02*
X039377D01*
X039677D02*
X040007D01*
X040197D02*
X040817D01*
X041197D02*
X041607D01*
X041717D02*
X042037D01*
X042217D02*
X042577D01*
X042827D02*
X043247D01*
X043507D02*
X043957D01*
X036557Y02084D02*
X037127D01*
X037277D02*
X037827D01*
X037947D02*
X038227D01*
X038387D02*
X038717D01*
X039037D02*
X039367D01*
X039677D02*
X040017D01*
X040217D02*
X040797D01*
X041207D02*
X041577D01*
X041707D02*
X042037D01*
X042217D02*
X042567D01*
X042827D02*
X043237D01*
X043527D02*
X043937D01*
X036557Y02085D02*
X036627D01*
X036737D02*
X036997D01*
X037067D02*
X037127D01*
X037277D02*
X037327D01*
X037457D02*
X037707D01*
X037787D02*
X037827D01*
X037947D02*
X038227D01*
X038377D02*
X038707D01*
X039037D02*
X039357D01*
X039677D02*
X040017D01*
X040227D02*
X040757D01*
X041217D02*
X041557D01*
X041707D02*
X042037D01*
X042217D02*
X042567D01*
X042827D02*
X043227D01*
X043547D02*
X043917D01*
X036737Y02086D02*
X036997D01*
X037457D02*
X037697D01*
X037947D02*
X037987D01*
X038167D02*
X038217D01*
X038377D02*
X038707D01*
X039037D02*
X039357D01*
X039677D02*
X040017D01*
X040257D02*
X040727D01*
X041237D02*
X041537D01*
X041707D02*
X042037D01*
X042217D02*
X042567D01*
X042817D02*
X043217D01*
X043577D02*
X043887D01*
X036737Y02087D02*
X036997D01*
X037457D02*
X037697D01*
X040287D02*
X040707D01*
X041257D02*
X041517D01*
X043027D02*
X043217D01*
X043587D02*
X043867D01*
X036727Y02088D02*
X036987D01*
X037457D02*
X037697D01*
X040337D02*
X040647D01*
X041287D02*
X041477D01*
X043017D02*
X043207D01*
X043637D02*
X043827D01*
X036727Y02089D02*
X036987D01*
X037457D02*
X037687D01*
X040487D02*
X040507D01*
X041367D02*
X041387D01*
X043017D02*
X043187D01*
X036727Y0209D02*
X036987D01*
X037457D02*
X037687D01*
X043007D02*
X043187D01*
X036727Y02091D02*
X036987D01*
X037457D02*
X037687D01*
X042987D02*
X043177D01*
X036727Y02092D02*
X036977D01*
X037457D02*
X037687D01*
X042977D02*
X043157D01*
X036717Y02093D02*
X036977D01*
X037457D02*
X037677D01*
X042977D02*
X043157D01*
X036717Y02094D02*
X036977D01*
X037457D02*
X037677D01*
X042957D02*
X043147D01*
X036717Y02095D02*
X036977D01*
X037457D02*
X037677D01*
X042947D02*
X043127D01*
X036717Y02096D02*
X036977D01*
X037457D02*
X037667D01*
X042937D02*
X043117D01*
X036717Y02097D02*
X036977D01*
X037457D02*
X037667D01*
X042927D02*
X043117D01*
X036717Y02098D02*
X036977D01*
X037467D02*
X037657D01*
X042917D02*
X043107D01*
X036707Y02099D02*
X036967D01*
X037467D02*
X037657D01*
X042907D02*
X043087D01*
X036707Y021D02*
X036967D01*
X037467D02*
X037657D01*
X042897D02*
X043087D01*
X036707Y02101D02*
X036967D01*
X037467D02*
X037647D01*
X042887D02*
X043077D01*
X036707Y02102D02*
X036967D01*
X037467D02*
X037647D01*
X042877D02*
X043057D01*
X036697Y02103D02*
X036957D01*
X037467D02*
X037637D01*
X042857D02*
X043047D01*
X036697Y02104D02*
X036957D01*
X037467D02*
X037637D01*
X042857D02*
X043037D01*
X036697Y02105D02*
X036957D01*
X037467D02*
X037627D01*
X042837D02*
X043027D01*
X036697Y02106D02*
X036957D01*
X037467D02*
X037627D01*
X042827D02*
X043017D01*
X036687Y02107D02*
X036957D01*
X037467D02*
X037627D01*
X042817D02*
X043007D01*
X036687Y02108D02*
X036957D01*
X037467D02*
X037617D01*
X037977D02*
X038087D01*
X042807D02*
X042997D01*
X036687Y02109D02*
X036957D01*
X037467D02*
X037607D01*
X037957D02*
X038107D01*
X042787D02*
X042977D01*
X036687Y0211D02*
X036957D01*
X037467D02*
X037607D01*
X037947D02*
X038117D01*
X042787D02*
X042977D01*
X036687Y02111D02*
X036957D01*
X037467D02*
X037597D01*
X037937D02*
X038127D01*
X042767D02*
X042957D01*
X036677Y02112D02*
X036937D01*
X037457D02*
X037587D01*
X037927D02*
X038137D01*
X042757D02*
X042947D01*
X036677Y02113D02*
X036907D01*
X037457D02*
X037587D01*
X037917D02*
X038147D01*
X042737D02*
X042927D01*
X036677Y02114D02*
X036887D01*
X037177D02*
X037197D01*
X037447D02*
X037577D01*
X037907D02*
X038147D01*
X042727D02*
X042917D01*
X036667Y02115D02*
X036857D01*
X037177D02*
X037217D01*
X037447D02*
X037567D01*
X037897D02*
X038147D01*
X042717D02*
X042907D01*
X036667Y02116D02*
X036827D01*
X037177D02*
X037227D01*
X037437D02*
X037557D01*
X037887D02*
X038157D01*
X042707D02*
X042897D01*
X036667Y02117D02*
X036817D01*
X037177D02*
X037237D01*
X037427D02*
X037557D01*
X037887D02*
X038157D01*
X042687D02*
X042887D01*
X036667Y02118D02*
X036787D01*
X037167D02*
X037257D01*
X037407D02*
X037547D01*
X037877D02*
X038157D01*
X042677D02*
X042877D01*
X036657Y02119D02*
X036767D01*
X037167D02*
X037287D01*
X037387D02*
X037547D01*
X037877D02*
X038157D01*
X042657D02*
X042857D01*
X036657Y0212D02*
X036747D01*
X037157D02*
X037307D01*
X037347D02*
X037537D01*
X037877D02*
X038157D01*
X042647D02*
X042847D01*
X036657Y02121D02*
X036717D01*
X037157D02*
X037527D01*
X037867D02*
X038157D01*
X042637D02*
X042837D01*
X036667Y02122D02*
X036697D01*
X037157D02*
X037517D01*
X037867D02*
X038157D01*
X042617D02*
X042817D01*
X037147Y02123D02*
X037507D01*
X037867D02*
X038147D01*
X042607D02*
X042807D01*
X037147Y02124D02*
X037507D01*
X037867D02*
X038147D01*
X042597D02*
X042797D01*
X037137Y02125D02*
X037497D01*
X037857D02*
X038147D01*
X042577D02*
X042777D01*
X037137Y02126D02*
X037487D01*
X037867D02*
X038137D01*
X042557D02*
X042767D01*
X037137Y02127D02*
X037477D01*
X037867D02*
X038137D01*
X042547D02*
X042757D01*
X037127Y02128D02*
X037467D01*
X037867D02*
X038127D01*
X042537D02*
X042737D01*
X037127Y02129D02*
X037457D01*
X037867D02*
X038117D01*
X042517D02*
X042727D01*
X037127Y0213D02*
X037447D01*
X037877D02*
X038117D01*
X042507D02*
X042717D01*
X037117Y02131D02*
X037427D01*
X037877D02*
X038107D01*
X042487D02*
X042697D01*
X037117Y02132D02*
X037417D01*
X037887D02*
X038097D01*
X042477D02*
X042687D01*
X037117Y02133D02*
X037407D01*
X037887D02*
X038087D01*
X042457D02*
X042667D01*
X037107Y02134D02*
X037397D01*
X037897D02*
X038077D01*
X042447D02*
X042657D01*
X037107Y02135D02*
X037387D01*
X037917D02*
X038057D01*
X042427D02*
X042637D01*
X037107Y02136D02*
X037367D01*
X037927D02*
X038037D01*
X042407D02*
X042617D01*
X037097Y02137D02*
X037357D01*
X037967D02*
X037997D01*
X042397D02*
X042607D01*
X037097Y02138D02*
X037327D01*
X042377D02*
X042587D01*
X037127Y02139D02*
X037297D01*
X042357D02*
X042577D01*
X037187Y0214D02*
X037227D01*
X042337D02*
X042557D01*
X042327Y02141D02*
X042547D01*
X042307Y02142D02*
X042527D01*
X042287Y02143D02*
X042507D01*
X042277Y02144D02*
X042497D01*
X042257Y02145D02*
X042477D01*
X042237Y02146D02*
X042457D01*
X042227Y02147D02*
X042447D01*
X042207Y02148D02*
X042427D01*
X042177Y02149D02*
X042407D01*
X042157Y0215D02*
X042387D01*
X042147Y02151D02*
X042377D01*
X042127Y02152D02*
X042357D01*
X042107Y02153D02*
X042337D01*
X042087Y02154D02*
X042327D01*
X042067Y02155D02*
X042307D01*
X042047Y02156D02*
X042277D01*
X042027Y02157D02*
X042267D01*
X042007Y02158D02*
X042247D01*
X041987Y02159D02*
X042217D01*
X041957Y0216D02*
X042197D01*
X041947Y02161D02*
X042177D01*
X041917Y02162D02*
X042157D01*
X041897Y02163D02*
X042137D01*
X041877Y02164D02*
X042127D01*
X041857Y02165D02*
X042107D01*
X041827Y02166D02*
X042077D01*
X041807Y02167D02*
X042067D01*
X041787Y02168D02*
X042037D01*
X041757Y02169D02*
X042017D01*
X041727Y0217D02*
X041987D01*
X041717Y02171D02*
X041977D01*
X041687Y02172D02*
X041947D01*
X041657Y02173D02*
X041917D01*
X041647Y02174D02*
X041907D01*
X041607Y02175D02*
X041877D01*
X041577Y02176D02*
X041847D01*
X041547Y02177D02*
X041827D01*
X041527Y02178D02*
X041807D01*
X041507Y02179D02*
X041777D01*
X041467Y0218D02*
X041747D01*
X041447Y02181D02*
X041727D01*
X041417Y02182D02*
X041697D01*
X041377Y02183D02*
X041667D01*
X041357Y02184D02*
X041647D01*
X041317Y02185D02*
X041617D01*
X041287Y02186D02*
X041587D01*
X041247Y02187D02*
X041547D01*
X041217Y02188D02*
X041527D01*
X041187Y02189D02*
X041497D01*
M02*