%FSTAX24Y24*%
%MOIN*%
%SFA1B1*%

%IPPOS*%
%ADD36C,0.009800*%
%ADD37C,0.019700*%
%ADD51C,0.010000*%
%ADD52C,0.003900*%
%ADD53C,0.007900*%
%ADD54R,0.047200X0.252000*%
%ADD55C,0.012000*%
%ADD56C,0.005000*%
%ADD57C,0.008000*%
%LNaddl-1*%
%LPD*%
G54D36*
X042455Y022696D02*
D01*
X042454Y022699*
X042454Y022702*
X042453Y022706*
X042453Y022709*
X042452Y022712*
X04245Y022715*
X042449Y022719*
X042447Y022721*
X042445Y022724*
X042443Y022727*
X042441Y02273*
X042438Y022732*
X042436Y022734*
X042433Y022736*
X04243Y022738*
X042427Y02274*
X042424Y022741*
X042421Y022742*
X042417Y022743*
X042414Y022744*
X042411Y022744*
X042407Y022744*
X042404*
X0424Y022744*
X042397Y022744*
X042394Y022743*
X04239Y022742*
X042387Y022741*
X042384Y02274*
X042381Y022738*
X042378Y022736*
X042375Y022734*
X042373Y022732*
X04237Y02273*
X042368Y022727*
X042366Y022724*
X042364Y022721*
X042362Y022719*
X042361Y022715*
X042359Y022712*
X042358Y022709*
X042358Y022706*
X042357Y022702*
X042357Y022699*
X042357Y022696*
X042357Y022692*
X042357Y022689*
X042358Y022685*
X042358Y022682*
X042359Y022679*
X042361Y022676*
X042362Y022672*
X042364Y02267*
X042366Y022667*
X042368Y022664*
X04237Y022661*
X042373Y022659*
X042375Y022657*
X042378Y022655*
X042381Y022653*
X042384Y022651*
X042387Y02265*
X04239Y022649*
X042394Y022648*
X042397Y022647*
X0424Y022647*
X042404Y022647*
X042407*
X042411Y022647*
X042414Y022647*
X042417Y022648*
X042421Y022649*
X042424Y02265*
X042427Y022651*
X04243Y022653*
X042433Y022655*
X042436Y022657*
X042438Y022659*
X042441Y022661*
X042443Y022664*
X042445Y022667*
X042447Y02267*
X042449Y022672*
X04245Y022676*
X042452Y022679*
X042453Y022682*
X042453Y022685*
X042454Y022689*
X042454Y022692*
X042455Y022696*
X044069Y025514D02*
D01*
X044068Y025517*
X044068Y02552*
X044067Y025524*
X044067Y025527*
X044066Y02553*
X044064Y025533*
X044063Y025537*
X044061Y025539*
X044059Y025542*
X044057Y025545*
X044055Y025548*
X044052Y02555*
X04405Y025552*
X044047Y025554*
X044044Y025556*
X044041Y025558*
X044038Y025559*
X044035Y02556*
X044031Y025561*
X044028Y025562*
X044025Y025562*
X044021Y025562*
X044018*
X044014Y025562*
X044011Y025562*
X044008Y025561*
X044004Y02556*
X044001Y025559*
X043998Y025558*
X043995Y025556*
X043992Y025554*
X043989Y025552*
X043987Y02555*
X043984Y025548*
X043982Y025545*
X04398Y025542*
X043978Y025539*
X043976Y025537*
X043975Y025533*
X043973Y02553*
X043972Y025527*
X043972Y025524*
X043971Y02552*
X043971Y025517*
X043971Y025514*
X043971Y02551*
X043971Y025507*
X043972Y025503*
X043972Y0255*
X043973Y025497*
X043975Y025494*
X043976Y02549*
X043978Y025488*
X04398Y025485*
X043982Y025482*
X043984Y025479*
X043987Y025477*
X043989Y025475*
X043992Y025473*
X043995Y025471*
X043998Y025469*
X044001Y025468*
X044004Y025467*
X044008Y025466*
X044011Y025465*
X044014Y025465*
X044018Y025465*
X044021*
X044025Y025465*
X044028Y025465*
X044031Y025466*
X044035Y025467*
X044038Y025468*
X044041Y025469*
X044044Y025471*
X044047Y025473*
X04405Y025475*
X044052Y025477*
X044055Y025479*
X044057Y025482*
X044059Y025485*
X044061Y025488*
X044063Y02549*
X044064Y025494*
X044066Y025497*
X044067Y0255*
X044067Y025503*
X044068Y025507*
X044068Y02551*
X044069Y025514*
X047337Y037904D02*
D01*
X047336Y037907*
X047336Y03791*
X047335Y037914*
X047335Y037917*
X047334Y03792*
X047332Y037923*
X047331Y037927*
X047329Y037929*
X047327Y037932*
X047325Y037935*
X047323Y037938*
X04732Y03794*
X047318Y037942*
X047315Y037944*
X047312Y037946*
X047309Y037948*
X047306Y037949*
X047303Y03795*
X047299Y037951*
X047296Y037952*
X047293Y037952*
X047289Y037952*
X047286*
X047282Y037952*
X047279Y037952*
X047276Y037951*
X047272Y03795*
X047269Y037949*
X047266Y037948*
X047263Y037946*
X04726Y037944*
X047257Y037942*
X047255Y03794*
X047252Y037938*
X04725Y037935*
X047248Y037932*
X047246Y037929*
X047244Y037927*
X047243Y037923*
X047241Y03792*
X04724Y037917*
X04724Y037914*
X047239Y03791*
X047239Y037907*
X047239Y037904*
X047239Y0379*
X047239Y037897*
X04724Y037893*
X04724Y03789*
X047241Y037887*
X047243Y037884*
X047244Y03788*
X047246Y037878*
X047248Y037875*
X04725Y037872*
X047252Y037869*
X047255Y037867*
X047257Y037865*
X04726Y037863*
X047263Y037861*
X047266Y037859*
X047269Y037858*
X047272Y037857*
X047276Y037856*
X047279Y037855*
X047282Y037855*
X047286Y037855*
X047289*
X047293Y037855*
X047296Y037855*
X047299Y037856*
X047303Y037857*
X047306Y037858*
X047309Y037859*
X047312Y037861*
X047315Y037863*
X047318Y037865*
X04732Y037867*
X047323Y037869*
X047325Y037872*
X047327Y037875*
X047329Y037878*
X047331Y03788*
X047332Y037884*
X047334Y037887*
X047335Y03789*
X047335Y037893*
X047336Y037897*
X047336Y0379*
X047337Y037904*
X036707Y021959D02*
D01*
X036706Y021962*
X036706Y021965*
X036705Y021969*
X036705Y021972*
X036704Y021975*
X036702Y021978*
X036701Y021982*
X036699Y021984*
X036697Y021987*
X036695Y02199*
X036693Y021993*
X03669Y021995*
X036688Y021997*
X036685Y021999*
X036682Y022001*
X036679Y022003*
X036676Y022004*
X036673Y022005*
X036669Y022006*
X036666Y022007*
X036663Y022007*
X036659Y022007*
X036656*
X036652Y022007*
X036649Y022007*
X036646Y022006*
X036642Y022005*
X036639Y022004*
X036636Y022003*
X036633Y022001*
X03663Y021999*
X036627Y021997*
X036625Y021995*
X036622Y021993*
X03662Y02199*
X036618Y021987*
X036616Y021984*
X036614Y021982*
X036613Y021978*
X036611Y021975*
X03661Y021972*
X03661Y021969*
X036609Y021965*
X036609Y021962*
X036609Y021959*
X036609Y021955*
X036609Y021952*
X03661Y021948*
X03661Y021945*
X036611Y021942*
X036613Y021939*
X036614Y021935*
X036616Y021933*
X036618Y02193*
X03662Y021927*
X036622Y021924*
X036625Y021922*
X036627Y02192*
X03663Y021918*
X036633Y021916*
X036636Y021914*
X036639Y021913*
X036642Y021912*
X036646Y021911*
X036649Y02191*
X036652Y02191*
X036656Y02191*
X036659*
X036663Y02191*
X036666Y02191*
X036669Y021911*
X036673Y021912*
X036676Y021913*
X036679Y021914*
X036682Y021916*
X036685Y021918*
X036688Y02192*
X03669Y021922*
X036693Y021924*
X036695Y021927*
X036697Y02193*
X036699Y021933*
X036701Y021935*
X036702Y021939*
X036704Y021942*
X036705Y021945*
X036705Y021948*
X036706Y021952*
X036706Y021955*
X036707Y021959*
X037945Y035183D02*
D01*
X037944Y035186*
X037944Y035189*
X037943Y035193*
X037943Y035196*
X037942Y035199*
X03794Y035202*
X037939Y035206*
X037937Y035208*
X037935Y035211*
X037933Y035214*
X037931Y035217*
X037928Y035219*
X037926Y035221*
X037923Y035223*
X03792Y035225*
X037917Y035227*
X037914Y035228*
X037911Y035229*
X037907Y03523*
X037904Y035231*
X037901Y035231*
X037897Y035231*
X037894*
X03789Y035231*
X037887Y035231*
X037884Y03523*
X03788Y035229*
X037877Y035228*
X037874Y035227*
X037871Y035225*
X037868Y035223*
X037865Y035221*
X037863Y035219*
X03786Y035217*
X037858Y035214*
X037856Y035211*
X037854Y035208*
X037852Y035206*
X037851Y035202*
X037849Y035199*
X037848Y035196*
X037848Y035193*
X037847Y035189*
X037847Y035186*
X037847Y035183*
X037847Y035179*
X037847Y035176*
X037848Y035172*
X037848Y035169*
X037849Y035166*
X037851Y035163*
X037852Y035159*
X037854Y035157*
X037856Y035154*
X037858Y035151*
X03786Y035148*
X037863Y035146*
X037865Y035144*
X037868Y035142*
X037871Y03514*
X037874Y035138*
X037877Y035137*
X03788Y035136*
X037884Y035135*
X037887Y035134*
X03789Y035134*
X037894Y035134*
X037897*
X037901Y035134*
X037904Y035134*
X037907Y035135*
X037911Y035136*
X037914Y035137*
X037917Y035138*
X03792Y03514*
X037923Y035142*
X037926Y035144*
X037928Y035146*
X037931Y035148*
X037933Y035151*
X037935Y035154*
X037937Y035157*
X037939Y035159*
X03794Y035163*
X037942Y035166*
X037943Y035169*
X037943Y035172*
X037944Y035176*
X037944Y035179*
X037945Y035183*
G54D37*
X0361Y019877D02*
D01*
X036085Y019973*
X036063Y020068*
X036035Y020162*
X036001Y020253*
X03596Y020341*
X035914Y020427*
X035861Y020509*
X035803Y020587*
X035739Y020661*
X035671Y020731*
X035597Y020795*
X03552Y020854*
X035438Y020908*
X035353Y020956*
X035265Y020998*
X035174Y021033*
X035081Y021062*
X034986Y021085*
X03489Y0211*
X034793Y02111*
X034695Y021112*
X034598Y021107*
X034501Y021096*
X034405Y021078*
X034311Y021053*
X034219Y021022*
X034129Y020985*
X034041Y020941*
X033957Y020891*
X033877Y020836*
X033801Y020775*
X033729Y020709*
X033662Y020638*
X033601Y020562*
X033544Y020483*
X033493Y020399*
X033449Y020313*
X03341Y020223*
X033378Y020131*
X033352Y020037*
X033333Y019941*
X033327Y0199*
X05219Y019906D02*
D01*
X052173Y020002*
X05215Y020097*
X052121Y02019*
X052085Y020281*
X052043Y020369*
X051995Y020454*
X051941Y020536*
X051881Y020613*
X051816Y020686*
X051746Y020755*
X051672Y020818*
X051594Y020876*
X051511Y020929*
X051425Y020975*
X051336Y021016*
X051245Y02105*
X051151Y021077*
X051055Y021098*
X050959Y021113*
X050861Y02112*
X050764Y021121*
X050666Y021115*
X050569Y021102*
X050473Y021083*
X050379Y021056*
X050287Y021024*
X050198Y020985*
X050111Y02094*
X050028Y020888*
X049948Y020832*
X049873Y020769*
X049802Y020702*
X049736Y02063*
X049675Y020553*
X04962Y020473*
X04957Y020388*
X049527Y020301*
X04949Y020211*
X049459Y020118*
X049434Y020023*
X049417Y019929*
X0494Y039257D02*
D01*
X049414Y03916*
X049436Y039065*
X049464Y038971*
X049498Y03888*
X049539Y038792*
X049585Y038706*
X049638Y038624*
X049696Y038546*
X04976Y038472*
X049828Y038402*
X049902Y038338*
X049979Y038279*
X050061Y038225*
X050146Y038177*
X050234Y038135*
X050325Y0381*
X050418Y038071*
X050513Y038048*
X050609Y038033*
X050706Y038023*
X050804Y038021*
X050901Y038026*
X050998Y038037*
X051094Y038055*
X051188Y03808*
X05128Y038111*
X05137Y038148*
X051458Y038192*
X051542Y038242*
X051622Y038297*
X051698Y038358*
X05177Y038424*
X051837Y038495*
X051898Y038571*
X051955Y03865*
X052006Y038734*
X05205Y03882*
X052089Y03891*
X052121Y039002*
X052147Y039096*
X052166Y039192*
X052174Y039234*
X033361Y0391D02*
D01*
X033384Y039006*
X033414Y038914*
X03345Y038825*
X033493Y038739*
X033541Y038655*
X033595Y038575*
X033655Y0385*
X033719Y038428*
X033789Y038361*
X033863Y0383*
X033941Y038243*
X034023Y038192*
X034108Y038147*
X034196Y038108*
X034287Y038075*
X034379Y038049*
X034474Y038029*
X034569Y038016*
X034665Y038009*
X034762Y03801*
X034858Y038017*
X034953Y03803*
X035047Y03805*
X03514Y038077*
X035231Y03811*
X035318Y03815*
X035403Y038195*
X035485Y038246*
X035563Y038303*
X035637Y038365*
X035706Y038432*
X03577Y038504*
X035829Y03858*
X035883Y03866*
X035931Y038744*
X035973Y038831*
X036009Y03892*
X036039Y039012*
X036062Y039105*
X03607Y039147*
X02657Y018497D02*
Y040607D01*
X02655Y018477D02*
X02657Y018497D01*
X02655Y018477D02*
X03333D01*
Y018497D02*
Y019837D01*
X0361Y018477D02*
Y019837D01*
Y018477D02*
X04942D01*
Y019887*
X05219Y018517D02*
Y019887D01*
Y018517D02*
X05892D01*
X05889D02*
X05892Y018487D01*
Y040627*
X05893Y040637*
X05216D02*
X05893D01*
X05216Y039167D02*
Y040647D01*
X04941Y039167D02*
X04942Y039157D01*
X04941Y039167D02*
Y040627D01*
X0494D02*
X04945Y040577D01*
X03607Y040627D02*
X0494D01*
X03607Y039137D02*
Y040657D01*
X03334Y039097D02*
Y040607D01*
X02659D02*
X03334D01*
G54D51*
X027717Y035619D02*
D01*
X027715Y035653*
X027712Y035687*
X027706Y035721*
X027697Y035754*
X027687Y035787*
X027674Y035819*
X027659Y035849*
X027642Y035879*
X027623Y035908*
X027601Y035935*
X027578Y03596*
X027554Y035984*
X027527Y036006*
X0275Y036026*
X027471Y036045*
X02744Y036061*
X027409Y036075*
X027377Y036086*
X027344Y036096*
X02731Y036103*
X027276Y036108*
X027242Y03611*
X027207*
X027173Y036108*
X027139Y036103*
X027105Y036096*
X027072Y036086*
X02704Y036075*
X027009Y036061*
X026979Y036045*
X026949Y036026*
X026922Y036006*
X026895Y035984*
X026871Y03596*
X026848Y035935*
X026826Y035908*
X026807Y035879*
X02679Y035849*
X026775Y035819*
X026762Y035787*
X026752Y035754*
X026743Y035721*
X026737Y035687*
X026734Y035653*
X026733Y035619*
Y038729D02*
D01*
X026734Y038694*
X026737Y03866*
X026743Y038626*
X026752Y038593*
X026762Y03856*
X026775Y038528*
X02679Y038498*
X026807Y038468*
X026826Y038439*
X026848Y038412*
X026871Y038387*
X026895Y038363*
X026922Y038341*
X026949Y038321*
X026979Y038302*
X027009Y038286*
X02704Y038272*
X027072Y038261*
X027105Y038251*
X027139Y038244*
X027173Y038239*
X027207Y038237*
X027242*
X027276Y038239*
X02731Y038244*
X027344Y038251*
X027377Y038261*
X027409Y038272*
X02744Y038286*
X027471Y038302*
X0275Y038321*
X027527Y038341*
X027554Y038363*
X027578Y038387*
X027601Y038412*
X027623Y038439*
X027642Y038468*
X027659Y038498*
X027674Y038528*
X027687Y03856*
X027697Y038593*
X027706Y038626*
X027712Y03866*
X027715Y038694*
X027717Y038729*
X027727Y032459D02*
D01*
X027725Y032493*
X027722Y032527*
X027716Y032561*
X027707Y032594*
X027697Y032627*
X027684Y032659*
X027669Y032689*
X027652Y032719*
X027633Y032748*
X027611Y032775*
X027588Y0328*
X027564Y032824*
X027537Y032846*
X02751Y032866*
X027481Y032885*
X02745Y032901*
X027419Y032915*
X027387Y032926*
X027354Y032936*
X02732Y032943*
X027286Y032948*
X027252Y03295*
X027217*
X027183Y032948*
X027149Y032943*
X027115Y032936*
X027082Y032926*
X02705Y032915*
X027019Y032901*
X026989Y032885*
X026959Y032866*
X026932Y032846*
X026905Y032824*
X026881Y0328*
X026858Y032775*
X026836Y032748*
X026817Y032719*
X0268Y032689*
X026785Y032659*
X026772Y032627*
X026762Y032594*
X026753Y032561*
X026747Y032527*
X026744Y032493*
X026743Y032459*
Y035569D02*
D01*
X026744Y035534*
X026747Y0355*
X026753Y035466*
X026762Y035433*
X026772Y0354*
X026785Y035368*
X0268Y035338*
X026817Y035308*
X026836Y035279*
X026858Y035252*
X026881Y035227*
X026905Y035203*
X026932Y035181*
X026959Y035161*
X026989Y035142*
X027019Y035126*
X02705Y035112*
X027082Y035101*
X027115Y035091*
X027149Y035084*
X027183Y035079*
X027217Y035077*
X027252*
X027286Y035079*
X02732Y035084*
X027354Y035091*
X027387Y035101*
X027419Y035112*
X02745Y035126*
X027481Y035142*
X02751Y035161*
X027537Y035181*
X027564Y035203*
X027588Y035227*
X027611Y035252*
X027633Y035279*
X027652Y035308*
X027669Y035338*
X027684Y035368*
X027697Y0354*
X027707Y035433*
X027716Y035466*
X027722Y0355*
X027725Y035534*
X027727Y035569*
X033323Y024071D02*
D01*
X03332Y024153*
X033311Y024235*
X033297Y024316*
X033277Y024396*
X033251Y024474*
X03322Y024551*
X033184Y024625*
X033143Y024696*
X033097Y024765*
X033046Y02483*
X032991Y024891*
X032932Y024948*
X032869Y025001*
X032802Y02505*
X032732Y025093*
X032659Y025132*
X032584Y025166*
X032506Y025194*
X032427Y025216*
X032347Y025234*
X032265Y025245*
X032183Y025251*
X0321*
X032018Y025245*
X031936Y025234*
X031856Y025216*
X031777Y025194*
X031699Y025166*
X031624Y025132*
X031551Y025093*
X031481Y02505*
X031414Y025001*
X031351Y024948*
X031292Y024891*
X031237Y02483*
X031186Y024765*
X03114Y024696*
X031099Y024625*
X031063Y024551*
X031032Y024474*
X031006Y024396*
X030986Y024316*
X030972Y024235*
X030963Y024153*
X030961Y024071*
X030963Y023988*
X030972Y023906*
X030986Y023825*
X031006Y023745*
X031032Y023667*
X031063Y02359*
X031099Y023516*
X03114Y023445*
X031186Y023376*
X031237Y023311*
X031292Y02325*
X031351Y023193*
X031414Y02314*
X031481Y023091*
X031551Y023048*
X031624Y023009*
X031699Y022975*
X031777Y022947*
X031856Y022925*
X031936Y022907*
X032018Y022896*
X0321Y02289*
X032183*
X032265Y022896*
X032347Y022907*
X032427Y022925*
X032506Y022947*
X032584Y022975*
X032659Y023009*
X032732Y023048*
X032802Y023091*
X032869Y02314*
X032932Y023193*
X032991Y02325*
X033046Y023311*
X033097Y023376*
X033143Y023445*
X033184Y023516*
X03322Y02359*
X033251Y023667*
X033277Y023745*
X033297Y023825*
X033311Y023906*
X03332Y023988*
X033323Y024071*
X054583Y024051D02*
D01*
X05458Y024133*
X054571Y024215*
X054557Y024296*
X054537Y024376*
X054511Y024454*
X05448Y024531*
X054444Y024605*
X054403Y024676*
X054357Y024745*
X054306Y02481*
X054251Y024871*
X054192Y024928*
X054129Y024981*
X054062Y02503*
X053992Y025073*
X053919Y025112*
X053844Y025146*
X053766Y025174*
X053687Y025196*
X053607Y025214*
X053525Y025225*
X053443Y025231*
X05336*
X053278Y025225*
X053196Y025214*
X053116Y025196*
X053037Y025174*
X052959Y025146*
X052884Y025112*
X052811Y025073*
X052741Y02503*
X052674Y024981*
X052611Y024928*
X052552Y024871*
X052497Y02481*
X052446Y024745*
X0524Y024676*
X052359Y024605*
X052323Y024531*
X052292Y024454*
X052266Y024376*
X052246Y024296*
X052232Y024215*
X052223Y024133*
X052221Y024051*
X052223Y023968*
X052232Y023886*
X052246Y023805*
X052266Y023725*
X052292Y023647*
X052323Y02357*
X052359Y023496*
X0524Y023425*
X052446Y023356*
X052497Y023291*
X052552Y02323*
X052611Y023173*
X052674Y02312*
X052741Y023071*
X052811Y023028*
X052884Y022989*
X052959Y022955*
X053037Y022927*
X053116Y022905*
X053196Y022887*
X053278Y022876*
X05336Y02287*
X053443*
X053525Y022876*
X053607Y022887*
X053687Y022905*
X053766Y022927*
X053844Y022955*
X053919Y022989*
X053992Y023028*
X054062Y023071*
X054129Y02312*
X054192Y023173*
X054251Y02323*
X054306Y023291*
X054357Y023356*
X054403Y023425*
X054444Y023496*
X05448Y02357*
X054511Y023647*
X054537Y023725*
X054557Y023805*
X054571Y023886*
X05458Y023968*
X054583Y024051*
X053862Y031724D02*
X054807D01*
Y032669*
X053862D02*
X054807D01*
X053862Y031724D02*
Y032669D01*
X035713Y024539D02*
Y025484D01*
X034768D02*
X035713D01*
X034768Y024539D02*
Y025484D01*
Y024539D02*
X035713D01*
X027225Y035619D02*
X027229Y038729D01*
X033288Y035619D02*
Y038729D01*
X023603Y035619D02*
X033288D01*
X023603D02*
Y038729D01*
X033288*
X027235Y032459D02*
X027239Y035569D01*
X033298Y032459D02*
Y035569D01*
X023613Y032459D02*
X033298D01*
X023613D02*
Y035569D01*
X033298*
X0267Y019547D02*
Y024547D01*
X02625Y019047D02*
Y025047D01*
Y019047D02*
X0277D01*
Y025047*
X02625D02*
X0277D01*
X0249Y019547D02*
X02625D01*
X0249Y024547D02*
X02625D01*
X0277Y019547D02*
X0307D01*
Y021547*
X0277Y024547D02*
X0307D01*
Y022547D02*
Y024547D01*
Y021547D02*
Y022547D01*
X0268Y020547D02*
X0274D01*
X0268D02*
X027Y020347D01*
X0268Y020547D02*
X027Y020747D01*
X0268Y023547D02*
X027Y023747D01*
X0268Y023547D02*
X027Y023347D01*
X0268Y023547D02*
X0274D01*
X037601Y026232D02*
X038664D01*
Y025563D02*
Y026232D01*
X037601Y025563D02*
X038664D01*
X037601D02*
Y026232D01*
X026817Y03042D02*
X027417D01*
X026817D02*
X027017Y03022D01*
X026817Y03042D02*
X027017Y03062D01*
X026817Y02742D02*
X027017Y02762D01*
X026817Y02742D02*
X027017Y02722D01*
X026817Y02742D02*
X027417D01*
X030717Y02842D02*
Y02942D01*
Y03142*
X027717D02*
X030717D01*
Y02642D02*
Y02842D01*
X027717Y02642D02*
X030717D01*
X024917Y03142D02*
X026267D01*
X024917Y02642D02*
X026267D01*
Y03192D02*
X027717D01*
Y02592D02*
Y03192D01*
X026267Y02592D02*
X027717D01*
X026267D02*
Y03192D01*
X026717Y02642D02*
Y03142D01*
X037449Y024246D02*
X038394D01*
Y023301D02*
Y024246D01*
X037449Y023301D02*
X038394D01*
X037449D02*
Y024246D01*
X03278Y027984D02*
Y028929D01*
X031835D02*
X03278D01*
X031835Y027984D02*
Y028929D01*
Y027984D02*
X03278D01*
X041974Y028818D02*
X042919D01*
Y029763*
X041974D02*
X042919D01*
X041974Y028818D02*
Y029763D01*
X051795Y029941D02*
X05274D01*
Y028996D02*
Y029941D01*
X051795Y028996D02*
X05274D01*
X051795D02*
Y029941D01*
X031425Y021498D02*
X03237D01*
Y020553D02*
Y021498D01*
X031425Y020553D02*
X03237D01*
X031425D02*
Y021498D01*
X044927Y022453D02*
Y022846D01*
X045123*
X045189Y022781*
Y02265*
X045123Y022584*
X044927*
X045058D02*
X045189Y022453D01*
X045583D02*
X04532D01*
X045583Y022715*
Y022781*
X045517Y022846*
X045386*
X04532Y022781*
X045976Y022846D02*
X045714D01*
Y02265*
X045845Y022715*
X045911*
X045976Y02265*
Y022518*
X045911Y022453*
X045779*
X045714Y022518*
X042905Y02324D02*
Y022912D01*
X04297Y022846*
X043102*
X043167Y022912*
Y02324*
X043298Y023174D02*
X043364Y02324D01*
X043495*
X043561Y023174*
Y023109*
X043495Y023043*
X043561Y022978*
Y022912*
X043495Y022846*
X043364*
X043298Y022912*
Y022978*
X043364Y023043*
X043298Y023109*
Y023174*
X043364Y023043D02*
X043495D01*
X042021Y039775D02*
Y039382D01*
X042218*
X042284Y039447*
Y03971*
X042218Y039775*
X042021*
X042415Y039382D02*
X042546D01*
X04248*
Y039775*
X042415Y03971*
X04081Y022775D02*
Y023168D01*
X041007*
X041072Y023103*
Y022972*
X041007Y022906*
X04081*
X040941D02*
X041072Y022775D01*
X041466D02*
X041203D01*
X041466Y023037*
Y023103*
X0414Y023168*
X041269*
X041203Y023103*
X041597D02*
X041663Y023168D01*
X041794*
X041859Y023103*
Y023037*
X041794Y022972*
X041728*
X041794*
X041859Y022906*
Y02284*
X041794Y022775*
X041663*
X041597Y02284*
X049112Y02801D02*
Y028403D01*
X049309*
X049375Y028338*
Y028206*
X049309Y028141*
X049112*
X049244D02*
X049375Y02801D01*
X049506Y028075D02*
X049572Y02801D01*
X049703*
X049768Y028075*
Y028338*
X049703Y028403*
X049572*
X049506Y028338*
Y028272*
X049572Y028206*
X049768*
X047915Y039579D02*
Y039251D01*
X04798Y039185*
X048112*
X048177Y039251*
Y039579*
X048571Y039185D02*
X048308D01*
X048571Y039447*
Y039513*
X048505Y039579*
X048374*
X048308Y039513*
X038882Y025507D02*
Y0259D01*
X039079*
X039144Y025834*
Y025703*
X039079Y025638*
X038882*
X039013D02*
X039144Y025507D01*
X039538D02*
X039275D01*
X039538Y025769*
Y025834*
X039472Y0259*
X039341*
X039275Y025834*
X039669Y025507D02*
X0398D01*
X039735*
Y0259*
X039669Y025834*
X051776Y030411D02*
X052038D01*
X051907*
Y030017*
X052169D02*
Y030411D01*
X052366*
X052432Y030345*
Y030214*
X052366Y030149*
X052169*
X052563Y030345D02*
X052628Y030411D01*
X05276*
X052825Y030345*
Y03028*
X05276Y030214*
X052825Y030149*
Y030083*
X05276Y030017*
X052628*
X052563Y030083*
Y030149*
X052628Y030214*
X052563Y03028*
Y030345*
X052628Y030214D02*
X05276D01*
X03711Y024815D02*
X037373D01*
X037241*
Y024421*
X037504D02*
Y024815D01*
X037701*
X037766Y024749*
Y024618*
X037701Y024552*
X037504*
X037897Y024356D02*
X03816D01*
X038291Y024421D02*
Y024815D01*
X038488*
X038553Y024749*
Y024618*
X038488Y024552*
X038291*
X038422D02*
X038553Y024421D01*
X038685Y024815D02*
X038947Y024421D01*
Y024815D02*
X038685Y024421D01*
X032586Y020238D02*
Y020501D01*
Y020369*
X03298*
Y020632D02*
X032586D01*
Y020829*
X032652Y020894*
X032783*
X032849Y020829*
Y020632*
X033046Y021025D02*
Y021288D01*
X032652Y021681D02*
X032586Y021616D01*
Y021485*
X032652Y021419*
X032914*
X03298Y021485*
Y021616*
X032914Y021681*
X03298Y021812D02*
X032718D01*
X032586Y021944*
X032718Y022075*
X03298*
X032783*
Y021812*
X03298Y022206D02*
X032586D01*
X03298Y022468*
X032586*
X033046Y0226D02*
Y022862D01*
X032586Y022993D02*
X03298D01*
X032783*
Y023256*
X032586*
X03298*
X036585Y035018D02*
X03652Y034953D01*
Y034822*
X036585Y034756*
X036848*
X036913Y034822*
Y034953*
X036848Y035018*
X036585Y035149D02*
X03652Y035215D01*
Y035346*
X036585Y035412*
X036651*
X036717Y035346*
Y035281*
Y035346*
X036782Y035412*
X036848*
X036913Y035346*
Y035215*
X036848Y035149*
X041054Y033556D02*
X040988Y033622D01*
X040857*
X040791Y033556*
Y033294*
X040857Y033228*
X040988*
X041054Y033294*
X041185Y033228D02*
X041316D01*
X041251*
Y033622*
X041185Y033556*
X0419Y033509D02*
X041835Y033575D01*
X041703*
X041638Y033509*
Y033247*
X041703Y033181*
X041835*
X0419Y033247*
X042294Y033181D02*
X042031D01*
X042294Y033443*
Y033509*
X042228Y033575*
X042097*
X042031Y033509*
X042688Y037401D02*
X042622Y037466D01*
X042491*
X042425Y037401*
Y037138*
X042491Y037073*
X042622*
X042688Y037138*
X043016Y037073D02*
Y037466D01*
X042819Y03727*
X043081*
X054105Y03843D02*
X054039Y038496D01*
X053908*
X053843Y03843*
Y038168*
X053908Y038102*
X054039*
X054105Y038168*
X054498Y038496D02*
X054367Y03843D01*
X054236Y038299*
Y038168*
X054302Y038102*
X054433*
X054498Y038168*
Y038234*
X054433Y038299*
X054236*
X045657Y037348D02*
X045591Y037413D01*
X04546*
X045394Y037348*
Y037085*
X04546Y03702*
X045591*
X045657Y037085*
X045788Y037413D02*
X04605D01*
Y037348*
X045788Y037085*
Y03702*
X042392Y028588D02*
X042327Y028653D01*
X042196*
X04213Y028588*
Y028325*
X042196Y02826*
X042327*
X042392Y028325*
X042523Y028588D02*
X042589Y028653D01*
X04272*
X042786Y028588*
Y028522*
X04272Y028457*
X042786Y028391*
Y028325*
X04272Y02826*
X042589*
X042523Y028325*
Y028391*
X042589Y028457*
X042523Y028522*
Y028588*
X042589Y028457D02*
X04272D01*
X036684Y027175D02*
X036618Y027241D01*
X036487*
X036421Y027175*
Y026913*
X036487Y026847*
X036618*
X036684Y026913*
X036815Y026847D02*
X036946D01*
X03688*
Y027241*
X036815Y027175*
X03734Y026847D02*
Y027241D01*
X037143Y027044*
X037405*
X0544Y03469D02*
X054335Y034756D01*
X054203*
X054138Y03469*
Y034428*
X054203Y034362*
X054335*
X0544Y034428*
X054531Y034362D02*
X054663D01*
X054597*
Y034756*
X054531Y03469*
X054859Y034362D02*
X054991D01*
X054925*
Y034756*
X054859Y03469*
X048865Y033808D02*
X048799Y033874D01*
X048668*
X048603Y033808*
Y033546*
X048668Y03348*
X048799*
X048865Y033546*
X048996Y03348D02*
X049127D01*
X049062*
Y033874*
X048996Y033808*
X049324D02*
X04939Y033874D01*
X049521*
X049587Y033808*
Y033546*
X049521Y03348*
X04939*
X049324Y033546*
Y033808*
X05066Y030236D02*
X050594Y030302D01*
X050463*
X050398Y030236*
Y029974*
X050463Y029908*
X050594*
X05066Y029974*
X050791D02*
X050857Y029908D01*
X050988*
X051054Y029974*
Y030236*
X050988Y030302*
X050857*
X050791Y030236*
Y030171*
X050857Y030105*
X051054*
X045735Y032764D02*
X04555Y032578D01*
X045689Y032439*
X045782Y032532*
X045689Y032439*
X045828Y0323*
Y032857D02*
X046013Y033042D01*
X045921Y032949*
X046199Y032671*
X046385Y032857D02*
X046477Y032949D01*
X046431Y032903*
X046153Y033181*
Y033089*
X030186Y02009D02*
X030055D01*
X030121*
Y019762*
X030055Y019697*
X02999*
X029924Y019762*
X03058Y019697D02*
X030318D01*
X03058Y019959*
Y020025*
X030514Y02009*
X030383*
X030318Y020025*
X032342Y033129D02*
X03221D01*
X032276*
Y032801*
X03221Y032735*
X032145*
X032079Y032801*
X032473Y032735D02*
Y033129D01*
X032669*
X032735Y033063*
Y032932*
X032669Y032867*
X032473*
X033129Y032735D02*
X032866D01*
X033129Y032998*
Y033063*
X033063Y033129*
X032932*
X032866Y033063*
X032253Y036329D02*
X032122D01*
X032187*
Y036001*
X032122Y035935*
X032056*
X031991Y036001*
X032384Y035935D02*
Y036329D01*
X032581*
X032647Y036263*
Y036132*
X032581Y036067*
X032384*
X032778Y035935D02*
X032909D01*
X032843*
Y036329*
X032778Y036263*
X055778Y038693D02*
X055647D01*
X055713*
Y038365*
X055647Y038299*
X055581*
X055516Y038365*
X055909Y038627D02*
X055975Y038693D01*
X056106*
X056172Y038627*
Y038562*
X056106Y038496*
X056041*
X056106*
X056172Y03843*
Y038365*
X056106Y038299*
X055975*
X055909Y038365*
X055083Y032098D02*
Y031705D01*
X055345*
X055739D02*
X055476D01*
X055739Y031967*
Y032033*
X055673Y032098*
X055542*
X055476Y032033*
X053215Y030222D02*
Y029829D01*
X053477*
X053608Y030157D02*
X053674Y030222D01*
X053805*
X053871Y030157*
Y030091*
X053805Y030025*
X053739*
X053805*
X053871Y02996*
Y029894*
X053805Y029829*
X053674*
X053608Y029894*
X052001Y034848D02*
Y034454D01*
X052263*
X052395D02*
X052526D01*
X05246*
Y034848*
X052395Y034782*
X056878Y024677D02*
X056485D01*
Y024873*
X05655Y024939*
X056681*
X056747Y024873*
Y024677*
X056878Y025267D02*
X056485D01*
X056681Y02507*
Y025333*
X03359Y025252D02*
Y025645D01*
X033787*
X033853Y02558*
Y025448*
X033787Y025383*
X03359*
X033721D02*
X033853Y025252D01*
X033984D02*
X034115D01*
X034049*
Y025645*
X033984Y02558*
X03522Y026779D02*
Y027173D01*
X035417*
X035483Y027107*
Y026976*
X035417Y026911*
X03522*
X035352D02*
X035483Y026779D01*
X035876D02*
X035614D01*
X035876Y027042*
Y027107*
X035811Y027173*
X03568*
X035614Y027107*
X037701Y031878D02*
Y032272D01*
X037898*
X037963Y032206*
Y032075*
X037898Y032009*
X037701*
X037832D02*
X037963Y031878D01*
X038291D02*
Y032272D01*
X038094Y032075*
X038357*
X038882Y031878D02*
Y032272D01*
X039079*
X039144Y032206*
Y032075*
X039079Y032009*
X038882*
X039013D02*
X039144Y031878D01*
X039275Y032272D02*
X039538D01*
Y032206*
X039275Y031944*
Y031878*
X040485Y031874D02*
Y032268D01*
X040682*
X040748Y032202*
Y032071*
X040682Y032005*
X040485*
X040617D02*
X040748Y031874D01*
X041141Y032268D02*
X04101Y032202D01*
X040879Y032071*
Y03194*
X040945Y031874*
X041076*
X041141Y03194*
Y032005*
X041076Y032071*
X040879*
X041666Y031878D02*
Y032272D01*
X041863*
X041928Y032206*
Y032075*
X041863Y032009*
X041666*
X041797D02*
X041928Y031878D01*
X042322Y032272D02*
X042059D01*
Y032075*
X042191Y03214*
X042256*
X042322Y032075*
Y031944*
X042256Y031878*
X042125*
X042059Y031944*
X037701Y033181D02*
Y033575D01*
X037898*
X037963Y033509*
Y033378*
X037898Y033312*
X037701*
X037832D02*
X037963Y033181D01*
X038094Y033509D02*
X03816Y033575D01*
X038291*
X038357Y033509*
Y033443*
X038291Y033378*
X038226*
X038291*
X038357Y033312*
Y033247*
X038291Y033181*
X03816*
X038094Y033247*
X047065Y037387D02*
Y03778D01*
X047262*
X047328Y037715*
Y037584*
X047262Y037518*
X047065*
X047196D02*
X047328Y037387D01*
X047459D02*
X04759D01*
X047524*
Y03778*
X047459Y037715*
X047787Y037387D02*
X047918D01*
X047852*
Y03778*
X047787Y037715*
X0451Y0355D02*
Y035893D01*
X045297*
X045362Y035828*
Y035696*
X045297Y035631*
X0451*
X045231D02*
X045362Y0355D01*
X045494D02*
X045625D01*
X045559*
Y035893*
X045494Y035828*
X046084Y0355D02*
X045821D01*
X046084Y035762*
Y035828*
X046018Y035893*
X045887*
X045821Y035828*
X049068Y029895D02*
Y030289D01*
X049264*
X04933Y030223*
Y030092*
X049264Y030026*
X049068*
X049199D02*
X04933Y029895D01*
X049461D02*
X049592D01*
X049527*
Y030289*
X049461Y030223*
X049789D02*
X049855Y030289D01*
X049986*
X050052Y030223*
Y029961*
X049986Y029895*
X049855*
X049789Y029961*
Y030223*
X0502Y036328D02*
Y036722D01*
X050397*
X050462Y036656*
Y036525*
X050397Y036459*
X0502*
X050331D02*
X050462Y036328D01*
X050594Y036656D02*
X050659Y036722D01*
X05079*
X050856Y036656*
Y036591*
X05079Y036525*
X050856Y036459*
Y036394*
X05079Y036328*
X050659*
X050594Y036394*
Y036459*
X050659Y036525*
X050594Y036591*
Y036656*
X050659Y036525D02*
X05079D01*
X050047Y027503D02*
X050325Y027781D01*
X050464Y027642*
Y027549*
X050372Y027457*
X050279*
X05014Y027596*
X050232Y027503D02*
Y027318D01*
X050325Y027225D02*
X050418Y027132D01*
X050372Y027178*
X05065Y027457*
X050557*
X050835Y027271D02*
X051021Y027086D01*
X050974Y027039*
X050603*
X050557Y026993*
X051011Y023239D02*
Y023633D01*
X051208*
X051274Y023567*
Y023436*
X051208Y02337*
X051011*
X051143D02*
X051274Y023239D01*
X051405D02*
X051536D01*
X051471*
Y023633*
X051405Y023567*
X051995Y023633D02*
X051864Y023567D01*
X051733Y023436*
Y023305*
X051799Y023239*
X05193*
X051995Y023305*
Y02337*
X05193Y023436*
X051733*
X039402Y022759D02*
Y023153D01*
X039598*
X039664Y023087*
Y022956*
X039598Y02289*
X039402*
X039533D02*
X039664Y022759D01*
X040058D02*
X039795D01*
X040058Y023021*
Y023087*
X039992Y023153*
X039861*
X039795Y023087*
X040451Y022759D02*
X040189D01*
X040451Y023021*
Y023087*
X040386Y023153*
X040254*
X040189Y023087*
X04905Y035573D02*
Y035967D01*
X049247*
X049313Y035901*
Y03577*
X049247Y035704*
X04905*
X049182D02*
X049313Y035573D01*
X049444D02*
X049575D01*
X04951*
Y035967*
X049444Y035901*
X049772D02*
X049837Y035967D01*
X049969*
X050034Y035901*
Y035836*
X049969Y03577*
X049903*
X049969*
X050034Y035704*
Y035639*
X049969Y035573*
X049837*
X049772Y035639*
X031402Y027768D02*
X031664D01*
X031533*
Y027374*
X031795D02*
Y027768D01*
X031992*
X032058Y027702*
Y027571*
X031992Y027505*
X031795*
X032189Y027308D02*
X032451D01*
X032845Y027702D02*
X032779Y027768D01*
X032648*
X032582Y027702*
Y02744*
X032648Y027374*
X032779*
X032845Y02744*
X032976Y027374D02*
Y027636D01*
X033107Y027768*
X033238Y027636*
Y027374*
Y027571*
X032976*
X033369Y027374D02*
Y027768D01*
X033632Y027374*
Y027768*
X033763Y027308D02*
X034025D01*
X034419Y027702D02*
X034353Y027768D01*
X034222*
X034157Y027702*
Y027636*
X034222Y027571*
X034353*
X034419Y027505*
Y02744*
X034353Y027374*
X034222*
X034157Y02744*
X03455Y027768D02*
X034681D01*
X034616*
Y027374*
X03455*
X034681*
X035141Y027702D02*
X035075Y027768D01*
X034944*
X034878Y027702*
Y02744*
X034944Y027374*
X035075*
X035141Y02744*
Y027571*
X035009*
X034748Y025996D02*
X03501D01*
X034879*
Y025602*
X035142D02*
Y025996D01*
X035338*
X035404Y02593*
Y025799*
X035338Y025734*
X035142*
X035798Y025602D02*
X035535D01*
X035798Y025865*
Y02593*
X035732Y025996*
X035601*
X035535Y02593*
X04085Y030745D02*
X041113D01*
X040982*
Y030351*
X041244D02*
Y030745D01*
X041441*
X041506Y030679*
Y030548*
X041441Y030483*
X041244*
X041638Y030286D02*
X0419D01*
X042031Y030351D02*
Y030614D01*
X042162Y030745*
X042294Y030614*
Y030351*
Y030548*
X042031*
X042425Y030745D02*
Y030483D01*
X042556Y030351*
X042687Y030483*
Y030745*
X043081Y030679D02*
X043015Y030745D01*
X042884*
X042818Y030679*
Y030417*
X042884Y030351*
X043015*
X043081Y030417*
X043474Y030679D02*
X043409Y030745D01*
X043277*
X043212Y030679*
Y030417*
X043277Y030351*
X043409*
X043474Y030417*
X053744Y033168D02*
X054006D01*
X053875*
Y032775*
X054138D02*
Y033168D01*
X054334*
X0544Y033102*
Y032971*
X054334Y032906*
X054138*
X054531Y033168D02*
X054794D01*
Y033102*
X054531Y03284*
Y032775*
X050496Y034756D02*
Y034428D01*
X050562Y034362*
X050693*
X050758Y034428*
Y034756*
X05089Y03469D02*
X050955Y034756D01*
X051086*
X051152Y03469*
Y034625*
X051086Y034559*
X051021*
X051086*
X051152Y034493*
Y034428*
X051086Y034362*
X050955*
X05089Y034428*
X035929Y024618D02*
Y02429D01*
X035995Y024224*
X036126*
X036192Y02429*
Y024618*
X036323Y024224D02*
X036454D01*
X036388*
Y024618*
X036323Y024552*
X042943Y027399D02*
Y027071D01*
X043009Y027005*
X04314*
X043205Y027071*
Y027399*
X043533Y027005D02*
Y027399D01*
X043337Y027202*
X043599*
X05089Y028529D02*
Y028201D01*
X050955Y028136*
X051087*
X051152Y028201*
Y028529*
X051283D02*
X051546D01*
Y028464*
X051283Y028201*
Y028136*
X038193Y027178D02*
Y02685D01*
X038259Y026784*
X03839*
X038455Y02685*
Y027178*
X038849D02*
X038718Y027112D01*
X038586Y026981*
Y02685*
X038652Y026784*
X038783*
X038849Y02685*
Y026916*
X038783Y026981*
X038586*
X040063Y026193D02*
Y026127D01*
X040194Y025996*
X040325Y026127*
Y026193*
X040194Y025996D02*
Y025799D01*
X040457D02*
X040588D01*
X040522*
Y026193*
X040457Y026127*
X032386Y029934D02*
Y030328D01*
X032583*
X032648Y030262*
Y030131*
X032583Y030065*
X032386*
X033042Y029934D02*
X032779D01*
X033042Y030196*
Y030262*
X032976Y030328*
X032845*
X032779Y030262*
X053252Y03948D02*
Y039874D01*
X053449*
X053514Y039808*
Y039677*
X053449Y039612*
X053252*
X053646Y039808D02*
X053711Y039874D01*
X053842*
X053908Y039808*
Y039743*
X053842Y039677*
X053777*
X053842*
X053908Y039612*
Y039546*
X053842Y03948*
X053711*
X053646Y039546*
X036421Y030688D02*
Y031082D01*
X036618*
X036684Y031016*
Y030885*
X036618Y030819*
X036421*
X036815Y030688D02*
X036946D01*
X03688*
Y031082*
X036815Y031016*
X030401Y032021D02*
X03027D01*
X030335*
Y031693*
X03027Y031628*
X030204*
X030139Y031693*
X030532Y031628D02*
X030663D01*
X030598*
Y032021*
X030532Y031956*
X057065Y028331D02*
Y027938D01*
X057327*
X057655D02*
Y028331D01*
X057458Y028134*
X057721*
X055713Y027563D02*
Y027956D01*
X055909*
X055975Y027891*
Y02776*
X055909Y027694*
X055713*
X055844D02*
X055975Y027563D01*
X056369D02*
X056106D01*
X056369Y027825*
Y027891*
X056303Y027956*
X056172*
X056106Y027891*
X056697Y027563D02*
Y027956D01*
X0565Y02776*
X056762*
X055069Y023893D02*
X055003Y023959D01*
X054872*
X054807Y023893*
Y023631*
X054872Y023565*
X055003*
X055069Y023631*
X0552Y023565D02*
X055331D01*
X055266*
Y023959*
X0552Y023893*
X055528D02*
X055594Y023959D01*
X055725*
X05579Y023893*
Y023828*
X055725Y023762*
X05579Y023696*
Y023631*
X055725Y023565*
X055594*
X055528Y023631*
Y023696*
X055594Y023762*
X055528Y023828*
Y023893*
X055594Y023762D02*
X055725D01*
X056206Y026034D02*
Y025969D01*
X056337Y025837*
X056468Y025969*
Y026034*
X056337Y025837D02*
Y025641D01*
X056862D02*
X0566D01*
X056862Y025903*
Y025969*
X056796Y026034*
X056665*
X0566Y025969*
X036482Y019827D02*
Y020221D01*
X036678*
X036744Y020155*
Y020024*
X036678Y019958*
X036482*
X036613D02*
X036744Y019827D01*
X036875Y020221D02*
Y019958D01*
X037006Y019827*
X037137Y019958*
Y020221*
X037269D02*
Y019827D01*
X0374Y019958*
X037531Y019827*
Y020221*
X037662Y02009D02*
X037728D01*
Y020024*
X037662*
Y02009*
Y019893D02*
X037728D01*
Y019827*
X037662*
Y019893*
X03799Y020221D02*
Y019827D01*
X038121Y019958*
X038253Y019827*
Y020221*
X038384D02*
Y019827D01*
X038515Y019958*
X038646Y019827*
Y020221*
X038843Y019762D02*
X038909Y019827D01*
Y019893*
X038843*
Y019827*
X038909*
X038843Y019762*
X038777Y019696*
X039171Y019827D02*
Y020221D01*
X039368*
X039433Y020155*
Y020024*
X039368Y019958*
X039171*
X039302D02*
X039433Y019827D01*
X039564D02*
Y020221D01*
X039696Y02009*
X039827Y020221*
Y019827*
X040024Y019762D02*
X040089Y019827D01*
Y019893*
X040024*
Y019827*
X040089*
X040024Y019762*
X039958Y019696*
X040352Y020221D02*
X040483D01*
X040417*
Y019827*
X040352*
X040483*
X04068Y020221D02*
X040942D01*
X040811*
Y019827*
X041139Y019762D02*
X041204Y019827D01*
Y019893*
X041139*
Y019827*
X041204*
X041139Y019762*
X041073Y019696*
X041467Y020221D02*
Y019827D01*
X041664*
X041729Y019893*
Y020155*
X041664Y020221*
X041467*
X042123D02*
X04186D01*
Y020024*
X041992*
X04186*
Y019827*
X0305Y021147D02*
Y021279D01*
Y021213*
X030107*
X030172Y021147*
Y021475D02*
X030107Y021541D01*
Y021672*
X030172Y021738*
X030238*
X030304Y021672*
Y021606*
Y021672*
X030369Y021738*
X030435*
X0305Y021672*
Y021541*
X030435Y021475*
X0305Y021869D02*
Y022D01*
Y021934*
X030107*
X030172Y021869*
X030304Y022197D02*
Y022459D01*
X030172Y02259D02*
X030107Y022656D01*
Y022787*
X030172Y022853*
X030435*
X0305Y022787*
Y022656*
X030435Y02259*
X030172*
X0305Y023181D02*
X030107D01*
X030304Y022984*
Y023246*
X030172Y023378D02*
X030107Y023443D01*
Y023574*
X030172Y02364*
X030435*
X0305Y023574*
Y023443*
X030435Y023378*
X030172*
X030517Y02802D02*
Y028152D01*
Y028086*
X030123*
X030189Y02802*
Y028348D02*
X030123Y028414D01*
Y028545*
X030189Y028611*
X030254*
X03032Y028545*
Y028479*
Y028545*
X030386Y028611*
X030451*
X030517Y028545*
Y028414*
X030451Y028348*
X030517Y028742D02*
Y028873D01*
Y028807*
X030123*
X030189Y028742*
X03032Y02907D02*
Y029332D01*
X030189Y029463D02*
X030123Y029529D01*
Y02966*
X030189Y029726*
X030451*
X030517Y02966*
Y029529*
X030451Y029463*
X030189*
X030517Y030054D02*
X030123D01*
X03032Y029857*
Y030119*
X030189Y030251D02*
X030123Y030316D01*
Y030447*
X030189Y030513*
X030451*
X030517Y030447*
Y030316*
X030451Y030251*
X030189*
X036491Y020886D02*
Y020492D01*
X036688*
X036754Y020558*
Y02082*
X036688Y020886*
X036491*
X037147Y02082D02*
X037082Y020886D01*
X036951*
X036885Y02082*
Y020558*
X036951Y020492*
X037082*
X037147Y020558*
Y020689*
X037016*
X037279Y020492D02*
Y020886D01*
X037541Y020492*
Y020886*
X037672Y020755D02*
X037738D01*
Y020689*
X037672*
Y020755*
Y020558D02*
X037738D01*
Y020492*
X037672*
Y020558*
X038Y020492D02*
Y020886D01*
X038131Y020755*
X038263Y020886*
Y020492*
X038394Y020886D02*
Y020492D01*
X038591*
X038656Y020558*
Y020623*
X038591Y020689*
X038394*
X038591*
X038656Y020755*
Y02082*
X038591Y020886*
X038394*
X038853Y020427D02*
X038919Y020492D01*
Y020558*
X038853*
Y020492*
X038919*
X038853Y020427*
X038787Y020361*
X039443Y02082D02*
X039378Y020886D01*
X039247*
X039181Y02082*
Y020558*
X039247Y020492*
X039378*
X039443Y020558*
X039837Y020886D02*
X039706D01*
X039771*
Y020558*
X039706Y020492*
X03964*
X039574Y020558*
X039968Y020492D02*
Y020886D01*
X040165*
X04023Y02082*
Y020689*
X040165Y020623*
X039968*
X036492Y019549D02*
Y019156D01*
X036688*
X036754Y019221*
Y019483*
X036688Y019549*
X036492*
X036885Y019418D02*
Y019156D01*
Y019287*
X036951Y019352*
X037016Y019418*
X037082*
X037279Y019156D02*
X03741D01*
X037344*
Y019418*
X037279*
X037607D02*
X037738Y019156D01*
X037869Y019418*
X038197Y019156D02*
X038066D01*
X038Y019221*
Y019352*
X038066Y019418*
X038197*
X038263Y019352*
Y019287*
X038*
X038394Y019418D02*
Y019156D01*
Y019287*
X038459Y019352*
X038525Y019418*
X038591*
X039181Y019549D02*
Y019156D01*
X039378*
X039443Y019221*
Y019483*
X039378Y019549*
X039181*
X039575Y019156D02*
X039706D01*
X03964*
Y019418*
X039575*
X039903Y019156D02*
X040099D01*
X040165Y019221*
X040099Y019287*
X039968*
X039903Y019352*
X039968Y019418*
X040165*
X040296Y019024D02*
Y019418D01*
X040493*
X040558Y019352*
Y019221*
X040493Y019156*
X040296*
X04069D02*
X040821D01*
X040755*
Y019549*
X04069*
X041083Y019418D02*
X041214D01*
X04128Y019352*
Y019156*
X041083*
X041018Y019221*
X041083Y019287*
X04128*
X041411Y019418D02*
Y019221D01*
X041477Y019156*
X041674*
Y01909*
X041608Y019024*
X041542*
X041674Y019156D02*
Y019418D01*
X042264Y019615D02*
Y019483D01*
X042198Y019418*
X042461Y019156D02*
X042592D01*
X042526*
Y019549*
X042461Y019483*
X042789D02*
X042854Y019549D01*
X042986*
X043051Y019483*
Y019418*
X042986Y019352*
X04292*
X042986*
X043051Y019287*
Y019221*
X042986Y019156*
X042854*
X042789Y019221*
G54D52*
X043413Y022417D02*
D01*
X043412Y022423*
X043412Y02243*
X04341Y022437*
X043409Y022444*
X043407Y02245*
X043404Y022456*
X043401Y022463*
X043398Y022468*
X043394Y022474*
X04339Y022479*
X043385Y022485*
X04338Y022489*
X043375Y022494*
X043369Y022498*
X043364Y022501*
X043357Y022505*
X043351Y022507*
X043345Y02251*
X043338Y022512*
X043332Y022513*
X043325Y022514*
X043318Y022514*
X043311*
X043304Y022514*
X043297Y022513*
X043291Y022512*
X043284Y02251*
X043278Y022507*
X043272Y022505*
X043266Y022501*
X04326Y022498*
X043254Y022494*
X043249Y022489*
X043244Y022485*
X043239Y022479*
X043235Y022474*
X043231Y022468*
X043228Y022463*
X043225Y022456*
X043222Y02245*
X04322Y022444*
X043219Y022437*
X043217Y02243*
X043217Y022423*
X043217Y022417*
X043217Y02241*
X043217Y022403*
X043219Y022396*
X04322Y022389*
X043222Y022383*
X043225Y022377*
X043228Y02237*
X043231Y022365*
X043235Y022359*
X043239Y022354*
X043244Y022348*
X043249Y022344*
X043254Y022339*
X04326Y022335*
X043266Y022332*
X043272Y022328*
X043278Y022326*
X043284Y022323*
X043291Y022321*
X043297Y02232*
X043304Y022319*
X043311Y022319*
X043318*
X043325Y022319*
X043332Y02232*
X043338Y022321*
X043345Y022323*
X043351Y022326*
X043357Y022328*
X043364Y022332*
X043369Y022335*
X043375Y022339*
X04338Y022344*
X043385Y022348*
X04339Y022354*
X043394Y022359*
X043398Y022365*
X043401Y02237*
X043404Y022377*
X043407Y022383*
X043409Y022389*
X04341Y022396*
X043412Y022403*
X043412Y02241*
X043413Y022417*
X043209Y025793D02*
D01*
X043208Y025799*
X043208Y025806*
X043206Y025813*
X043205Y02582*
X043203Y025826*
X0432Y025832*
X043197Y025839*
X043194Y025844*
X04319Y02585*
X043186Y025855*
X043181Y025861*
X043176Y025865*
X043171Y02587*
X043165Y025874*
X04316Y025877*
X043153Y025881*
X043147Y025883*
X043141Y025886*
X043134Y025888*
X043128Y025889*
X043121Y02589*
X043114Y02589*
X043107*
X0431Y02589*
X043093Y025889*
X043087Y025888*
X04308Y025886*
X043074Y025883*
X043068Y025881*
X043062Y025877*
X043056Y025874*
X04305Y02587*
X043045Y025865*
X04304Y025861*
X043035Y025855*
X043031Y02585*
X043027Y025844*
X043024Y025839*
X043021Y025832*
X043018Y025826*
X043016Y02582*
X043015Y025813*
X043013Y025806*
X043013Y025799*
X043013Y025793*
X043013Y025786*
X043013Y025779*
X043015Y025772*
X043016Y025765*
X043018Y025759*
X043021Y025753*
X043024Y025746*
X043027Y025741*
X043031Y025735*
X043035Y02573*
X04304Y025724*
X043045Y02572*
X04305Y025715*
X043056Y025711*
X043062Y025708*
X043068Y025704*
X043074Y025702*
X04308Y025699*
X043087Y025697*
X043093Y025696*
X0431Y025695*
X043107Y025695*
X043114*
X043121Y025695*
X043128Y025696*
X043134Y025697*
X043141Y025699*
X043147Y025702*
X043153Y025704*
X04316Y025708*
X043165Y025711*
X043171Y025715*
X043176Y02572*
X043181Y025724*
X043186Y02573*
X04319Y025735*
X043194Y025741*
X043197Y025746*
X0432Y025753*
X043203Y025759*
X043205Y025765*
X043206Y025772*
X043208Y025779*
X043208Y025786*
X043209Y025793*
X04832Y023745D02*
X049947Y025372D01*
X048018Y027301D02*
X049947Y025372D01*
X046088D02*
X048018Y027301D01*
X046088Y025372D02*
X047716Y023745D01*
X04832*
G54D53*
X046408Y038004D02*
D01*
X046407Y038014*
X046406Y038024*
X046404Y038033*
X046402Y038043*
X046399Y038053*
X046395Y038062*
X046391Y038071*
X046386Y03808*
X04638Y038088*
X046374Y038096*
X046367Y038104*
X04636Y038111*
X046352Y038117*
X046344Y038123*
X046336Y038128*
X046327Y038133*
X046317Y038137*
X046308Y03814*
X046298Y038143*
X046289Y038145*
X046279Y038147*
X046269Y038147*
X046258*
X046248Y038147*
X046238Y038145*
X046229Y038143*
X046219Y03814*
X04621Y038137*
X0462Y038133*
X046192Y038128*
X046183Y038123*
X046175Y038117*
X046167Y038111*
X04616Y038104*
X046153Y038096*
X046147Y038088*
X046141Y03808*
X046136Y038071*
X046132Y038062*
X046128Y038053*
X046125Y038043*
X046123Y038033*
X046121Y038024*
X04612Y038014*
X046119Y038004*
X035779Y022059D02*
D01*
X035778Y022069*
X035777Y022079*
X035775Y022088*
X035773Y022098*
X03577Y022108*
X035766Y022117*
X035762Y022126*
X035757Y022135*
X035751Y022143*
X035745Y022151*
X035738Y022159*
X035731Y022166*
X035723Y022172*
X035715Y022178*
X035707Y022183*
X035698Y022188*
X035688Y022192*
X035679Y022195*
X035669Y022198*
X03566Y0222*
X03565Y022202*
X03564Y022202*
X035629*
X035619Y022202*
X035609Y0222*
X0356Y022198*
X03559Y022195*
X035581Y022192*
X035571Y022188*
X035563Y022183*
X035554Y022178*
X035546Y022172*
X035538Y022166*
X035531Y022159*
X035524Y022151*
X035518Y022143*
X035512Y022135*
X035507Y022126*
X035503Y022117*
X035499Y022108*
X035496Y022098*
X035494Y022088*
X035492Y022079*
X035491Y022069*
X03549Y022059*
X051448Y034207D02*
D01*
X051448Y034202*
X051448Y034198*
X051449Y034193*
X05145Y034189*
X051451Y034185*
X051453Y03418*
X051455Y034176*
X051457Y034173*
X05146Y034169*
X051462Y034165*
X051465Y034162*
X051469Y034159*
X051472Y034156*
X051476Y034153*
X05148Y034151*
X051483Y034149*
X051488Y034147*
X051492Y034146*
X051496Y034144*
X0515Y034143*
X051505Y034143*
X051509Y034143*
X051514*
X051518Y034143*
X051523Y034143*
X051527Y034144*
X051531Y034146*
X051535Y034147*
X05154Y034149*
X051544Y034151*
X051547Y034153*
X051551Y034156*
X051554Y034159*
X051558Y034162*
X051561Y034165*
X051563Y034169*
X051566Y034173*
X051568Y034176*
X05157Y03418*
X051572Y034185*
X051573Y034189*
X051574Y034193*
X051575Y034198*
X051575Y034202*
X051576Y034207*
X044715Y030351D02*
D01*
X044714Y030361*
X044713Y030372*
X044711Y030383*
X044708Y030394*
X044705Y030404*
X044701Y030414*
X044696Y030424*
X044691Y030434*
X044685Y030443*
X044678Y030451*
X04467Y03046*
X044663Y030467*
X044654Y030474*
X044645Y030481*
X044636Y030486*
X044626Y030492*
X044616Y030496*
X044606Y0305*
X044595Y030503*
X044585Y030505*
X044574Y030507*
X044563Y030507*
X044552*
X044541Y030507*
X04453Y030505*
X04452Y030503*
X044509Y0305*
X044499Y030496*
X044489Y030492*
X044479Y030486*
X04447Y030481*
X044461Y030474*
X044452Y030467*
X044445Y03046*
X044437Y030451*
X04443Y030443*
X044424Y030434*
X044419Y030424*
X044414Y030414*
X04441Y030404*
X044407Y030394*
X044404Y030383*
X044402Y030372*
X044401Y030361*
X044401Y030351*
X044401Y03034*
X044402Y030329*
X044404Y030318*
X044407Y030307*
X04441Y030297*
X044414Y030287*
X044419Y030277*
X044424Y030267*
X04443Y030258*
X044437Y03025*
X044445Y030241*
X044452Y030234*
X044461Y030227*
X04447Y03022*
X044479Y030215*
X044489Y030209*
X044499Y030205*
X044509Y030201*
X04452Y030198*
X04453Y030196*
X044541Y030194*
X044552Y030194*
X044563*
X044574Y030194*
X044585Y030196*
X044595Y030198*
X044606Y030201*
X044616Y030205*
X044626Y030209*
X044636Y030215*
X044645Y03022*
X044654Y030227*
X044663Y030234*
X04467Y030241*
X044678Y03025*
X044685Y030258*
X044691Y030267*
X044696Y030277*
X044701Y030287*
X044705Y030297*
X044708Y030307*
X044711Y030318*
X044713Y030329*
X044714Y03034*
X044715Y030351*
X042888Y021407D02*
X043537D01*
X042888Y022628D02*
X043537D01*
Y021407D02*
Y022628D01*
X042888Y021407D02*
Y022628D01*
Y026803D02*
X043537D01*
X042888Y025583D02*
X043537D01*
X042888D02*
Y026803D01*
X043537Y025583D02*
Y026803D01*
X056984Y021846D02*
X057984D01*
X056984D02*
Y025846D01*
X057984Y021846D02*
Y025846D01*
X056984D02*
X057984D01*
X045831Y038004D02*
Y039972D01*
X046697Y038004D02*
Y039972D01*
X045831D02*
X046697D01*
X045831Y038004D02*
X046119D01*
X046408D02*
X046697D01*
X037102Y028447D02*
Y030447D01*
Y028447D02*
X039102D01*
X037102Y030447D02*
X039102D01*
Y028447D02*
Y030447D01*
X058032Y03898D02*
Y03998D01*
X054032Y03898D02*
X058032D01*
X054032Y03998D02*
X058032D01*
X054032Y03898D02*
Y03998D01*
X033165Y028329D02*
Y030329D01*
Y028329D02*
X035165D01*
X033165Y030329D02*
X035165D01*
Y028329D02*
Y030329D01*
X035201Y022059D02*
Y024028D01*
X036068Y022059D02*
Y024028D01*
X035201D02*
X036068D01*
X035201Y022059D02*
X03549D01*
X035779D02*
X036068D01*
X050659Y030624D02*
Y034207D01*
Y030624D02*
X052364D01*
Y034207*
X051576D02*
X052364D01*
X050659D02*
X051448D01*
X055653Y028929D02*
Y029953D01*
X05392Y028929D02*
X055653D01*
X05392D02*
Y029953D01*
X055653*
X053843Y030508D02*
Y031531D01*
X055575*
Y030508D02*
Y031531D01*
X053843Y030508D02*
X055575D01*
X044224Y03024D02*
Y030463D01*
X045838Y032077*
X047564Y030351*
X045838Y028625D02*
X047564Y030351D01*
X044224Y03024D02*
X045838Y028625D01*
X041847Y035983D02*
Y039883D01*
X037752Y035983D02*
Y039883D01*
X041847*
X037752Y035983D02*
X041847D01*
X056972Y027743D02*
X057996D01*
Y02601D02*
Y027743D01*
X056972Y02601D02*
X057996D01*
X056972D02*
Y027743D01*
G54D54*
X058863Y035858D03*
G54D55*
X044901Y022295D02*
X045255D01*
X044901Y021823D02*
X045255D01*
X045531D02*
X045924D01*
X045531Y022295D02*
X045924D01*
X044901Y021823D02*
Y022295D01*
X045924Y021823D02*
Y022295D01*
X040074Y024874D02*
X040428D01*
X040074Y025346D02*
X040428D01*
X039404D02*
X039798D01*
X039404Y024874D02*
X039798D01*
X040428D02*
Y025346D01*
X039404Y024874D02*
Y025346D01*
X04081Y024874D02*
Y025346D01*
X041833Y024874D02*
Y025346D01*
X04081Y024874D02*
X041204D01*
X04081Y025346D02*
X041204D01*
X041479D02*
X041833D01*
X041479Y024874D02*
X041833D01*
X039472Y023316D02*
Y023789D01*
X040496Y023316D02*
Y023789D01*
X039472Y023316D02*
X039866D01*
X039472Y023789D02*
X039866D01*
X040142D02*
X040496D01*
X040142Y023316D02*
X040496D01*
X041479Y023332D02*
X041833D01*
X041479Y023804D02*
X041833D01*
X04081D02*
X041204D01*
X04081Y023332D02*
X041204D01*
X041833D02*
Y023804D01*
X04081Y023332D02*
Y023804D01*
X048974Y029064D02*
X049328D01*
X048974Y028591D02*
X049328D01*
X049604D02*
X049998D01*
X049604Y029064D02*
X049998D01*
X048974Y028591D02*
Y029064D01*
X049998Y028591D02*
Y029064D01*
X050405Y026299D02*
X050739Y026633D01*
X051129Y025575D02*
X051463Y025909D01*
X050405Y026299D02*
X050683Y026021D01*
X050739Y026633D02*
X051017Y026355D01*
X051212Y02616D02*
X051463Y025909D01*
X050878Y025826D02*
X051129Y025575D01*
X042328Y034697D02*
X043116D01*
X042328Y036823D02*
X043116D01*
Y034697D02*
Y035327D01*
X042328Y034697D02*
Y035327D01*
Y036193D02*
Y036823D01*
X043116Y036193D02*
Y036823D01*
X037996Y032551D02*
Y033024D01*
X036972Y032551D02*
Y033024D01*
X037602D02*
X037996D01*
X037602Y032551D02*
X037996D01*
X036972D02*
X037327D01*
X036972Y033024D02*
X037327D01*
X042622Y031272D02*
Y031744D01*
X041598Y031272D02*
Y031744D01*
X042228D02*
X042622D01*
X042228Y031272D02*
X042622D01*
X041598D02*
X041953D01*
X041598Y031744D02*
X041953D01*
X041028Y031283D02*
X041382D01*
X041028Y031756D02*
X041382D01*
X040358D02*
X040752D01*
X040358Y031283D02*
X040752D01*
X041382D02*
Y031756D01*
X040358Y031283D02*
Y031756D01*
X039453Y031272D02*
X039807D01*
X039453Y031744D02*
X039807D01*
X038783D02*
X039177D01*
X038783Y031272D02*
X039177D01*
X039807D02*
Y031744D01*
X038783Y031272D02*
Y031744D01*
X036913Y031267D02*
Y03174D01*
X037937Y031267D02*
Y03174D01*
X036913Y031267D02*
X037307D01*
X036913Y03174D02*
X037307D01*
X037583D02*
X037937D01*
X037583Y031267D02*
X037937D01*
X036224Y026154D02*
Y026626D01*
X035201Y026154D02*
Y026626D01*
X035831D02*
X036224D01*
X035831Y026154D02*
X036224D01*
X035201D02*
X035555D01*
X035201Y026626D02*
X035555D01*
X034575Y02458D02*
Y025052D01*
X033551Y02458D02*
Y025052D01*
X034181D02*
X034575D01*
X034181Y02458D02*
X034575D01*
X033551D02*
X033905D01*
X033551Y025052D02*
X033905D01*
X048662Y033284D02*
X049134D01*
X048662Y03226D02*
X049134D01*
X048662Y03289D02*
Y033284D01*
X049134Y03289D02*
Y033284D01*
Y03226D02*
Y032614D01*
X048662Y03226D02*
Y032614D01*
X054295Y035937D02*
X054768D01*
X054295Y034913D02*
X054768D01*
X054295Y035543D02*
Y035937D01*
X054768Y035543D02*
Y035937D01*
Y034913D02*
Y035268D01*
X054295Y034913D02*
Y035268D01*
X036677Y025664D02*
X03715D01*
X036677Y026688D02*
X03715D01*
Y025664D02*
Y026058D01*
X036677Y025664D02*
Y026058D01*
Y026333D02*
Y026688D01*
X03715Y026333D02*
Y026688D01*
X042228Y027584D02*
Y028056D01*
X043252Y027584D02*
Y028056D01*
X042228Y027584D02*
X042622D01*
X042228Y028056D02*
X042622D01*
X042898D02*
X043252D01*
X042898Y027584D02*
X043252D01*
X044984Y03639D02*
Y036862D01*
X046008Y03639D02*
Y036862D01*
X044984Y03639D02*
X045378D01*
X044984Y036862D02*
X045378D01*
X045654D02*
X046008D01*
X045654Y03639D02*
X046008D01*
X042622Y032551D02*
Y033024D01*
X041598Y032551D02*
Y033024D01*
X042228D02*
X042622D01*
X042228Y032551D02*
X042622D01*
X041598D02*
X041953D01*
X041598Y033024D02*
X041953D01*
X040358Y032563D02*
Y033035D01*
X041382Y032563D02*
Y033035D01*
X040358Y032563D02*
X040752D01*
X040358Y033035D02*
X040752D01*
X041028D02*
X041382D01*
X041028Y032563D02*
X041382D01*
X037071Y034815D02*
Y035169D01*
X037543Y034815D02*
Y035169D01*
Y035445D02*
Y035839D01*
X037071Y035445D02*
Y035839D01*
Y034815D02*
X037543D01*
X037071Y035839D02*
X037543D01*
X050981Y022626D02*
Y023098D01*
X052005Y022626D02*
Y023098D01*
X050981Y022626D02*
X051375D01*
X050981Y023098D02*
X051375D01*
X05165D02*
X052005D01*
X05165Y022626D02*
X052005D01*
X051761Y028572D02*
X051961D01*
X052311Y027672D02*
X052361D01*
X052711Y028572D02*
X052911D01*
X051761Y028122D02*
Y028572D01*
X052911Y028122D02*
Y028572D01*
X049984Y034893D02*
Y035365D01*
X048961Y034893D02*
Y035365D01*
X049591D02*
X049984D01*
X049591Y034893D02*
X049984D01*
X048961D02*
X049315D01*
X048961Y035365D02*
X049315D01*
X049531Y027132D02*
X049865Y027466D01*
X050255Y026409D02*
X050589Y026743D01*
X049531Y027132D02*
X04981Y026854D01*
X049865Y027466D02*
X050144Y027188D01*
X050339Y026993D02*
X050589Y026743D01*
X050005Y026659D02*
X050255Y026409D01*
X04892Y036269D02*
Y036742D01*
X049944Y036269D02*
Y036742D01*
X04892Y036269D02*
X049314D01*
X04892Y036742D02*
X049314D01*
X04959D02*
X049944D01*
X04959Y036269D02*
X049944D01*
X050002Y029265D02*
Y029738D01*
X048979Y029265D02*
Y029738D01*
X049608D02*
X050002D01*
X049608Y029265D02*
X050002D01*
X048979D02*
X049333D01*
X048979Y029738D02*
X049333D01*
X047017Y036757D02*
Y037229D01*
X048041Y036757D02*
Y037229D01*
X047017Y036757D02*
X047411D01*
X047017Y037229D02*
X047411D01*
X047687D02*
X048041D01*
X047687Y036757D02*
X048041D01*
X044984Y034843D02*
Y035315D01*
X046008Y034843D02*
Y035315D01*
X044984Y034843D02*
X045378D01*
X044984Y035315D02*
X045378D01*
X045654D02*
X046008D01*
X045654Y034843D02*
X046008D01*
X053902Y036921D02*
X054374D01*
X053902Y037945D02*
X054374D01*
Y036921D02*
Y037315D01*
X053902Y036921D02*
Y037315D01*
Y037591D02*
Y037945D01*
X054374Y037591D02*
Y037945D01*
X050398Y029284D02*
Y029757D01*
X051421Y029284D02*
Y029757D01*
X050398Y029284D02*
X050791D01*
X050398Y029757D02*
X050791D01*
X051067D02*
X051421D01*
X051067Y029284D02*
X051421D01*
X056362Y027395D02*
X056835D01*
X056362Y026371D02*
X056835D01*
X056362Y027001D02*
Y027395D01*
X056835Y027001D02*
Y027395D01*
Y026371D02*
Y026725D01*
X056362Y026371D02*
Y026725D01*
X05139Y02417D02*
X051863D01*
X05139Y025193D02*
X051863D01*
Y02417D02*
Y024563D01*
X05139Y02417D02*
Y024563D01*
Y024839D02*
Y025193D01*
X051863Y024839D02*
Y025193D01*
X054977Y02418D02*
X055449D01*
X054977Y025203D02*
X055449D01*
Y02418D02*
Y024574D01*
X054977Y02418D02*
Y024574D01*
Y024849D02*
Y025203D01*
X055449Y024849D02*
Y025203D01*
G54D56*
X039925Y025681D02*
Y025976D01*
X041776Y025681D02*
Y025957D01*
Y030031*
X039925Y025681D02*
X041776D01*
X039925Y025976D02*
Y030031D01*
X041776*
X051736Y02723D02*
X052031D01*
X051736Y02538D02*
X052012D01*
X056087*
X051736D02*
Y02723D01*
X052031D02*
X056087D01*
Y02538D02*
Y02723D01*
G54D57*
X053752Y034954D02*
Y03626D01*
X053002D02*
X053752D01*
X053002Y034954D02*
X053752D01*
X050981Y034938D02*
Y036244D01*
Y034938D02*
X051731D01*
X050981Y036244D02*
X051731D01*
X037819Y028347D02*
X037902Y028264D01*
Y028097*
X037819Y028014*
X037736*
X037652Y028097*
Y02818*
Y028097*
X037569Y028014*
X037486*
X037402Y028097*
Y028264*
X037486Y028347*
X03839Y028076D02*
X03889D01*
X03864Y028326*
Y027993*
X038402Y030614D02*
Y030947D01*
X038736Y030614*
X038819*
X038902Y030697*
Y030864*
X038819Y030947*
X037402Y030747D02*
Y03058D01*
Y030664*
X037902*
X037819Y030747*
X033882Y028229D02*
X033965Y028145D01*
Y027979*
X033882Y027895*
X033799*
X033715Y027979*
Y028062*
Y027979*
X033632Y027895*
X033549*
X033465Y027979*
Y028145*
X033549Y028229*
X034465Y027979D02*
X034965D01*
X034715Y028229*
Y027895*
X034465Y030495D02*
Y030829D01*
X034799Y030495*
X034882*
X034965Y030579*
Y030745*
X034882Y030829*
X033465Y030629D02*
Y030462D01*
Y030545*
X033965*
X033882Y030629*
M02*