%FSTAX24Y24*%
%MOIN*%
%SFA1B1*%

%IPPOS*%
%ADD9500C,0.015700*%
%ADD9501C,0.019700*%
%ADD9502C,0.027600*%
%ADD9503C,0.035400*%
%ADD9504C,0.039400*%
%ADD9505C,0.070900*%
%ADD9506C,0.098400*%
%ADD9507C,0.118100*%
%ADD9508C,0.137800*%
%LNaddl-1*%
%LPD*%
G54D9500*
X046891Y022824D03*
X047937Y022551D03*
X048895Y023043D03*
X049884Y02351D03*
X050496Y022639D03*
X051837Y022266D03*
X051135Y024362D03*
X050496Y025406D03*
X049309D03*
X04902Y025701D03*
X048724Y025996D03*
X048454Y026466D03*
X048134Y026882D03*
X047642Y02656D03*
X047489Y024421D03*
X047051Y024717D03*
X047957Y024036D03*
X051325Y026847D03*
X0515Y027724D03*
X05148Y030111D03*
X054335Y030226D03*
X055171Y028947D03*
X055446Y02755D03*
X054153Y027838D03*
X053437Y028266D03*
X046815Y030398D03*
X045003Y030524D03*
X045253Y029715D03*
X044492Y028358D03*
X044583Y027601D03*
X044689Y026847D03*
Y026152D03*
X043705Y025307D03*
X042425Y025408D03*
X042622Y024575D03*
X043016Y024574D03*
X044251Y023018D03*
X044406Y020789D03*
X046403Y023535D03*
X046092Y023864D03*
X045673Y024323D03*
X045464Y027349D03*
X043803Y027404D03*
X042457Y027088D03*
X041736Y02639D03*
X041441Y02783D03*
X038587Y027722D03*
X038263Y027079D03*
X037759D03*
X03954Y026291D03*
X039642Y024453D03*
X039112Y023552D03*
X038685Y022796D03*
X037701Y022806D03*
X037941Y022052D03*
X03594Y021665D03*
X036913Y025167D03*
X039488Y02974D03*
X043882Y031896D03*
X044177Y032295D03*
X04461Y032294D03*
X044866Y032833D03*
X045378Y032848D03*
X044266Y03499D03*
X044271Y036626D03*
X046559Y036823D03*
X046569Y034953D03*
X041351Y036855D03*
Y037445D03*
Y038036D03*
Y038627D03*
Y039217D03*
X04076D03*
Y038627D03*
Y037445D03*
Y036855D03*
X040169D03*
X039579D03*
X038988D03*
Y037445D03*
X038398D03*
Y038036D03*
Y038627D03*
X038988D03*
Y039217D03*
X038398D03*
X039579D03*
X040169D03*
X038398Y036855D03*
X047289Y036478D03*
X047287Y034953D03*
X047031Y033969D03*
X047622Y033994D03*
X049807Y034502D03*
X051087Y033919D03*
X05156Y033898D03*
X052103Y032689D03*
X050877Y032787D03*
X050929Y032029D03*
X051874Y031508D03*
X048921Y031803D03*
X048823Y038201D03*
X05342Y03715D03*
X053997Y036566D03*
X054728Y036823D03*
G54D9501*
X052951Y026305D03*
X054872D03*
X04085Y026896D03*
Y028817D03*
X044271Y037854D03*
G54D9502*
X02832Y021387D03*
Y022017D03*
Y022647D03*
X02918Y022417D03*
Y021617D03*
X029197Y02849D03*
Y02929D03*
X028337Y02952D03*
Y02889D03*
Y02826D03*
G54D9503*
X057484Y022346D03*
Y023346D03*
Y024346D03*
Y025346D03*
X038602Y028947D03*
Y029947D03*
X037602D03*
Y028947D03*
X034665Y028829D03*
Y029829D03*
X033665D03*
Y028829D03*
X054531Y03948D03*
X055532D03*
X056532D03*
X057531D03*
G54D9504*
X052268Y029468D03*
X042446Y02929D03*
X037922Y023774D03*
X03524Y025012D03*
X032307Y028457D03*
X031897Y021026D03*
X054335Y032197D03*
G54D9505*
X035389Y034014D03*
X035379Y037174D03*
G54D9506*
X02723Y035607D03*
G54D9507*
X0287Y019687D03*
Y024407D03*
X028717Y02656D03*
Y03128D03*
X039874Y038036D03*
G54D9508*
X053402Y024051D03*
X032142Y024071D03*
M02*