%FSTAX24Y24*%
%MOIN*%
%SFA1B1*%

%IPPOS*%
%AMD14*
4,1,4,-0.023100,0.001900,0.001900,-0.023100,0.023100,-0.001900,-0.001900,0.023100,-0.023100,0.001900,0.0*
%
%AMD23*
4,1,4,0.022200,-0.009800,-0.009800,0.022200,-0.022200,0.009800,0.009800,-0.022200,0.022200,-0.009800,0.0*
1,1,0.017700,-0.016000,0.016000*
1,1,0.017700,0.016000,-0.016000*
%
%AMD24*
4,1,4,-0.009800,-0.022200,0.022200,0.009800,0.009800,0.022200,-0.022200,-0.009800,-0.009800,-0.022200,0.0*
1,1,0.017700,0.016000,0.016000*
1,1,0.017700,-0.016000,-0.016000*
%
%AMD25*
4,1,4,0.016100,0.028500,-0.028500,-0.016100,-0.016100,-0.028500,0.028500,0.016100,0.016100,0.028500,0.0*
%
%AMD29*
4,1,4,0.006700,-0.013900,0.013900,-0.006700,-0.006700,0.013900,-0.013900,0.006700,0.006700,-0.013900,0.0*
1,1,0.010200,0.010300,-0.010300*
1,1,0.010200,-0.010300,0.010300*
%
%AMD30*
4,1,4,-0.013900,-0.006700,-0.006700,-0.013900,0.013900,0.006700,0.006700,0.013900,-0.013900,-0.006700,0.0*
1,1,0.010200,-0.010300,-0.010300*
1,1,0.010200,0.010300,0.010300*
%
%AMD31*
4,1,4,0.010300,-0.017500,0.017500,-0.010300,-0.010300,0.017500,-0.017500,0.010300,0.010300,-0.017500,0.0*
%
%ADD10O,0.065000X0.011800*%
%ADD11R,0.035400X0.030000*%
%ADD12R,0.086600X0.023600*%
%ADD13O,0.086600X0.023600*%
G04~CAMADD=14~9~0.0~0.0~354.0~300.0~0.0~0.0~0~0.0~0.0~0.0~0.0~0~0.0~0.0~0.0~0.0~0~0.0~0.0~0.0~135.0~462.0~461.0*
%ADD14D14*%
%ADD15R,0.060000X0.063000*%
%ADD16O,0.086600X0.015700*%
%ADD17R,0.086600X0.015700*%
%ADD18R,0.094500X0.126000*%
%ADD19R,0.051200X0.055100*%
%ADD20R,0.088600X0.019700*%
%ADD21R,0.157500X0.080700*%
%ADD22R,0.137800X0.080700*%
G04~CAMADD=23~3~0.0~0.0~630.0~177.0~0.0~0.0~0~0.0~0.0~0.0~0.0~0~0.0~0.0~0.0~0.0~0~0.0~0.0~0.0~315.0~496.0~496.0*
%ADD23D23*%
G04~CAMADD=24~3~0.0~0.0~630.0~177.0~0.0~0.0~0~0.0~0.0~0.0~0.0~0~0.0~0.0~0.0~0.0~0~0.0~0.0~0.0~225.0~496.0~496.0*
%ADD24D24*%
G04~CAMADD=25~9~0.0~0.0~630.0~177.0~0.0~0.0~0~0.0~0.0~0.0~0.0~0~0.0~0.0~0.0~0.0~0~0.0~0.0~0.0~45.0~570.0~569.0*
%ADD25D25*%
%ADD26R,0.030000X0.035400*%
%ADD27R,0.039400X0.049200*%
%ADD28R,0.015700X0.035400*%
G04~CAMADD=29~3~0.0~0.0~102.0~394.0~0.0~0.0~0~0.0~0.0~0.0~0.0~0~0.0~0.0~0.0~0.0~0~0.0~0.0~0.0~225.0~308.0~308.0*
%ADD29D29*%
G04~CAMADD=30~3~0.0~0.0~102.0~394.0~0.0~0.0~0~0.0~0.0~0.0~0.0~0~0.0~0.0~0.0~0.0~0~0.0~0.0~0.0~135.0~308.0~308.0*
%ADD30D30*%
G04~CAMADD=31~9~0.0~0.0~102.0~394.0~0.0~0.0~0~0.0~0.0~0.0~0.0~0~0.0~0.0~0.0~0.0~0~0.0~0.0~0.0~225.0~350.0~349.0*
%ADD31D31*%
%ADD32R,0.374000X0.354300*%
%ADD33O,0.037400X0.206700*%
%ADD34R,0.037400X0.206700*%
%ADD35R,0.055100X0.051200*%
%ADD36C,0.009800*%
%ADD37C,0.019700*%
%ADD38C,0.011800*%
%ADD39R,0.059100X0.059100*%
%ADD40C,0.059100*%
%ADD41R,0.059100X0.059100*%
%ADD42C,0.066900*%
%ADD43C,0.078700*%
%ADD44C,0.157500*%
%ADD45C,0.047200*%
%ADD46C,0.196900*%
%ADD47C,0.031500*%
%ADD48C,0.039400*%
%ADD49C,0.098400*%
%ADD50C,0.147600*%
%ADD51C,0.010000*%
%ADD56C,0.005000*%
%LNaddl-1*%
%LPD*%
G54D56*
X058795Y039958D02*
Y018592D01*
X052312*
Y01982*
X052318*
X052298Y020063*
X052247Y020277*
X052163Y02048*
X052048Y020667*
X051905Y020834*
X051738Y020977*
X051552Y021092*
X051348Y021175*
X051135Y021226*
X050917Y021244*
X050718Y02124*
X050713Y021244*
X050485Y021226*
X050271Y021175*
X050068Y021092*
X049881Y020977*
X049714Y020834*
X049571Y020667*
X049456Y02048*
X049373Y020277*
X049322Y020063*
X049304Y019845*
X049307Y018613*
X049287Y018592*
X03623*
Y019762*
X036235*
X036217Y020005*
X036165Y020219*
X036082Y020422*
X035967Y020609*
X035824Y020776*
X035657Y020919*
X03547Y021034*
X035267Y021117*
X035053Y021169*
X034835Y021187*
X034635Y021183*
X034629Y021187*
X034403Y021169*
X03419Y021117*
X033987Y021034*
X0338Y020919*
X033633Y020776*
X03349Y020609*
X033375Y020422*
X033291Y020219*
X03324Y020005*
X033222Y019787*
X033225Y018613*
X033205Y018592*
X026695*
Y035318*
X026704Y03532*
X02671Y035306*
X026805Y035182*
X026929Y035087*
X027074Y035026*
X02723Y035006*
X027385Y035026*
X02753Y035087*
X027654Y035182*
X02775Y035306*
X02781Y035451*
X027831Y035607*
X02781Y035762*
X02775Y035907*
X027654Y036031*
X02753Y036127*
X027385Y036187*
X02723Y036208*
X027074Y036187*
X026929Y036127*
X026805Y036031*
X02671Y035907*
X026704Y035893*
X026695Y035895*
Y040462*
X033225Y040488*
X033247Y040468*
Y039354*
X033241*
X033259Y03911*
X033311Y038897*
X033394Y038694*
X033509Y038507*
X033652Y03834*
X033819Y038197*
X034006Y038082*
X034209Y037998*
X034423Y037947*
X034641Y037929*
X034841Y037933*
X034847Y037929*
X034889Y037932*
X034892Y037923*
X034881Y037917*
X034745Y037806*
X034634Y03767*
X034551Y037516*
X0345Y037347*
X034482Y037174*
X0345Y036999*
X034551Y036831*
X034634Y036676*
X034745Y03654*
X034881Y036429*
X035036Y036346*
X035204Y036295*
X035379Y036277*
X035553Y036295*
X035721Y036346*
X035875Y036429*
X036011Y03654*
X036122Y036676*
X036206Y036831*
X036256Y036999*
X036274Y037174*
X036256Y037347*
X036206Y037516*
X036122Y03767*
X036011Y037806*
X035875Y037917*
X035721Y038001*
X035553Y038051*
X035464Y03806*
X035462Y038071*
X035489Y038082*
X035676Y038197*
X035843Y03834*
X035986Y038507*
X036101Y038694*
X036185Y038897*
X036236Y03911*
X036254Y039328*
X036251Y040502*
X049261Y040554*
X049282Y040534*
Y039354*
X049275*
X049295Y03911*
X049346Y038897*
X04943Y038694*
X049545Y038507*
X049688Y03834*
X049855Y038197*
X050042Y038082*
X050245Y037998*
X050458Y037947*
X050676Y037929*
X050875Y037933*
X05088Y037929*
X051108Y037947*
X051322Y037998*
X051525Y038082*
X051712Y038197*
X051879Y03834*
X052022Y038507*
X052137Y038694*
X05222Y038897*
X052272Y03911*
X052289Y039328*
X052286Y040568*
X058236Y040591*
X058795Y039958*
X0267Y01861D02*
X03322D01*
X03624D02*
X0493D01*
X05232D02*
X05879D01*
X0267Y01866D02*
X03322D01*
X03624D02*
X0493D01*
X05232D02*
X05879D01*
X0267Y01871D02*
X03322D01*
X03624D02*
X0493D01*
X05232D02*
X05879D01*
X0267Y01876D02*
X03322D01*
X03624D02*
X0493D01*
X05232D02*
X05879D01*
X0267Y01881D02*
X03322D01*
X03624D02*
X0493D01*
X05232D02*
X05879D01*
X0267Y01886D02*
X03322D01*
X03624D02*
X0493D01*
X05232D02*
X05879D01*
X0267Y01891D02*
X03322D01*
X03624D02*
X0493D01*
X05232D02*
X05879D01*
X0267Y01896D02*
X03322D01*
X03624D02*
X0493D01*
X05232D02*
X05879D01*
X0267Y01901D02*
X03322D01*
X03624D02*
X0493D01*
X05232D02*
X05879D01*
X0267Y01906D02*
X03322D01*
X03624D02*
X0493D01*
X05232D02*
X05879D01*
X0267Y01911D02*
X03322D01*
X03624D02*
X0493D01*
X05232D02*
X05879D01*
X0267Y01916D02*
X03322D01*
X03624D02*
X0493D01*
X05232D02*
X05879D01*
X0267Y01921D02*
X03322D01*
X03624D02*
X0493D01*
X05232D02*
X05879D01*
X0267Y01926D02*
X03322D01*
X03624D02*
X0493D01*
X05232D02*
X05879D01*
X0267Y01931D02*
X03322D01*
X03624D02*
X0493D01*
X05232D02*
X05879D01*
X0267Y01936D02*
X03322D01*
X03624D02*
X0493D01*
X05232D02*
X05879D01*
X0267Y01941D02*
X03322D01*
X03624D02*
X0493D01*
X05232D02*
X05879D01*
X0267Y01946D02*
X03322D01*
X03624D02*
X0493D01*
X05232D02*
X05879D01*
X0267Y01951D02*
X03322D01*
X03624D02*
X0493D01*
X05232D02*
X05879D01*
X0267Y01956D02*
X03322D01*
X03624D02*
X0493D01*
X05232D02*
X05879D01*
X0267Y01961D02*
X03322D01*
X03624D02*
X0493D01*
X05232D02*
X05879D01*
X0267Y01966D02*
X03322D01*
X03624D02*
X0493D01*
X05232D02*
X05879D01*
X0267Y01971D02*
X03322D01*
X03624D02*
X0493D01*
X05232D02*
X05879D01*
X0267Y01976D02*
X03322D01*
X03625D02*
X0493D01*
X05232D02*
X05879D01*
X0267Y01981D02*
X03322D01*
X03625D02*
X0493D01*
X05232D02*
X05879D01*
X0267Y01986D02*
X03322D01*
X03625D02*
X0493D01*
X05233D02*
X05879D01*
X0267Y01991D02*
X03323D01*
X03624D02*
X0493D01*
X05233D02*
X05879D01*
X0267Y01996D02*
X03323D01*
X03624D02*
X04931D01*
X05232D02*
X05879D01*
X0267Y02001D02*
X03323D01*
X03623D02*
X04931D01*
X05232D02*
X05879D01*
X0267Y02006D02*
X03325D01*
X03622D02*
X04931D01*
X05231D02*
X05879D01*
X0267Y02011D02*
X03326D01*
X03621D02*
X04933D01*
X0523D02*
X05879D01*
X0267Y02016D02*
X03327D01*
X0362D02*
X04934D01*
X05229D02*
X05879D01*
X0267Y02021D02*
X03328D01*
X03619D02*
X04935D01*
X05228D02*
X05879D01*
X0267Y02026D02*
X0333D01*
X03617D02*
X04936D01*
X05227D02*
X05879D01*
X0267Y02031D02*
X03333D01*
X03614D02*
X04938D01*
X05225D02*
X05879D01*
X0267Y02036D02*
X03335D01*
X03612D02*
X0494D01*
X05223D02*
X05879D01*
X0267Y02041D02*
X03337D01*
X0361D02*
X04942D01*
X05221D02*
X05879D01*
X0267Y02046D02*
X0334D01*
X03607D02*
X04945D01*
X05218D02*
X05879D01*
X0267Y02051D02*
X03343D01*
X03604D02*
X04947D01*
X05216D02*
X05879D01*
X0267Y02056D02*
X03346D01*
X03601D02*
X0495D01*
X05213D02*
X05879D01*
X0267Y02061D02*
X03348D01*
X03598D02*
X04953D01*
X0521D02*
X05879D01*
X0267Y02066D02*
X03353D01*
X03594D02*
X04956D01*
X05207D02*
X05879D01*
X0267Y02071D02*
X03357D01*
X0359D02*
X0496D01*
X05203D02*
X05879D01*
X0267Y02076D02*
X03361D01*
X03585D02*
X04964D01*
X05199D02*
X05879D01*
X0267Y02081D02*
X03366D01*
X0358D02*
X04969D01*
X05194D02*
X05879D01*
X0267Y02086D02*
X03372D01*
X03574D02*
X04974D01*
X05189D02*
X05879D01*
X0267Y02091D02*
X03378D01*
X03569D02*
X0498D01*
X05183D02*
X05879D01*
X0267Y02096D02*
X03386D01*
X03561D02*
X04985D01*
X05178D02*
X05879D01*
X0267Y02101D02*
X03395D01*
X03552D02*
X04993D01*
X0517D02*
X05879D01*
X0267Y02106D02*
X03405D01*
X03542D02*
X05001D01*
X05162D02*
X05879D01*
X0267Y02111D02*
X03416D01*
X03531D02*
X05011D01*
X05152D02*
X05879D01*
X0267Y02116D02*
X03435D01*
X03511D02*
X05022D01*
X05141D02*
X05879D01*
X0267Y02121D02*
X0504D01*
X05124D02*
X05879D01*
X0267Y02126D02*
X05879D01*
X0267Y02131D02*
X05879D01*
X0267Y02136D02*
X05879D01*
X0267Y02141D02*
X05879D01*
X0267Y02146D02*
X05879D01*
X0267Y02151D02*
X05879D01*
X0267Y02156D02*
X05879D01*
X0267Y02161D02*
X05879D01*
X0267Y02166D02*
X05879D01*
X0267Y02171D02*
X05879D01*
X0267Y02176D02*
X05879D01*
X0267Y02181D02*
X05879D01*
X0267Y02186D02*
X05879D01*
X0267Y02191D02*
X05879D01*
X0267Y02196D02*
X05879D01*
X0267Y02201D02*
X05879D01*
X0267Y02206D02*
X05879D01*
X0267Y02211D02*
X05879D01*
X0267Y02216D02*
X05879D01*
X0267Y02221D02*
X05879D01*
X0267Y02226D02*
X05879D01*
X0267Y02231D02*
X05879D01*
X0267Y02236D02*
X05879D01*
X0267Y02241D02*
X05879D01*
X0267Y02246D02*
X05879D01*
X0267Y02251D02*
X05879D01*
X0267Y02256D02*
X05879D01*
X0267Y02261D02*
X05879D01*
X0267Y02266D02*
X05879D01*
X0267Y02271D02*
X05879D01*
X0267Y02276D02*
X05879D01*
X0267Y02281D02*
X05879D01*
X0267Y02286D02*
X05879D01*
X0267Y02291D02*
X05879D01*
X0267Y02296D02*
X05879D01*
X0267Y02301D02*
X05879D01*
X0267Y02306D02*
X05879D01*
X0267Y02311D02*
X05879D01*
X0267Y02316D02*
X05879D01*
X0267Y02321D02*
X05879D01*
X0267Y02326D02*
X05879D01*
X0267Y02331D02*
X05879D01*
X0267Y02336D02*
X05879D01*
X0267Y02341D02*
X05879D01*
X0267Y02346D02*
X05879D01*
X0267Y02351D02*
X05879D01*
X0267Y02356D02*
X05879D01*
X0267Y02361D02*
X05879D01*
X0267Y02366D02*
X05879D01*
X0267Y02371D02*
X05879D01*
X0267Y02376D02*
X05879D01*
X0267Y02381D02*
X05879D01*
X0267Y02386D02*
X05879D01*
X0267Y02391D02*
X05879D01*
X0267Y02396D02*
X05879D01*
X0267Y02401D02*
X05879D01*
X0267Y02406D02*
X05879D01*
X0267Y02411D02*
X05879D01*
X0267Y02416D02*
X05879D01*
X0267Y02421D02*
X05879D01*
X0267Y02426D02*
X05879D01*
X0267Y02431D02*
X05879D01*
X0267Y02436D02*
X05879D01*
X0267Y02441D02*
X05879D01*
X0267Y02446D02*
X05879D01*
X0267Y02451D02*
X05879D01*
X0267Y02456D02*
X05879D01*
X0267Y02461D02*
X05879D01*
X0267Y02466D02*
X05879D01*
X0267Y02471D02*
X05879D01*
X0267Y02476D02*
X05879D01*
X0267Y02481D02*
X05879D01*
X0267Y02486D02*
X05879D01*
X0267Y02491D02*
X05879D01*
X0267Y02496D02*
X05879D01*
X0267Y02501D02*
X05879D01*
X0267Y02506D02*
X05879D01*
X0267Y02511D02*
X05879D01*
X0267Y02516D02*
X05879D01*
X0267Y02521D02*
X05879D01*
X0267Y02526D02*
X05879D01*
X0267Y02531D02*
X05879D01*
X0267Y02536D02*
X05879D01*
X0267Y02541D02*
X05879D01*
X0267Y02546D02*
X05879D01*
X0267Y02551D02*
X05879D01*
X0267Y02556D02*
X05879D01*
X0267Y02561D02*
X05879D01*
X0267Y02566D02*
X05879D01*
X0267Y02571D02*
X05879D01*
X0267Y02576D02*
X05879D01*
X0267Y02581D02*
X05879D01*
X0267Y02586D02*
X05879D01*
X0267Y02591D02*
X05879D01*
X0267Y02596D02*
X05879D01*
X0267Y02601D02*
X05879D01*
X0267Y02606D02*
X05879D01*
X0267Y02611D02*
X05879D01*
X0267Y02616D02*
X05879D01*
X0267Y02621D02*
X05879D01*
X0267Y02626D02*
X05879D01*
X0267Y02631D02*
X05879D01*
X0267Y02636D02*
X05879D01*
X0267Y02641D02*
X05879D01*
X0267Y02646D02*
X05879D01*
X0267Y02651D02*
X05879D01*
X0267Y02656D02*
X05879D01*
X0267Y02661D02*
X05879D01*
X0267Y02666D02*
X05879D01*
X0267Y02671D02*
X05879D01*
X0267Y02676D02*
X05879D01*
X0267Y02681D02*
X05879D01*
X0267Y02686D02*
X05879D01*
X0267Y02691D02*
X05879D01*
X0267Y02696D02*
X05879D01*
X0267Y02701D02*
X05879D01*
X0267Y02706D02*
X05879D01*
X0267Y02711D02*
X05879D01*
X0267Y02716D02*
X05879D01*
X0267Y02721D02*
X05879D01*
X0267Y02726D02*
X05879D01*
X0267Y02731D02*
X05879D01*
X0267Y02736D02*
X05879D01*
X0267Y02741D02*
X05879D01*
X0267Y02746D02*
X05879D01*
X0267Y02751D02*
X05879D01*
X0267Y02756D02*
X05879D01*
X0267Y02761D02*
X05879D01*
X0267Y02766D02*
X05879D01*
X0267Y02771D02*
X05879D01*
X0267Y02776D02*
X05879D01*
X0267Y02781D02*
X05879D01*
X0267Y02786D02*
X05879D01*
X0267Y02791D02*
X05879D01*
X0267Y02796D02*
X05879D01*
X0267Y02801D02*
X05879D01*
X0267Y02806D02*
X05879D01*
X0267Y02811D02*
X05879D01*
X0267Y02816D02*
X05879D01*
X0267Y02821D02*
X05879D01*
X0267Y02826D02*
X05879D01*
X0267Y02831D02*
X05879D01*
X0267Y02836D02*
X05879D01*
X0267Y02841D02*
X05879D01*
X0267Y02846D02*
X05879D01*
X0267Y02851D02*
X05879D01*
X0267Y02856D02*
X05879D01*
X0267Y02861D02*
X05879D01*
X0267Y02866D02*
X05879D01*
X0267Y02871D02*
X05879D01*
X0267Y02876D02*
X05879D01*
X0267Y02881D02*
X05879D01*
X0267Y02886D02*
X05879D01*
X0267Y02891D02*
X05879D01*
X0267Y02896D02*
X05879D01*
X0267Y02901D02*
X05879D01*
X0267Y02906D02*
X05879D01*
X0267Y02911D02*
X05879D01*
X0267Y02916D02*
X05879D01*
X0267Y02921D02*
X05879D01*
X0267Y02926D02*
X05879D01*
X0267Y02931D02*
X05879D01*
X0267Y02936D02*
X05879D01*
X0267Y02941D02*
X05879D01*
X0267Y02946D02*
X05879D01*
X0267Y02951D02*
X05879D01*
X0267Y02956D02*
X05879D01*
X0267Y02961D02*
X05879D01*
X0267Y02966D02*
X05879D01*
X0267Y02971D02*
X05879D01*
X0267Y02976D02*
X05879D01*
X0267Y02981D02*
X05879D01*
X0267Y02986D02*
X05879D01*
X0267Y02991D02*
X05879D01*
X0267Y02996D02*
X05879D01*
X0267Y03001D02*
X05879D01*
X0267Y03006D02*
X05879D01*
X0267Y03011D02*
X05879D01*
X0267Y03016D02*
X05879D01*
X0267Y03021D02*
X05879D01*
X0267Y03026D02*
X05879D01*
X0267Y03031D02*
X05879D01*
X0267Y03036D02*
X05879D01*
X0267Y03041D02*
X05879D01*
X0267Y03046D02*
X05879D01*
X0267Y03051D02*
X05879D01*
X0267Y03056D02*
X05879D01*
X0267Y03061D02*
X05879D01*
X0267Y03066D02*
X05879D01*
X0267Y03071D02*
X05879D01*
X0267Y03076D02*
X05879D01*
X0267Y03081D02*
X05879D01*
X0267Y03086D02*
X05879D01*
X0267Y03091D02*
X05879D01*
X0267Y03096D02*
X05879D01*
X0267Y03101D02*
X05879D01*
X0267Y03106D02*
X05879D01*
X0267Y03111D02*
X05879D01*
X0267Y03116D02*
X05879D01*
X0267Y03121D02*
X05879D01*
X0267Y03126D02*
X05879D01*
X0267Y03131D02*
X05879D01*
X0267Y03136D02*
X05879D01*
X0267Y03141D02*
X05879D01*
X0267Y03146D02*
X05879D01*
X0267Y03151D02*
X05879D01*
X0267Y03156D02*
X05879D01*
X0267Y03161D02*
X05879D01*
X0267Y03166D02*
X05879D01*
X0267Y03171D02*
X05879D01*
X0267Y03176D02*
X05879D01*
X0267Y03181D02*
X05879D01*
X0267Y03186D02*
X05879D01*
X0267Y03191D02*
X05879D01*
X0267Y03196D02*
X05879D01*
X0267Y03201D02*
X05879D01*
X0267Y03206D02*
X05879D01*
X0267Y03211D02*
X05879D01*
X0267Y03216D02*
X05879D01*
X0267Y03221D02*
X05879D01*
X0267Y03226D02*
X05879D01*
X0267Y03231D02*
X05879D01*
X0267Y03236D02*
X05879D01*
X0267Y03241D02*
X05879D01*
X0267Y03246D02*
X05879D01*
X0267Y03251D02*
X05879D01*
X0267Y03256D02*
X05879D01*
X0267Y03261D02*
X05879D01*
X0267Y03266D02*
X05879D01*
X0267Y03271D02*
X05879D01*
X0267Y03276D02*
X05879D01*
X0267Y03281D02*
X05879D01*
X0267Y03286D02*
X05879D01*
X0267Y03291D02*
X05879D01*
X0267Y03296D02*
X05879D01*
X0267Y03301D02*
X05879D01*
X0267Y03306D02*
X05879D01*
X0267Y03311D02*
X05879D01*
X0267Y03316D02*
X05879D01*
X0267Y03321D02*
X05879D01*
X0267Y03326D02*
X05879D01*
X0267Y03331D02*
X05879D01*
X0267Y03336D02*
X05879D01*
X0267Y03341D02*
X05879D01*
X0267Y03346D02*
X05879D01*
X0267Y03351D02*
X05879D01*
X0267Y03356D02*
X05879D01*
X0267Y03361D02*
X05879D01*
X0267Y03366D02*
X05879D01*
X0267Y03371D02*
X05879D01*
X0267Y03376D02*
X05879D01*
X0267Y03381D02*
X05879D01*
X0267Y03386D02*
X05879D01*
X0267Y03391D02*
X05879D01*
X0267Y03396D02*
X05879D01*
X0267Y03401D02*
X05879D01*
X0267Y03406D02*
X05879D01*
X0267Y03411D02*
X05879D01*
X0267Y03416D02*
X05879D01*
X0267Y03421D02*
X05879D01*
X0267Y03426D02*
X05879D01*
X0267Y03431D02*
X05879D01*
X0267Y03436D02*
X05879D01*
X0267Y03441D02*
X05879D01*
X0267Y03446D02*
X05879D01*
X0267Y03451D02*
X05879D01*
X0267Y03456D02*
X05879D01*
X0267Y03461D02*
X05879D01*
X0267Y03466D02*
X05879D01*
X0267Y03471D02*
X05879D01*
X0267Y03476D02*
X05879D01*
X0267Y03481D02*
X05879D01*
X0267Y03486D02*
X05879D01*
X0267Y03491D02*
X05879D01*
X0267Y03496D02*
X05879D01*
X0267Y03501D02*
X05879D01*
X0267Y03506D02*
X02699D01*
X02747D02*
X05879D01*
X0267Y03511D02*
X0269D01*
X02757D02*
X05879D01*
X0267Y03516D02*
X02683D01*
X02764D02*
X05879D01*
X0267Y03521D02*
X02678D01*
X02769D02*
X05879D01*
X0267Y03526D02*
X02674D01*
X02773D02*
X05879D01*
X0267Y03531D02*
D01*
X02776D02*
X05879D01*
X02779Y03536D02*
X05879D01*
X02781Y03541D02*
X05879D01*
X02783Y03546D02*
X05879D01*
X02783Y03551D02*
X05879D01*
X02784Y03556D02*
X05879D01*
X02784Y03561D02*
X05879D01*
X02784Y03566D02*
X05879D01*
X02783Y03571D02*
X05879D01*
X02782Y03576D02*
X05879D01*
X0278Y03581D02*
X05879D01*
X02778Y03586D02*
X05879D01*
X0267Y03591D02*
D01*
X02776D02*
X05879D01*
X0267Y03596D02*
X02675D01*
X02772D02*
X05879D01*
X0267Y03601D02*
X02679D01*
X02768D02*
X05879D01*
X0267Y03606D02*
X02684D01*
X02763D02*
X05879D01*
X0267Y03611D02*
X0269D01*
X02757D02*
X05879D01*
X0267Y03616D02*
X02699D01*
X02747D02*
X05879D01*
X0267Y03621D02*
X05879D01*
X0267Y03626D02*
X05879D01*
X0267Y03631D02*
X03516D01*
X0356D02*
X05879D01*
X0267Y03636D02*
X03501D01*
X03575D02*
X05879D01*
X0267Y03641D02*
X03491D01*
X03585D02*
X05879D01*
X0267Y03646D02*
X03484D01*
X03593D02*
X05879D01*
X0267Y03651D02*
X03478D01*
X03599D02*
X05879D01*
X0267Y03656D02*
X03473D01*
X03604D02*
X05879D01*
X0267Y03661D02*
X03468D01*
X03608D02*
X05879D01*
X0267Y03666D02*
X03464D01*
X03612D02*
X05879D01*
X0267Y03671D02*
X03461D01*
X03615D02*
X05879D01*
X0267Y03676D02*
X03458D01*
X03618D02*
X05879D01*
X0267Y03681D02*
X03456D01*
X03621D02*
X05879D01*
X0267Y03686D02*
X03454D01*
X03623D02*
X05879D01*
X0267Y03691D02*
X03452D01*
X03625D02*
X05879D01*
X0267Y03696D02*
X03451D01*
X03626D02*
X05879D01*
X0267Y03701D02*
X03449D01*
X03628D02*
X05879D01*
X0267Y03706D02*
X03449D01*
X03628D02*
X05879D01*
X0267Y03711D02*
X03448D01*
X03628D02*
X05879D01*
X0267Y03716D02*
X03448D01*
X03628D02*
X05879D01*
X0267Y03721D02*
X03448D01*
X03628D02*
X05879D01*
X0267Y03726D02*
X03448D01*
X03628D02*
X05879D01*
X0267Y03731D02*
X03449D01*
X03628D02*
X05879D01*
X0267Y03736D02*
X0345D01*
X03627D02*
X05879D01*
X0267Y03741D02*
X03451D01*
X03626D02*
X05879D01*
X0267Y03746D02*
X03453D01*
X03624D02*
X05879D01*
X0267Y03751D02*
X03454D01*
X03623D02*
X05879D01*
X0267Y03756D02*
X03457D01*
X0362D02*
X05879D01*
X0267Y03761D02*
X03459D01*
X03617D02*
X05879D01*
X0267Y03766D02*
X03462D01*
X03614D02*
X05879D01*
X0267Y03771D02*
X03466D01*
X0361D02*
X05879D01*
X0267Y03776D02*
X0347D01*
X03606D02*
X05879D01*
X0267Y03781D02*
X03474D01*
X03602D02*
X05879D01*
X0267Y03786D02*
X0348D01*
X03597D02*
X05879D01*
X0267Y03791D02*
X03486D01*
X03591D02*
X05879D01*
X0267Y03796D02*
X03437D01*
X03581D02*
X05041D01*
X05117D02*
X05879D01*
X0267Y03801D02*
X03418D01*
X0357D02*
X05022D01*
X05136D02*
X05879D01*
X0267Y03806D02*
X03405D01*
X03547D02*
X05009D01*
X05149D02*
X05879D01*
X0267Y03811D02*
X03396D01*
X03555D02*
X04999D01*
X05159D02*
X05879D01*
X0267Y03816D02*
X03388D01*
X03563D02*
X04991D01*
X05166D02*
X05879D01*
X0267Y03821D02*
X0338D01*
X03571D02*
X04984D01*
X05174D02*
X05879D01*
X0267Y03826D02*
X03374D01*
X03576D02*
X04978D01*
X0518D02*
X05879D01*
X0267Y03831D02*
X03368D01*
X03582D02*
X04972D01*
X05186D02*
X05879D01*
X0267Y03836D02*
X03363D01*
X03587D02*
X04967D01*
X05191D02*
X05879D01*
X0267Y03841D02*
X03359D01*
X03592D02*
X04963D01*
X05195D02*
X05879D01*
X0267Y03846D02*
X03355D01*
X03596D02*
X04959D01*
X05199D02*
X05879D01*
X0267Y03851D02*
X0335D01*
X036D02*
X04954D01*
X05203D02*
X05879D01*
X0267Y03856D02*
X03347D01*
X03604D02*
X04951D01*
X05207D02*
X05879D01*
X0267Y03861D02*
X03344D01*
X03607D02*
X04948D01*
X0521D02*
X05879D01*
X0267Y03866D02*
X0334D01*
X0361D02*
X04944D01*
X05213D02*
X05879D01*
X0267Y03871D02*
X03338D01*
X03612D02*
X04942D01*
X05216D02*
X05879D01*
X0267Y03876D02*
X03336D01*
X03614D02*
X0494D01*
X05218D02*
X05879D01*
X0267Y03881D02*
X03334D01*
X03617D02*
X04938D01*
X0522D02*
X05879D01*
X0267Y03886D02*
X03332D01*
X03619D02*
X04936D01*
X05222D02*
X05879D01*
X0267Y03891D02*
X0333D01*
X03621D02*
X04934D01*
X05224D02*
X05879D01*
X0267Y03896D02*
X03329D01*
X03622D02*
X04933D01*
X05225D02*
X05879D01*
X0267Y03901D02*
X03328D01*
X03623D02*
X04932D01*
X05226D02*
X05879D01*
X0267Y03906D02*
X03327D01*
X03624D02*
X04931D01*
X05227D02*
X05879D01*
X0267Y03911D02*
X03325D01*
X03625D02*
X04929D01*
X05228D02*
X05879D01*
X0267Y03916D02*
X03325D01*
X03626D02*
X04929D01*
X05229D02*
X05879D01*
X0267Y03921D02*
X03325D01*
X03626D02*
X04929D01*
X05229D02*
X05879D01*
X0267Y03926D02*
X03324D01*
X03626D02*
X04928D01*
X0523D02*
X05879D01*
X0267Y03931D02*
X03324D01*
X03626D02*
X04928D01*
X0523D02*
X05879D01*
X0267Y03936D02*
X03324D01*
X03626D02*
X04927D01*
X0523D02*
X05879D01*
X0267Y03941D02*
X03324D01*
X03626D02*
X04927D01*
X0523D02*
X05879D01*
X0267Y03946D02*
X03324D01*
X03626D02*
X04927D01*
X0523D02*
X05879D01*
X0267Y03951D02*
X03324D01*
X03626D02*
X04927D01*
X0523D02*
X05879D01*
X0267Y03956D02*
X03324D01*
X03626D02*
X04927D01*
X0523D02*
X05879D01*
X0267Y03961D02*
X03324D01*
X03626D02*
X04927D01*
X0523D02*
X05879D01*
X0267Y03966D02*
X03324D01*
X03626D02*
X04927D01*
X0523D02*
X05879D01*
X0267Y03971D02*
X03324D01*
X03626D02*
X04927D01*
X0523D02*
X05879D01*
X0267Y03976D02*
X03324D01*
X03626D02*
X04927D01*
X0523D02*
X05879D01*
X0267Y03981D02*
X03324D01*
X03626D02*
X04927D01*
X0523D02*
X05879D01*
X0267Y03986D02*
X03324D01*
X03626D02*
X04927D01*
X0523D02*
X05879D01*
X0267Y03991D02*
X03324D01*
X03626D02*
X04927D01*
X0523D02*
X05879D01*
X0267Y03996D02*
X03324D01*
X03626D02*
X04927D01*
X0523D02*
X05879D01*
X0267Y04001D02*
X03324D01*
X03626D02*
X04927D01*
X0523D02*
X05874D01*
X0267Y04006D02*
X03324D01*
X03626D02*
X04927D01*
X0523D02*
X0587D01*
X0267Y04011D02*
X03324D01*
X03626D02*
X04927D01*
X0523D02*
X05865D01*
X0267Y04016D02*
X03324D01*
X03626D02*
X04927D01*
X0523D02*
X05861D01*
X0267Y04021D02*
X03324D01*
X03626D02*
X04927D01*
X0523D02*
X05857D01*
X0267Y04026D02*
X03324D01*
X03626D02*
X04927D01*
X0523D02*
X05852D01*
X0267Y04031D02*
X03324D01*
X03626D02*
X04927D01*
X0523D02*
X05848D01*
X0267Y04036D02*
X03324D01*
X03626D02*
X04927D01*
X0523D02*
X05844D01*
X0267Y04041D02*
X03324D01*
X03626D02*
X04927D01*
X0523D02*
X05839D01*
X0267Y04046D02*
X03324D01*
X03626D02*
X04927D01*
X0523D02*
X05835D01*
X03887Y04051D02*
X04927D01*
X0523D02*
X0583D01*
X0523Y04056D02*
X05826D01*
X054887Y036301D02*
X054965Y03625D01*
X055055Y036233*
X05549*
Y035996*
Y035681*
Y035484*
X055212*
X055121Y035465*
X055045Y035414*
X055035Y035405*
X054835*
Y035406*
Y035444*
Y036031*
X054827*
Y036428*
X05478Y036409*
X054887Y036301*
X0548Y03536D02*
Y03645D01*
X05485Y03536D02*
Y0364D01*
X0549Y03536D02*
Y03635D01*
X05495Y03536D02*
Y03631D01*
X055Y03536D02*
Y03629D01*
X05505Y03536D02*
Y03628D01*
X0551Y03541D02*
Y03627D01*
X05515Y03544D02*
Y03627D01*
X0552Y03544D02*
Y03627D01*
X05525Y03544D02*
Y03627D01*
X0553Y03544D02*
Y03627D01*
X05535Y03544D02*
Y03627D01*
X0554Y03544D02*
Y03627D01*
X05545Y03544D02*
Y03627D01*
X0555Y03544D02*
Y03627D01*
G54D51*
X043531Y03885D02*
X042714D01*
X042623Y038831*
X04254Y038776*
X042484Y038693*
X042466Y038601*
Y036898*
X042268*
Y036337*
X041596Y035664*
X041642Y035645*
Y035734*
X041631Y035818*
X041596Y035901*
X041542Y035972*
X04147Y036027*
X041465Y036029*
X041451Y035958*
X041823*
Y037908*
X037776*
Y035958*
X037959*
Y035995*
Y035307*
X037611*
Y035345*
Y035626*
X037003*
Y035345*
Y035307*
Y03472*
X037611*
Y034796*
X037959*
Y034391*
X037512Y033945*
X036988*
Y040291*
X043531*
Y03885*
X037Y03399D02*
X03755D01*
X037Y03409D02*
X03765D01*
X037Y03419D02*
X03775D01*
X037Y03429D02*
X03785D01*
X037Y03439D02*
X03795D01*
X037Y03449D02*
X03795D01*
X037Y03459D02*
X03795D01*
X037Y03469D02*
X03795D01*
X037Y03479D02*
X03699D01*
X03762D02*
X03795D01*
X037Y03489D02*
X03699D01*
X037Y03499D02*
X03699D01*
X037Y03509D02*
X03699D01*
X037Y03519D02*
X03699D01*
X037Y03529D02*
X03699D01*
X037Y03539D02*
X03699D01*
X03762D02*
X03795D01*
X037Y03549D02*
X03699D01*
X03762D02*
X03795D01*
X037Y03559D02*
X03699D01*
X03762D02*
X03795D01*
X037Y03569D02*
X03795D01*
X04164D02*
X04163D01*
X037Y03579D02*
X03795D01*
X04166D02*
X04171D01*
X037Y03589D02*
X03795D01*
X04162D02*
X04181D01*
X037Y03599D02*
X03777D01*
X04148D02*
X04151D01*
X04184D02*
X04191D01*
X037Y03609D02*
X03777D01*
X04184D02*
X04201D01*
X037Y03619D02*
X03777D01*
X04184D02*
X04211D01*
X037Y03629D02*
X03777D01*
X04184D02*
X04221D01*
X037Y03639D02*
X03777D01*
X04184D02*
X04225D01*
X037Y03649D02*
X03777D01*
X04184D02*
X04225D01*
X037Y03659D02*
X03777D01*
X04184D02*
X04225D01*
X037Y03669D02*
X03777D01*
X04184D02*
X04225D01*
X037Y03679D02*
X03777D01*
X04184D02*
X04225D01*
X037Y03689D02*
X03777D01*
X04184D02*
X04225D01*
X037Y03699D02*
X03777D01*
X04184D02*
X04245D01*
X037Y03709D02*
X03777D01*
X04184D02*
X04245D01*
X037Y03719D02*
X03777D01*
X04184D02*
X04245D01*
X037Y03729D02*
X03777D01*
X04184D02*
X04245D01*
X037Y03739D02*
X03777D01*
X04184D02*
X04245D01*
X037Y03749D02*
X03777D01*
X04184D02*
X04245D01*
X037Y03759D02*
X03777D01*
X04184D02*
X04245D01*
X037Y03769D02*
X03777D01*
X04184D02*
X04245D01*
X037Y03779D02*
X03777D01*
X04184D02*
X04245D01*
X037Y03789D02*
X03777D01*
X04184D02*
X04245D01*
X037Y03799D02*
X04245D01*
X037Y03809D02*
X04245D01*
X037Y03819D02*
X04245D01*
X037Y03829D02*
X04245D01*
X037Y03839D02*
X04245D01*
X037Y03849D02*
X04245D01*
X037Y03859D02*
X04245D01*
X037Y03869D02*
X04247D01*
X037Y03879D02*
X04255D01*
X037Y03889D02*
X04353D01*
X037Y03899D02*
X04353D01*
X037Y03909D02*
X04353D01*
X037Y03919D02*
X04353D01*
X037Y03929D02*
X04353D01*
X037Y03939D02*
X04353D01*
X037Y03949D02*
X04353D01*
X037Y03959D02*
X04353D01*
X037Y03969D02*
X04353D01*
X037Y03979D02*
X04353D01*
X037Y03989D02*
X04353D01*
X037Y03999D02*
X04353D01*
X037Y04009D02*
X04353D01*
X037Y04019D02*
X04353D01*
G54D56*
X04051Y02282D02*
X04146D01*
X04051Y02287D02*
X04151D01*
X04051Y02292D02*
X04156D01*
X04051Y02297D02*
X04161D01*
X04051Y02302D02*
X04166D01*
X04051Y02307D02*
X04171D01*
X04051Y02312D02*
X04065D01*
X04138D02*
X04176D01*
X04051Y02317D02*
X04059D01*
X04143D02*
X04181D01*
X04051Y02322D02*
X04054D01*
X04148D02*
X04186D01*
X04051Y02327D02*
D01*
X04153D02*
X04191D01*
X04189Y02332D02*
X04196D01*
X04189Y02337D02*
X04201D01*
X04189Y02342D02*
X04206D01*
X04189Y02347D02*
X04211D01*
X04189Y02352D02*
X04216D01*
X04189Y02357D02*
X04221D01*
X04189Y02362D02*
X04226D01*
X04189Y02367D02*
X04231D01*
X04191Y02372D02*
X04236D01*
G54D51*
X043531Y035245D02*
X043176D01*
Y035548*
X042697*
Y035079*
Y03461*
X043176*
Y034734*
X043531*
Y033957*
X043514Y033945*
X041603*
X041619Y03392*
X041631Y033947*
X041642Y034032*
Y034987*
X042615Y03596*
X043176*
Y036898*
X042978*
Y038339*
X043531*
Y035245*
X04166Y03396D02*
Y03499D01*
X04176Y03396D02*
Y03509D01*
X04186Y03396D02*
Y03519D01*
X04196Y03396D02*
Y03529D01*
X04206Y03396D02*
Y03539D01*
X04216Y03396D02*
Y03549D01*
X04226Y03396D02*
Y03559D01*
X04236Y03396D02*
Y03569D01*
X04246Y03396D02*
Y03579D01*
X04256Y03396D02*
Y03589D01*
X04266Y03396D02*
Y03595D01*
X04276Y03396D02*
Y03459D01*
Y03556D02*
Y03595D01*
X04286Y03396D02*
Y03459D01*
Y03556D02*
Y03595D01*
X04296Y03396D02*
Y03459D01*
Y03556D02*
Y03595D01*
X04306Y03396D02*
Y03459D01*
Y03556D02*
Y03595D01*
Y03692D02*
Y03834D01*
X04316Y03396D02*
Y03459D01*
Y03556D02*
Y03595D01*
Y03692D02*
Y03834D01*
X04326Y03396D02*
Y03471D01*
Y03526D02*
Y03834D01*
X04336Y03396D02*
Y03471D01*
Y03526D02*
Y03834D01*
X04346Y03396D02*
Y03471D01*
Y03526D02*
Y03834D01*
X037959Y033733D02*
Y033696D01*
X038371*
X038351Y033741*
X0377Y033091*
X037503*
X037465*
X037464*
Y033173*
X038004Y033714*
X037959Y033733*
X03747Y03314D02*
X03774D01*
X03755Y03324D02*
X03784D01*
X03765Y03334D02*
X03794D01*
X03775Y03344D02*
X03804D01*
X03785Y03354D02*
X03814D01*
X03795Y03364D02*
X03824D01*
X041504Y032737D02*
Y032484D01*
X041579*
Y031812*
X041504*
Y031775*
X041477*
Y031823*
X04089*
X040852*
X040851*
Y032002*
X040833Y032093*
X040781Y03217*
X04041Y032541*
X040391Y032495*
X040852*
X04089*
X041477*
Y03283*
X04143Y032811*
X041504Y032737*
X04086Y03182D02*
X04158D01*
X04086Y03192D02*
X04158D01*
X04086Y03202D02*
X04158D01*
X04084Y03212D02*
X04158D01*
X04074Y03222D02*
X04158D01*
X04064Y03232D02*
X04158D01*
X04054Y03242D02*
X04158D01*
X04042Y03252D02*
X04041D01*
X0415D02*
X04149D01*
X0415Y03262D02*
X04149D01*
X0415Y03272D02*
X04149D01*
X04148Y03282D02*
X04147D01*
G54D56*
X04871Y03334D02*
Y03548D01*
X04876Y03334D02*
Y03553D01*
X04881Y03334D02*
Y03558D01*
X04886Y03334D02*
Y03563D01*
X04891Y03337D02*
Y03568D01*
X04896Y03342D02*
Y03486D01*
Y03539D02*
Y03573D01*
X04901Y03551D02*
Y03578D01*
X04906Y03558D02*
Y03583D01*
X04911Y03563D02*
Y03588D01*
X04916Y03568D02*
Y03593D01*
X04921Y03573D02*
Y03598D01*
X04926Y03578D02*
Y03602D01*
X04931Y03583D02*
Y03602D01*
X04936Y03588D02*
Y03602D01*
X04941Y03593D02*
Y03602D01*
X04946Y03598D02*
Y03602D01*
X04916Y03277D02*
X04943D01*
X04916Y03282D02*
X04944D01*
X04916Y03287D02*
X04944D01*
X04916Y03292D02*
X04947D01*
X04916Y03297D02*
X04945D01*
X04917Y03302D02*
X04944D01*
X04922Y03307D02*
X04944D01*
X04927Y03312D02*
X04944D01*
X04932Y03317D02*
X04947D01*
X04936Y03322D02*
X04946D01*
X04939Y03327D02*
X04944D01*
X04939Y03332D02*
X04944D01*
X04939Y03337D02*
X04944D01*
X04939Y03342D02*
X04947D01*
X04939Y03347D02*
X04946D01*
X04939Y03352D02*
X04944D01*
X04939Y03357D02*
X04943D01*
X04939Y03362D02*
X04944D01*
X04939Y03367D02*
X04946D01*
X04939Y03372D02*
X04946D01*
X04939Y03377D02*
X04944D01*
X04939Y03382D02*
X04943D01*
X04939Y03387D02*
X04944D01*
X04939Y03392D02*
X04943D01*
X04939Y03397D02*
X04943D01*
X04939Y03402D02*
X04943D01*
X05052D02*
X05083D01*
X04939Y03407D02*
X04943D01*
X05052D02*
X05087D01*
X05132D02*
X05135D01*
X04939Y03412D02*
X04943D01*
X05052D02*
X05091D01*
X05128D02*
X05142D01*
X05171D02*
X05177D01*
X04939Y03417D02*
X04943D01*
X05052D02*
X05097D01*
X0512D02*
X05177D01*
X04939Y03422D02*
X04943D01*
X05052D02*
X05177D01*
X04939Y03427D02*
X04967D01*
X05014D02*
X05177D01*
X04939Y03432D02*
X04961D01*
X05014D02*
X05177D01*
X04939Y03437D02*
X04957D01*
X05014D02*
X05172D01*
X04939Y03442D02*
X04955D01*
X05012D02*
X05167D01*
X04939Y03447D02*
X04954D01*
X05008D02*
X05162D01*
X04939Y03452D02*
X04954D01*
X05008D02*
X05112D01*
X04939Y03457D02*
X04955D01*
X05007D02*
X051D01*
X04939Y03462D02*
X04957D01*
X05005D02*
X05095D01*
X04939Y03467D02*
X0496D01*
X05002D02*
X0509D01*
X04939Y03472D02*
X04966D01*
X04996D02*
X05085D01*
X04939Y03477D02*
X0508D01*
X04939Y03482D02*
X05075D01*
X05004Y03487D02*
X0507D01*
X05004Y03492D02*
X05065D01*
X03793Y02458D02*
Y02511D01*
X03798Y02453D02*
Y02511D01*
X03803Y02448D02*
Y02511D01*
X03808Y02446D02*
Y02511D01*
X03813Y02446D02*
Y02511D01*
X03818Y02446D02*
Y02511D01*
X03823Y02444D02*
Y02511D01*
X03828Y02439D02*
Y02511D01*
X03833Y02434D02*
Y02511D01*
X03838Y02429D02*
Y02434D01*
X03843Y02424D02*
Y02427D01*
X03848Y02419D02*
Y02422D01*
X03853Y02414D02*
Y02417D01*
X03858Y02408D02*
Y02412D01*
X03863Y02363D02*
Y02407D01*
X03868Y02358D02*
Y02402D01*
X03873Y02353D02*
Y02397D01*
X03878Y02348D02*
Y02392D01*
X03883Y02343D02*
Y02389D01*
X03888Y02338D02*
Y02388D01*
X03893Y02333D02*
Y02387D01*
X03898Y02328D02*
Y02387D01*
X03903Y02323D02*
Y02387D01*
X03908Y02318D02*
Y02387D01*
X03913Y02313D02*
Y02387D01*
X03918Y02308D02*
Y02387D01*
X03923Y02303D02*
Y02387D01*
X03928Y02298D02*
Y02387D01*
X03933Y02293D02*
Y02387D01*
X03938Y02288D02*
Y02387D01*
X03943Y02283D02*
Y02387D01*
X03948Y02281D02*
Y02387D01*
X03953Y02281D02*
Y02387D01*
X03958Y02281D02*
Y02387D01*
X03963Y02281D02*
Y02387D01*
X03968Y02281D02*
Y02387D01*
X03973Y02281D02*
Y02329D01*
Y02382D02*
Y02387D01*
X03978Y02281D02*
Y02329D01*
Y02382D02*
Y02387D01*
X03983Y02281D02*
Y02329D01*
Y02382D02*
Y02387D01*
X03988Y02281D02*
Y02329D01*
Y02382D02*
Y02387D01*
X03993Y02281D02*
Y02329D01*
Y02382D02*
Y02387D01*
X03998Y02281D02*
Y02329D01*
Y02382D02*
Y02387D01*
X04003Y02281D02*
Y02329D01*
Y02382D02*
Y02387D01*
X04008Y02281D02*
Y02329D01*
Y02382D02*
Y02387D01*
X04013Y02281D02*
Y02329D01*
Y02382D02*
Y02387D01*
X04018Y02281D02*
Y02329D01*
Y02382D02*
Y02387D01*
X04023Y02382D02*
Y02387D01*
X04028Y02382D02*
Y02387D01*
X04033Y02382D02*
Y02387D01*
X04038Y02382D02*
D01*
G54D51*
X028058Y029242D02*
X028139Y029179D01*
X028139Y029179*
Y02923*
X02814Y02923*
X028058Y029168*
X027996Y029086*
X027956Y028992*
X027943Y028889*
X027956Y028788*
X027996Y028693*
X028058Y028612*
X028139Y028549*
X028139Y028549*
Y0286*
X02814Y0286*
X028058Y028538*
X027996Y028456*
X027956Y028362*
X027943Y028259*
X027956Y028158*
X027996Y028063*
X028058Y027982*
X02814Y027919*
X028235Y027879*
X028337Y027867*
X028438Y027879*
X028534Y027919*
X028556Y027937*
X028562Y027938*
X028543Y027942*
X028563Y027911*
X028837Y027638*
X028867Y027693*
X028895Y027687*
X028717Y027702*
X028538Y027687*
X028363Y027645*
X028198Y027577*
X028045Y027483*
X027909Y027367*
X027793Y027231*
X027699Y027078*
X027631Y026913*
X027589Y026738*
X027575Y026559*
X027589Y026382*
X027631Y026207*
X027699Y026041*
X027793Y025889*
X027909Y025752*
X028045Y025637*
X028198Y025543*
X028363Y025474*
X028459Y025451*
X028453Y025517*
X028347Y025492*
X028181Y025424*
X028029Y02533*
X027892Y025214*
X027777Y025078*
X027683Y024925*
X027614Y02476*
X027572Y024585*
X027558Y024406*
X027572Y024229*
X027614Y024054*
X027683Y023888*
X027777Y023736*
X027892Y023599*
X028029Y023484*
X028181Y02339*
X028347Y023321*
X028522Y023279*
X028699Y023265*
X028878Y023279*
X029053Y023321*
X029218Y02339*
X029371Y023484*
X029507Y023599*
X029623Y023736*
X029717Y023888*
X029785Y024054*
X029827Y024229*
X029842Y024406*
X029827Y024585*
X029785Y02476*
X029717Y024925*
X029623Y025078*
X029507Y025214*
X029371Y02533*
X029218Y025424*
X029053Y025492*
X028958Y025515*
X028963Y025449*
X029069Y025474*
X029235Y025542*
X029388Y025637*
X029524Y025752*
X029639Y025889*
X029733Y026041*
X029802Y026207*
X029844Y026382*
X029858Y026559*
X029844Y026738*
X029802Y026913*
X029733Y027078*
X029639Y027231*
X029524Y027367*
X029388Y027483*
X029317Y027527*
X029299Y027466*
X030454*
Y023594*
X029509*
X029418Y023575*
X029341Y023524*
X028641Y022824*
X028671Y022818*
X02866Y022843*
X028598Y022925*
X028516Y022987*
X028422Y023027*
X02832Y02304*
X028292Y023037*
X027523Y023806*
Y028783*
X028004Y029265*
X028041*
X028058Y029242*
X02757Y02377D02*
Y02422D01*
Y02461D02*
Y02882D01*
X02767Y02367D02*
Y0239D01*
Y02493D02*
Y0261D01*
Y02703D02*
Y02892D01*
X02777Y02357D02*
Y02374D01*
Y02509D02*
Y02592D01*
Y02721D02*
Y02902D01*
X02787Y02347D02*
Y02362D01*
Y02521D02*
Y02578D01*
Y02735D02*
Y02912D01*
X02797Y02337D02*
Y02352D01*
Y02529D02*
Y0257D01*
Y02743D02*
Y02812D01*
Y02841D02*
Y02876D01*
Y02903D02*
Y02922D01*
X02807Y02327D02*
Y02344D01*
Y02537D02*
Y02562D01*
Y02751D02*
Y02796D01*
Y02857D02*
Y0286D01*
Y02919D02*
Y02922D01*
X02817Y02317D02*
Y02338D01*
Y02543D02*
Y02554D01*
Y02759D02*
Y0279D01*
X02827Y02307D02*
Y02334D01*
Y02547D02*
Y0255D01*
Y02763D02*
Y02786D01*
X02837Y02305D02*
Y0233D01*
Y02549D02*
Y02548D01*
Y02767D02*
Y02786D01*
X02847Y02303D02*
Y02328D01*
Y02769D02*
Y02788D01*
X02857Y02297D02*
Y02326D01*
Y02771D02*
Y0279D01*
X02867Y02287D02*
Y02326D01*
Y02771D02*
Y0278D01*
X02877Y02297D02*
Y02326D01*
Y02771D02*
Y0277D01*
X02887Y02307D02*
Y02326D01*
X02897Y02317D02*
Y0233D01*
Y02547D02*
Y0255D01*
X02907Y02327D02*
Y02332D01*
Y02549D02*
Y02548D01*
X02917Y02337D02*
Y02336D01*
Y02547D02*
Y0255D01*
X02927Y02345D02*
Y02344D01*
Y02541D02*
Y02556D01*
X02937Y02351D02*
Y02354D01*
Y02535D02*
Y02562D01*
Y02749D02*
Y02748D01*
X02947Y02359D02*
Y02358D01*
Y02527D02*
Y0257D01*
Y02743D02*
Y02746D01*
X02957Y02361D02*
Y02366D01*
Y02515D02*
Y0258D01*
Y02733D02*
Y02746D01*
X02967Y02361D02*
Y0238D01*
Y02503D02*
Y02594D01*
Y02719D02*
Y02746D01*
X02977Y02361D02*
Y024D01*
Y02483D02*
Y02612D01*
Y02701D02*
Y02746D01*
X02987Y02361D02*
Y02746D01*
X02997Y02361D02*
Y02746D01*
X03007Y02361D02*
Y02746D01*
X03017Y02361D02*
Y02746D01*
X03027Y02361D02*
Y02746D01*
X03037Y02361D02*
Y02746D01*
G54D56*
X04318Y02809D02*
X04446D01*
X04318Y02814D02*
X04434D01*
X04318Y02819D02*
X04428D01*
X04318Y02824D02*
X04426D01*
X04318Y02829D02*
X04424D01*
X04318Y02834D02*
X04423D01*
X04318Y02839D02*
X04423D01*
X04318Y02844D02*
X04424D01*
X04318Y02849D02*
X04426D01*
X04318Y02854D02*
X04429D01*
X04318Y02859D02*
X04367D01*
X04318Y02864D02*
X0436D01*
X04318Y02869D02*
X04355D01*
X04318Y02874D02*
X0435D01*
X04318Y02879D02*
X04345D01*
X04318Y02884D02*
X0434D01*
X04318Y02889D02*
X04335D01*
X04317Y02894D02*
X0433D01*
X04313Y02899D02*
X04325D01*
X04308Y02904D02*
X0432D01*
X04303Y02909D02*
X04315D01*
X04298Y02914D02*
X0431D01*
X04295Y02919D02*
X04305D01*
X04296Y02924D02*
X043D01*
X05408Y03001D02*
Y03017D01*
Y0303D02*
Y03063D01*
Y03141D02*
Y0314D01*
X05413Y02996D02*
Y03006D01*
Y03041D02*
Y03063D01*
Y03141D02*
Y0314D01*
X05418Y02991D02*
Y03001D01*
Y03141D02*
Y0314D01*
X05423Y02986D02*
Y02997D01*
Y03141D02*
Y0314D01*
X05428Y02902D02*
Y02905D01*
Y02983D02*
Y02997D01*
Y03141D02*
Y0314D01*
X05433Y02897D02*
Y02905D01*
Y02983D02*
Y02996D01*
Y03141D02*
Y0314D01*
X05438Y02892D02*
Y02905D01*
Y02983D02*
Y02996D01*
Y03141D02*
Y0314D01*
X05443Y02887D02*
Y02905D01*
Y02983D02*
Y02997D01*
Y03141D02*
Y0314D01*
X05448Y02882D02*
Y02905D01*
Y02983D02*
Y03001D01*
Y03141D02*
Y0314D01*
X05453Y02877D02*
Y02905D01*
Y02983D02*
Y03005D01*
Y03042D02*
Y03063D01*
Y03141D02*
Y0314D01*
X05458Y02872D02*
Y02905D01*
Y02983D02*
Y03012D01*
Y03034D02*
Y03063D01*
Y03141D02*
Y0314D01*
X05463Y02872D02*
Y02905D01*
Y02983D02*
Y03063D01*
Y03141D02*
Y0314D01*
X05468Y02872D02*
Y02905D01*
Y02983D02*
Y03063D01*
Y03141D02*
Y0314D01*
X05473Y02872D02*
Y02905D01*
Y02983D02*
Y03063D01*
Y03141D02*
D01*
X05478Y02872D02*
Y03063D01*
Y03141D02*
Y03144D01*
X05483Y02872D02*
Y02905D01*
Y02983D02*
Y03063D01*
Y03141D02*
Y03149D01*
X05488Y02872D02*
Y02905D01*
Y02983D02*
Y03063D01*
Y03141D02*
Y03154D01*
X05493Y02872D02*
Y02884D01*
Y02983D02*
Y03063D01*
X05498Y02872D02*
Y02875D01*
Y02983D02*
Y03063D01*
X05503Y02873D02*
Y02872D01*
Y02983D02*
Y03063D01*
X05508Y02983D02*
Y03063D01*
X05513Y02983D02*
Y03063D01*
X05518Y02983D02*
Y03063D01*
X05523Y02983D02*
Y03063D01*
X05528Y02983D02*
Y03063D01*
Y03141D02*
Y03206D01*
X05533Y02872D02*
Y02873D01*
Y02983D02*
Y03063D01*
Y03141D02*
Y03211D01*
X05538Y02876D02*
Y02879D01*
Y02983D02*
Y03063D01*
Y03141D02*
Y03216D01*
X05543Y02881D02*
Y0289D01*
Y02901D02*
Y02905D01*
Y02983D02*
Y03063D01*
Y03141D02*
Y03222D01*
X05548Y02886D02*
Y02905D01*
Y02983D02*
Y03295D01*
X05553Y02891D02*
Y0329D01*
X05558Y02896D02*
Y03285D01*
X05563Y02901D02*
Y0328D01*
X05358Y03221D02*
X05372D01*
X0536Y03226D02*
X05377D01*
X0536Y03231D02*
X05382D01*
X05358Y03236D02*
X05386D01*
X05482D02*
X05488D01*
X05356Y03241D02*
X05388D01*
X0548D02*
X05493D01*
X05362Y03246D02*
X0539D01*
X05478D02*
X05493D01*
X05367Y03251D02*
X05394D01*
X05474D02*
X05493D01*
X05372Y03256D02*
X05399D01*
X05469D02*
X05493D01*
X05377Y03261D02*
X05405D01*
X05463D02*
X05493D01*
X05382Y03266D02*
X05415D01*
X05453D02*
X05493D01*
X05387Y03271D02*
X05493D01*
X05392Y03276D02*
X05491D01*
X05397Y03281D02*
X05486D01*
X05402Y03286D02*
X05481D01*
X05407Y03291D02*
X05476D01*
X05412Y03296D02*
X05471D01*
X05417Y03301D02*
X05466D01*
X05422Y03306D02*
X05461D01*
X050854Y035175D02*
X0509Y035194D01*
X050824Y035269*
X050761Y035313*
X050738Y035316*
X050691Y035326*
X050078*
Y035433*
X049491*
X049521*
X04954Y035386*
X049756Y035603*
X050854*
Y035175*
X05088Y03516D02*
X0509D01*
X05083Y03521D02*
X0509D01*
X05077Y03526D02*
X0509D01*
X05004Y03531D02*
X0509D01*
X05004Y03536D02*
X0509D01*
X04951Y03541D02*
X0509D01*
X04956Y03546D02*
X0509D01*
X04961Y03551D02*
X0509D01*
X04966Y03556D02*
X0509D01*
X04971Y03561D02*
X0509D01*
X051323Y024701D02*
Y024663D01*
Y024567*
X051371*
X051358Y024586*
X051256Y024654*
X051135Y024679*
X051012Y024654*
X050909Y024586*
X050841Y024483*
X050817Y024362*
X050841Y02424*
X050909Y024138*
X051012Y024068*
X051135Y024044*
X051256Y024068*
X051358Y024137*
X051371Y024156*
X051323*
Y024076*
X051687*
X051668Y024122*
X051541Y023996*
X050344*
X050363Y023949*
X051165Y024752*
X051323*
Y024701*
X05032Y02397D02*
X05158D01*
X05037Y02402D02*
X05163D01*
X05042Y02407D02*
X05168D01*
X05047Y02412D02*
X05102D01*
X05125D02*
X05173D01*
X05052Y02417D02*
X05094D01*
X05133D02*
X05136D01*
X05057Y02422D02*
X05091D01*
X05062Y02427D02*
X05088D01*
X05067Y02432D02*
X05087D01*
X05072Y02437D02*
X05087D01*
X05077Y02442D02*
X05088D01*
X05082Y02447D02*
X05089D01*
X05087Y02452D02*
X05092D01*
X05136D02*
D01*
X05092Y02457D02*
X05097D01*
X05131D02*
X05136D01*
X05097Y02462D02*
X05108D01*
X0512D02*
X05136D01*
X05102Y02467D02*
X05136D01*
X05107Y02472D02*
X05136D01*
X05112Y02477D02*
X05136D01*
X04177Y02537D02*
Y02567D01*
X04182Y02537D02*
Y02572D01*
X04187Y02537D02*
Y02577D01*
X04192Y02525D02*
Y02582D01*
X04197Y02521D02*
Y02579D01*
Y02582D02*
Y02587D01*
X04202Y02516D02*
Y02567D01*
X04207Y02511D02*
Y02565D01*
X04212Y02506D02*
Y02563D01*
X04217Y02501D02*
Y02535D01*
Y02548D02*
Y02562D01*
X04222Y02496D02*
Y02524D01*
Y02559D02*
Y02562D01*
X04227Y02491D02*
Y02519D01*
X04232Y02486D02*
Y02515D01*
X04237Y02481D02*
Y02514D01*
X04242Y02477D02*
Y02514D01*
X04247Y0248D02*
Y02514D01*
X04252Y02484D02*
Y02515D01*
X04257Y02485D02*
Y02519D01*
X04262Y02485D02*
Y02523D01*
Y0256D02*
Y02562D01*
X04267Y02484D02*
Y02531D01*
Y02552D02*
Y02563D01*
X04272Y02483D02*
Y02564D01*
X04277Y0248D02*
Y02567D01*
X04282Y02478D02*
Y02569D01*
%LNaddl-2*%
%LPC*%
G36*
X038668Y026375D02*
X038561D01*
Y026169*
X038668*
Y026375*
G37*
G36*
Y026681D02*
X038561D01*
Y026475*
X038668*
Y026681*
G37*
G36*
X037142Y026707D02*
X036963D01*
Y026502*
X037142*
Y026707*
G37*
G36*
X036863D02*
X036685D01*
Y026502*
X036863*
Y026707*
G37*
G36*
X054872Y026722D02*
X054764Y026708D01*
X054664Y026666*
X054577Y0266*
X054511Y026514*
X054469Y026413*
X054455Y026305*
X054469Y026197*
X054511Y026097*
X054577Y02601*
X054664Y025944*
X054742Y025912*
Y025536*
X052765*
X052723Y025528*
X052715Y025526*
X052673Y025498*
X05203Y024855*
X052002Y024813*
X052Y024805*
X051992Y024763*
Y02434*
X051902Y024249*
X051855Y024269*
Y024663*
Y024701*
Y025025*
X052765Y025935*
X052843Y025902*
X052951Y025888*
X053059Y025902*
X053159Y025944*
X053246Y02601*
X053312Y026097*
X053354Y026197*
X053368Y026305*
X053354Y026413*
X053312Y026514*
X053246Y0266*
X053159Y026666*
X053059Y026708*
X052951Y026722*
X052843Y026708*
X052742Y026666*
X052656Y0266*
X05259Y026514*
X052548Y026413*
X052534Y026305*
X052548Y026197*
X05258Y026119*
X051674Y025213*
X051398*
Y025088*
X05108*
X05103Y025078*
X050988Y025049*
X050101Y024162*
X049758*
X049747Y024176*
X049764Y024224*
X049786Y024228*
X049829Y024257*
X049858Y0243*
X049868Y02435*
X049875Y024357*
X049925Y024367*
X049968Y024396*
X049997Y024439*
X050007Y02449*
X050014Y024496*
X050064Y024506*
X050107Y024535*
X050136Y024578*
X050146Y024629*
X050153Y024635*
X050204Y024646*
X050247Y024674*
X050275Y024717*
X050285Y024768*
X050275Y024819*
X050247Y024862*
X050041Y025068*
X049998Y025096*
X049947Y025106*
X049896Y025096*
X049853Y025068*
X049825Y025025*
X049814Y024974*
X049808Y024967*
X049757Y024957*
X049714Y024928*
X049685Y024885*
X049675Y024835*
X049669Y024828*
X049618Y024818*
X049575Y024789*
X049546Y024746*
X049536Y024696*
X049529Y024689*
X049479Y024679*
X049436Y02465*
X049407Y024607*
X049397Y024556*
X04939Y02455*
X049339Y02454*
Y024539*
X049529Y02435*
X049458Y024279*
X049268Y024468*
X049258Y024417*
X049251Y02441*
X0492Y0244*
X049157Y024372*
X049129Y024329*
X049118Y024278*
X049112Y024271*
X049061Y024261*
X049018Y024232*
X048989Y024189*
X048979Y024139*
X048973Y024132*
X048922Y024122*
X048879Y024093*
X04885Y02405*
X04884Y024*
X048833Y023993*
X048783Y023983*
X04874Y023954*
X048711Y023911*
X048701Y02386*
X048694Y023854*
X048643Y023844*
X048601Y023815*
X048572Y023772*
X048562Y023721*
X048555Y023714*
X048504Y023704*
X048461Y023676*
X048433Y023633*
X048432Y023632*
X048416Y023627*
X048232Y023443*
X048425Y02325*
X048427Y023248*
X048441Y023233*
Y023057*
X048427Y023042*
X048398Y023*
X048397Y022992*
X048388Y02295*
Y022435*
X047608Y021655*
X045726*
X045596Y021784*
X045616Y02183*
X045637*
Y022059*
Y022288*
X045431*
X045393*
X044881*
Y022148*
X044452*
X04442Y022186*
X044426Y022214*
X044415Y022268*
X044385Y022313*
X044415Y022357*
X044426Y022411*
X044415Y022465*
X044385Y02251*
X044339Y022541*
X044285Y022552*
X04415*
Y022732*
X044204Y022786*
X044251Y022777*
X044343Y022795*
X044422Y022847*
X044474Y022925*
X044492Y023018*
X044474Y02311*
X044422Y023188*
X044343Y02324*
X044251Y023258*
X044159Y02324*
X044081Y023188*
X044029Y02311*
X04401Y023018*
X04402Y022971*
X043927Y022878*
X043899Y022836*
X043898Y022828*
X043889Y022786*
Y022552*
X043754*
X0437Y022541*
X043655Y02251*
X043624Y022465*
X043613Y022411*
X043624Y022357*
X043654Y022313*
X043624Y022268*
X043613Y022214*
X043624Y02216*
X043654Y022116*
X043624Y022071*
X043613Y022017*
X043624Y021964*
X043654Y021919*
X043624Y021874*
X043613Y02182*
X043624Y021767*
X043654Y021722*
X043624Y021677*
X043613Y021624*
X043624Y02157*
X043655Y021524*
X0437Y021494*
X043754Y021483*
X043889*
Y021176*
X043898Y021134*
X043899Y021126*
X043927Y021084*
X044175Y020836*
X044166Y020789*
X044184Y020697*
X044236Y020619*
X044314Y020567*
X044406Y020548*
X044499Y020567*
X044577Y020619*
X044629Y020697*
X044647Y020789*
X044629Y020881*
X044577Y020959*
X044499Y021012*
X044406Y02103*
X044359Y021021*
X04415Y02123*
Y021483*
X044285*
X044339Y021494*
X044385Y021524*
X044415Y02157*
X044426Y021624*
X04442Y021651*
X044452Y02169*
X044807*
X045252Y021245*
X045294Y021217*
X045303Y021215*
X045344Y021207*
X047817*
X047858Y021215*
X047867Y021217*
X047909Y021245*
X048058Y021394*
X056663*
X056704Y021402*
X056713Y021404*
X056755Y021432*
X057328Y022006*
X057387Y021982*
X057484Y021969*
X057582Y021982*
X057673Y022019*
X057751Y022079*
X057811Y022157*
X057849Y022248*
X057861Y022346*
X057849Y022444*
X057811Y022535*
X057751Y022613*
X057673Y022673*
X057582Y02271*
X057484Y022723*
X057387Y02271*
X057296Y022673*
X057217Y022613*
X057158Y022535*
X05712Y022444*
X057107Y022346*
X05712Y022248*
X057144Y02219*
X056609Y021655*
X048042*
X048023Y021701*
X048611Y022289*
X048639Y022331*
X048641Y02234*
X048649Y022381*
Y022868*
X048686Y022901*
X048707Y022899*
X048724Y022873*
X048803Y022821*
X048895Y022802*
X048987Y022821*
X049065Y022873*
X049117Y022951*
X04913Y023014*
X049178Y023028*
X049592Y022614*
X049635Y022585*
X049643Y022584*
X049684Y022575*
X050268*
X050274Y022547*
X050326Y022469*
X050404Y022417*
X050496Y022399*
X050588Y022417*
X050666Y022469*
X050719Y022547*
X050737Y022639*
X050725Y022699*
X05076Y022734*
X050773Y022731*
X050963*
Y022633*
X051474*
X051513*
X051707*
Y022463*
X051667Y022436*
X051615Y022358*
X051596Y022266*
X051615Y022174*
X051667Y022096*
X051745Y022044*
X051837Y022025*
X051929Y022044*
X052008Y022096*
X05206Y022174*
X052078Y022266*
X05206Y022358*
X052008Y022436*
X051968Y022463*
Y022633*
X052024*
Y023091*
X051513*
X051474*
X050963*
Y022992*
X050827*
X050586Y023234*
X050544Y023262*
X050535Y023264*
X050494Y023272*
X05004*
X050025Y02332*
X050055Y02334*
X050107Y023418*
X050125Y02351*
X050107Y023602*
X050098Y023616*
X050121Y02366*
X051627*
X051669Y023668*
X051677Y02367*
X051719Y023698*
X052215Y024193*
X052243Y024236*
X052244Y024244*
X052253Y024286*
Y024709*
X052819Y025275*
X054748*
X05475Y025267*
X054752Y025258*
X05478Y025216*
X054984Y025011*
Y024711*
Y024673*
Y024161*
X055442*
Y024287*
X057115*
X05712Y024248*
X057158Y024157*
X057217Y024079*
X057296Y024019*
X057387Y023982*
X057484Y023969*
X057582Y023982*
X057673Y024019*
X057751Y024079*
X057811Y024157*
X057849Y024248*
X057861Y024346*
X057849Y024444*
X057811Y024535*
X057751Y024613*
X057673Y024673*
X057582Y02471*
X057484Y024723*
X057387Y02471*
X057296Y024673*
X057217Y024613*
X057168Y024548*
X055442*
Y024673*
Y024711*
Y025223*
X055142*
X055003Y025362*
Y025406*
Y025912*
X055081Y025944*
X055167Y02601*
X055233Y026097*
X055275Y026197*
X055289Y026305*
X055275Y026413*
X055233Y026514*
X055167Y0266*
X055081Y026666*
X05498Y026708*
X054872Y026722*
G37*
G36*
X057858Y02572D02*
X05711D01*
Y024972*
X057858*
Y02572*
G37*
G36*
X040997Y02506D02*
X040791D01*
Y024881*
X040997*
Y02506*
G37*
G36*
X039592Y025339D02*
X039386D01*
Y02516*
X039592*
Y025339*
G37*
G36*
X044416Y025749D02*
X04407D01*
Y025659*
X044285*
X044339Y025669*
X044385Y0257*
X044415Y025745*
X044416Y025749*
G37*
G36*
X040997Y025339D02*
X040791D01*
Y02516*
X040997*
Y025339*
G37*
G36*
X029197Y029608D02*
X029115Y029597D01*
X029038Y029565*
X028972Y029515*
X028922Y029449*
X02889Y029373*
X028879Y02929*
X02889Y029208*
X028922Y029131*
X028972Y029066*
X029038Y029015*
X029115Y028983*
X029197Y028973*
X029279Y028983*
X029356Y029015*
X029421Y029066*
X029472Y029131*
X029484Y02916*
X031643*
X031973Y02883*
X03197Y028794*
X031894Y028695*
X031847Y02858*
X031831Y028457*
X031847Y028333*
X031894Y028218*
X03197Y02812*
X032069Y028044*
X032184Y027996*
X032307Y02798*
X03243Y027996*
X032545Y028044*
X032644Y02812*
X03272Y028218*
X032767Y028333*
X032784Y028457*
X032767Y02858*
X03272Y028695*
X032644Y028794*
X032545Y028869*
X03243Y028917*
X032307Y028933*
X032246Y028925*
X031789Y029383*
X031747Y029411*
X031738Y029412*
X031697Y029421*
X029484*
X029472Y029449*
X029421Y029515*
X029356Y029565*
X029279Y029597*
X029197Y029608*
G37*
G36*
X045514Y02758D02*
Y027399D01*
X045695*
X045687Y027442*
X045635Y02752*
X045557Y027572*
X045514Y02758*
G37*
G36*
X052617Y028847D02*
X052391D01*
Y028522*
Y028197*
X052617*
Y028391*
X053028*
X053207Y028212*
X053215Y028174*
X053267Y028096*
X053345Y028044*
X053387Y028035*
Y028266*
Y028497*
X053345Y028489*
X053318Y02847*
X053175Y028614*
X053132Y028642*
X053124Y028644*
X053082Y028652*
X052617*
Y028847*
G37*
G36*
X046228Y028332D02*
X046143Y028247D01*
X046267Y028122*
X046323Y028085*
X046388Y028072*
X046453Y028085*
X046466Y028094*
X046228Y028332*
G37*
G36*
X053668Y028216D02*
X053487D01*
Y028035*
X05353Y028044*
X053608Y028096*
X05366Y028174*
X053668Y028216*
G37*
G36*
X045414Y027299D02*
X045234D01*
X045242Y027257*
X045294Y027179*
X045372Y027127*
X045414Y027118*
Y027299*
G37*
G36*
X04965Y027277D02*
X049524Y027151D01*
X049669Y027005*
X049796Y027132*
X04965Y027277*
G37*
G36*
X045695Y027299D02*
X045514D01*
Y027118*
X045557Y027127*
X045635Y027179*
X045687Y027257*
X045695Y027299*
G37*
G36*
X045414Y02758D02*
X045372Y027572D01*
X045294Y02752*
X045242Y027442*
X045234Y027399*
X045414*
Y02758*
G37*
G36*
X049847Y027474D02*
X049721Y027348D01*
X049866Y027202*
X049993Y027329*
X049847Y027474*
G37*
G36*
X039873Y024403D02*
X039692D01*
Y024222*
X039734Y024231*
X039812Y024283*
X039864Y024361*
X039873Y024403*
G37*
G36*
X03717Y02249D02*
X036146D01*
Y022096*
X036804*
X036941Y021959*
X036983Y021931*
X037033Y021921*
X037744*
X037771Y021881*
X037849Y021829*
X037941Y021811*
X038033Y021829*
X038111Y021881*
X038163Y021959*
X038182Y022052*
X038163Y022144*
X038111Y022222*
X038033Y022274*
X037941Y022292*
X037849Y022274*
X037771Y022222*
X037744Y022182*
X03717*
Y02249*
G37*
G36*
X03599Y021896D02*
Y021715D01*
X036171*
X036162Y021758*
X03611Y021836*
X036032Y021888*
X03599Y021896*
G37*
G36*
X045943Y022009D02*
X045737D01*
Y02183*
X045943*
Y022009*
G37*
G36*
X042671Y022552D02*
X042456D01*
Y022461*
X042802*
X042801Y022465*
X042771Y02251*
X042725Y022541*
X042671Y022552*
G37*
G36*
X045943Y022288D02*
X045737D01*
Y022109*
X045943*
Y022288*
G37*
G36*
X03589Y021615D02*
X035709D01*
X035717Y021573*
X035769Y021495*
X035848Y021443*
X03589Y021434*
Y021615*
G37*
G36*
X0287Y020754D02*
X028534Y02074D01*
X028371Y020701*
X028216Y020637*
X028074Y02055*
X027946Y020441*
X027838Y020314*
X02775Y020171*
X027686Y020017*
X027647Y019854*
X027634Y019687*
X027647Y019521*
X027686Y019358*
X02775Y019203*
X027838Y019061*
X027946Y018933*
X028074Y018825*
X028216Y018737*
X028371Y018673*
X028534Y018634*
X0287Y018621*
X028867Y018634*
X02903Y018673*
X029184Y018737*
X029327Y018825*
X029454Y018933*
X029563Y019061*
X02965Y019203*
X029714Y019358*
X029753Y019521*
X029767Y019687*
X029753Y019854*
X029714Y020017*
X02965Y020171*
X029563Y020314*
X029454Y020441*
X029327Y02055*
X029184Y020637*
X02903Y020701*
X028867Y02074*
X0287Y020754*
G37*
G36*
X036171Y021615D02*
X03599D01*
Y021434*
X036032Y021443*
X03611Y021495*
X036162Y021573*
X036171Y021615*
G37*
G36*
X03589Y021896D02*
X035848Y021888D01*
X035769Y021836*
X035717Y021758*
X035709Y021715*
X03589*
Y021896*
G37*
G36*
X042802Y022361D02*
X042009D01*
X04201Y022357*
X04204Y022313*
X04201Y022268*
X041999Y022214*
X04201Y02216*
X04204Y022116*
X04201Y022071*
X041999Y022017*
X04201Y021964*
X04204Y021919*
X04201Y021874*
X041999Y02182*
X04201Y021767*
X04204Y021722*
X04201Y021677*
X041999Y021624*
X04201Y02157*
X04204Y021524*
X042086Y021494*
X04214Y021483*
X042671*
X042725Y021494*
X042771Y021524*
X042801Y02157*
X042812Y021624*
X042801Y021677*
X042771Y021722*
X042801Y021767*
X042812Y02182*
X042801Y021874*
X042771Y021919*
X042801Y021964*
X042812Y022017*
X042801Y022071*
X042771Y022116*
X042801Y02216*
X042812Y022214*
X042801Y022268*
X042771Y022313*
X042801Y022357*
X042802Y022361*
G37*
G36*
X036608Y023494D02*
X036343D01*
X036266Y023479*
X036201Y023435*
X036158Y02337*
X036152Y023343*
X036608*
Y023494*
G37*
G36*
X032142Y024842D02*
X031991Y024827D01*
X031847Y024784*
X031713Y024712*
X031596Y024616*
X0315Y024499*
X031429Y024366*
X031385Y024221*
X03137Y024071*
X031385Y02392*
X031429Y023776*
X0315Y023642*
X031596Y023525*
X031713Y023429*
X031847Y023358*
X031991Y023314*
X032142Y023299*
X032292Y023314*
X032437Y023358*
X03257Y023429*
X032687Y023525*
X032783Y023642*
X032854Y023776*
X032898Y02392*
X032913Y024071*
X032898Y024221*
X032854Y024366*
X032783Y024499*
X032687Y024616*
X03257Y024712*
X032437Y024784*
X032292Y024827*
X032142Y024842*
G37*
G36*
X036973Y023494D02*
X036708D01*
Y023343*
X037164*
X037158Y02337*
X037115Y023435*
X03705Y023479*
X036973Y023494*
G37*
G36*
X039592Y024403D02*
X039411D01*
X039419Y024361*
X039471Y024283*
X03955Y024231*
X039592Y024222*
Y024403*
G37*
G36*
X047489Y024662D02*
X047397Y024644D01*
X047319Y024592*
X047267Y024513*
X047248Y024421*
X047267Y024329*
X047319Y024251*
X047323Y024248*
Y024166*
X047222Y024065*
X047201Y024067*
X046995Y023861*
X046806Y023672*
Y023671*
X046857Y023661*
X046864Y023654*
X046874Y023604*
X046902Y023561*
X046945Y023532*
X046996Y023522*
X047003Y023515*
X047013Y023465*
X047042Y023422*
X047067Y023405*
X047072Y023355*
X046799Y023082*
X04677Y023039*
X046769Y023031*
X046768Y023026*
X046721Y022994*
X046668Y022916*
X04665Y022824*
X046668Y022732*
X046721Y022653*
X046799Y022601*
X046891Y022583*
X046983Y022601*
X047061Y022653*
X047113Y022732*
X047132Y022824*
X047113Y022916*
X047069Y022983*
X04717Y023084*
X047216Y023065*
Y022998*
X047224Y022957*
X047226Y022949*
X047254Y022906*
X047603Y022557*
X047645Y022529*
X047654Y022527*
X047695Y022519*
X047703*
X047714Y022459*
X047767Y022381*
X047845Y022329*
X047937Y02231*
X048029Y022329*
X048107Y022381*
X04816Y022459*
X048178Y022551*
X04816Y022643*
X048107Y022721*
X048029Y022774*
X047937Y022792*
X047863Y022777*
X047848Y02278*
X047749*
X047477Y023052*
Y023116*
X047499Y023137*
X047507Y023143*
X047713Y023349*
X047742Y023392*
X047752Y023443*
X047742Y023493*
X047713Y023536*
X04767Y023565*
X04762Y023575*
X047613Y023582*
X047603Y023633*
X047574Y023676*
X047556Y023688*
X047551Y023738*
X047719Y023899*
X047768Y023893*
X047787Y023865*
X047865Y023813*
X047957Y023795*
X048049Y023813*
X048127Y023865*
X04818Y023944*
X048198Y024036*
X04818Y024128*
X048127Y024206*
X048049Y024258*
X047957Y024277*
X047865Y024258*
X047796Y024212*
X047721*
X047697Y024208*
X047678Y024204*
X047659Y024251*
X04766*
X047712Y024329*
X04773Y024421*
X047712Y024513*
X04766Y024592*
X047582Y024644*
X047489Y024662*
G37*
G36*
X034926Y023494D02*
X034296D01*
X034219Y023479*
X034154Y023435*
X034146Y023424*
X033931*
X033889Y023415*
X033881Y023414*
X033838Y023386*
X033018Y022566*
X031213*
X031171Y022557*
X031163Y022556*
X031121Y022527*
X030341Y021748*
X029467*
X029455Y021776*
X029405Y021842*
X029339Y021892*
X029263Y021924*
X02918Y021935*
X029098Y021924*
X029021Y021892*
X028956Y021842*
X028905Y021776*
X028873Y0217*
X028863Y021617*
X028873Y021535*
X028905Y021458*
X028956Y021393*
X029021Y021342*
X029098Y02131*
X02918Y0213*
X029263Y02131*
X029339Y021342*
X029405Y021393*
X029455Y021458*
X029467Y021487*
X030395*
X030437Y021495*
X030445Y021497*
X030487Y021525*
X031267Y022305*
X033072*
X033114Y022313*
X033122Y022315*
X033165Y022343*
X033985Y023163*
X034146*
X034154Y023151*
X034219Y023108*
X034296Y023093*
X034926*
X035003Y023108*
X035068Y023151*
X035111Y023217*
X035126Y023293*
X035111Y02337*
X035068Y023435*
X035003Y023479*
X034926Y023494*
G37*
G36*
X057484Y023723D02*
X057387Y02371D01*
X057296Y023673*
X057217Y023613*
X057158Y023535*
X05712Y023444*
X057107Y023346*
X05712Y023248*
X057158Y023157*
X057217Y023079*
X057296Y023019*
X057387Y022982*
X057484Y022969*
X057582Y022982*
X057673Y023019*
X057751Y023079*
X057811Y023157*
X057849Y023248*
X057861Y023346*
X057849Y023444*
X057811Y023535*
X057751Y023613*
X057673Y023673*
X057582Y02371*
X057484Y023723*
G37*
G36*
X036608Y023243D02*
X036152D01*
X036158Y023217*
X036201Y023151*
X036266Y023108*
X036343Y023093*
X036608*
Y023243*
G37*
G36*
X053402Y024823D02*
X053251Y024808D01*
X053106Y024764*
X052973Y024693*
X052856Y024597*
X05276Y02448*
X052689Y024346*
X052645Y024202*
X05263Y024051*
X052645Y023901*
X052689Y023756*
X05276Y023623*
X052856Y023506*
X052973Y02341*
X053106Y023338*
X053251Y023295*
X053402Y02328*
X053552Y023295*
X053697Y023338*
X05383Y02341*
X053947Y023506*
X054043Y023623*
X054114Y023756*
X054158Y023901*
X054173Y024051*
X054158Y024202*
X054114Y024346*
X054043Y02448*
X053947Y024597*
X05383Y024693*
X053697Y024764*
X053552Y024808*
X053402Y024823*
G37*
G36*
X037164Y023243D02*
X036708D01*
Y023093*
X036973*
X03705Y023108*
X037115Y023151*
X037158Y023217*
X037164Y023243*
G37*
G36*
X052291Y028472D02*
X052065D01*
Y028197*
X052291*
Y028472*
G37*
G36*
X047237Y038188D02*
X046776D01*
Y038041*
X047237*
Y038188*
G37*
G36*
X045378Y033089D02*
X045286Y033071D01*
X045208Y033019*
X045155Y032941*
X045146Y032891*
X045096*
X045089Y032925*
X045036Y033003*
X044958Y033056*
X044866Y033074*
X044774Y033056*
X044696Y033003*
X044644Y032925*
X044625Y032833*
X044644Y032741*
X044696Y032663*
X044736Y032636*
Y03255*
X044697Y032518*
X04461Y032535*
X044518Y032517*
X04444Y032465*
X044419Y032433*
X044369*
X044347Y032466*
X044269Y032518*
X044177Y032536*
X044085Y032518*
X044007Y032466*
X043955Y032387*
X043936Y032295*
X043955Y032203*
X043981Y032164*
X043953Y032122*
X043882Y032136*
X04379Y032118*
X043712Y032066*
X043659Y031988*
X043641Y031896*
X043659Y031803*
X043712Y031725*
X043751Y031699*
Y0316*
X04376Y031559*
X043761Y03155*
X04379Y031508*
X043957Y03134*
X043943Y031293*
X043887Y031282*
X043832Y031245*
X043795Y031189*
X043782Y031124*
X043786Y031103*
X04375Y031068*
X043729Y031072*
X043664Y031059*
X043609Y031022*
X043572Y030966*
X043559Y030901*
X043572Y030836*
X043609Y030781*
X043929Y03046*
X043984Y030423*
X04405Y03041*
X044115Y030423*
X04417Y03046*
X044207Y030516*
X04422Y030581*
X044216Y030603*
X044219Y030606*
X04426Y030628*
X044456Y030431*
X044499Y030403*
X044507Y030401*
X044549Y030393*
X044806*
X044833Y030353*
X044911Y030301*
X045003Y030283*
X045095Y030301*
X045173Y030353*
X045226Y030431*
X045244Y030524*
X045226Y030616*
X045173Y030694*
X045095Y030746*
X045003Y030764*
X044911Y030746*
X044833Y030694*
X044806Y030654*
X044603*
X04446Y030796*
Y030846*
X044474Y03086*
X044495Y030856*
X04456Y030869*
X044616Y030906*
X044653Y030961*
X044666Y031026*
X044661Y031047*
X044697Y031083*
X044718Y031079*
X044783Y031092*
X044838Y031129*
X044875Y031184*
X044888Y031249*
X044884Y03127*
X044919Y031305*
X04494Y031301*
X045006Y031314*
X045019Y031323*
X044745Y031597*
X044816Y031667*
X045089Y031394*
X045098Y031407*
X045111Y031472*
X045107Y031493*
X045142Y031528*
X045163Y031524*
X045228Y031537*
X045284Y031574*
X045321Y031629*
X045334Y031695*
X04533Y031716*
X045365Y031751*
X045386Y031747*
X045451Y03176*
X045506Y031797*
X045543Y031852*
X045556Y031917*
X045552Y031938*
X045588Y031974*
X045609Y031969*
X045674Y031982*
X045729Y032019*
X045766Y032075*
X045779Y03214*
X045766Y032205*
X045729Y032261*
X045419Y032571*
X045433Y032617*
X045434Y032619*
X04547Y032626*
X045548Y032678*
X0456Y032756*
X045619Y032848*
X0456Y032941*
X045548Y033019*
X04547Y033071*
X045378Y033089*
G37*
G36*
X047799Y038188D02*
X047337D01*
Y038041*
X047799*
Y038188*
G37*
G36*
X047237Y038939D02*
X046972D01*
X046896Y038924*
X046831Y03888*
X046787Y038815*
X046782Y038788*
X047237*
Y038939*
G37*
G36*
X047793Y038688D02*
X046782D01*
X046787Y038661*
X046831Y038596*
X046896Y038553*
X046972Y038537*
X047107*
Y038435*
X046776*
Y038288*
X047799*
Y038435*
X047468*
Y038537*
X047602*
X047679Y038553*
X047744Y038596*
X047788Y038661*
X047793Y038688*
G37*
G36*
X056894Y03828D02*
X056863D01*
X056854*
X055319*
Y037315*
X056854*
X056894*
X058626*
Y03828*
X056894*
G37*
G36*
X05337Y0371D02*
X05319D01*
X053198Y037058*
X05325Y036979*
X053328Y036927*
X05337Y036919*
Y0371*
G37*
G36*
X046559Y037064D02*
X046467Y037045D01*
X046389Y036993*
X046337Y036915*
X046318Y036823*
X046324Y036795*
X046292Y036756*
X046028*
Y036855*
X045516*
X045478*
X044966*
Y036807*
X044426*
X044363Y036848*
X044271Y036867*
X044179Y036848*
X044101Y036796*
X044049Y036718*
X04403Y036626*
X044049Y036534*
X044101Y036456*
X044179Y036403*
X044271Y036385*
X044363Y036403*
X044426Y036445*
X044966*
Y036397*
X045478*
X045516*
X046028*
Y036496*
X046362*
X046404Y036504*
X046412Y036505*
X046454Y036534*
X046512Y036591*
X046559Y036582*
X046651Y0366*
X046729Y036653*
X046782Y036731*
X0468Y036823*
X046782Y036915*
X046729Y036993*
X046651Y037045*
X046559Y037064*
G37*
G36*
X053651Y0371D02*
X05347D01*
Y036919*
X053513Y036927*
X053591Y036979*
X053643Y037058*
X053651Y0371*
G37*
G36*
X05347Y037381D02*
Y0372D01*
X053651*
X053643Y037242*
X053591Y03732*
X053513Y037372*
X05347Y037381*
G37*
G36*
X05337D02*
X053328Y037372D01*
X05325Y03732*
X053198Y037242*
X05319Y0372*
X05337*
Y037381*
G37*
G36*
X047602Y038939D02*
X047337D01*
Y038788*
X047793*
X047788Y038815*
X047744Y03888*
X047679Y038924*
X047602Y038939*
G37*
G36*
X037602Y029324D02*
X037505Y029311D01*
X037414Y029274*
X037336Y029214*
X037276Y029136*
X037238Y029045*
X037225Y028947*
X037238Y028849*
X037276Y028758*
X037336Y02868*
X037414Y02862*
X037505Y028583*
X037602Y02857*
X0377Y028583*
X037791Y02862*
X037869Y02868*
X037929Y028758*
X037967Y028849*
X03798Y028947*
X037967Y029045*
X037929Y029136*
X037869Y029214*
X037791Y029274*
X0377Y029311*
X037602Y029324*
G37*
G36*
X052291Y028847D02*
X052065D01*
Y028572*
X052291*
Y028847*
G37*
G36*
X045919Y028641D02*
X04591Y028628D01*
X045897Y028563*
X04591Y028497*
X045947Y028442*
X046072Y028317*
X046157Y028403*
X045919Y028641*
G37*
G36*
X053487Y028497D02*
Y028316D01*
X053668*
X05366Y028358*
X053608Y028436*
X05353Y028489*
X053487Y028497*
G37*
G36*
X057531Y039858D02*
X057434Y039845D01*
X057343Y039807*
X057265Y039747*
X057205Y039669*
X057167Y039578*
X057154Y03948*
X057167Y039383*
X057205Y039292*
X057265Y039214*
X057343Y039154*
X057434Y039116*
X057531Y039103*
X057629Y039116*
X05772Y039154*
X057798Y039214*
X057858Y039292*
X057896Y039383*
X057909Y03948*
X057896Y039578*
X057858Y039669*
X057798Y039747*
X05772Y039807*
X057629Y039845*
X057531Y039858*
G37*
G36*
X043606Y040446D02*
X036913D01*
X036883Y04044*
X036857Y040423*
X036839Y040397*
X036833Y040366*
Y03387*
X036839Y033839*
X036857Y033813*
X036883Y033796*
X036913Y03379*
X037398*
X037417Y033744*
X037081Y033407*
X037042Y033349*
X037028Y03328*
Y033016*
X036953*
Y032559*
X037028*
Y031732*
X036895*
Y031548*
X036407Y03106*
X035438*
X035368Y031046*
X03531Y031007*
X03489Y030587*
X034844Y030606*
Y033283*
X034889Y033304*
X034905Y033291*
X035056Y03321*
X035219Y033161*
X035389Y033144*
X035558Y033161*
X035722Y03321*
X035872Y033291*
X036004Y033399*
X036112Y033531*
X036193Y033681*
X036242Y033844*
X036259Y034014*
X036242Y034184*
X036193Y034347*
X036112Y034498*
X036004Y03463*
X035872Y034738*
X035722Y034818*
X035558Y034868*
X035389Y034885*
X035219Y034868*
X035056Y034818*
X034905Y034738*
X034773Y03463*
X034665Y034498*
X034585Y034347*
X034535Y034184*
X034523Y034062*
X034496Y034022*
X034482Y033952*
Y030569*
X034086Y030172*
X034039Y030192*
Y030203*
X033547*
X032674Y031075*
X032666Y031116*
X032627Y031175*
X032568Y031214*
X032499Y031228*
X031365*
X031296Y031214*
X031238Y031175*
X030176Y030114*
X02875*
X02868Y0301*
X028622Y030061*
X028392Y029831*
X028337Y029838*
X028255Y029827*
X028178Y029795*
X028112Y029745*
X028078Y029701*
X027898*
X027829Y029687*
X02777Y029648*
X02714Y029018*
X027101Y028959*
X027087Y02889*
Y0237*
X027101Y023631*
X02714Y023572*
X02801Y022702*
X028003Y022647*
X028013Y022565*
X028045Y022488*
X028096Y022423*
X028161Y022372*
X028197Y022357*
Y022307*
X028161Y022292*
X028096Y022242*
X028045Y022176*
X028013Y0221*
X028003Y022017*
X028013Y021935*
X028045Y021858*
X028096Y021793*
X028161Y021742*
X028197Y021727*
Y021677*
X028161Y021662*
X028096Y021612*
X028045Y021546*
X028013Y02147*
X028003Y021387*
X028013Y021305*
X028045Y021228*
X028096Y021163*
X028161Y021112*
X028238Y02108*
X02832Y02107*
X028403Y02108*
X028479Y021112*
X028545Y021163*
X028549Y021169*
X028599Y021172*
X028887Y020884*
X028929Y020856*
X028938Y020854*
X028979Y020846*
X030891*
X03146*
X031485Y020787*
X03156Y020689*
X031659Y020613*
X031774Y020565*
X031897Y020549*
X032021Y020565*
X032136Y020613*
X032234Y020689*
X03231Y020787*
X032358Y020902*
X032374Y021026*
X032371Y02105*
X033984Y022663*
X034146*
X034154Y022651*
X034219Y022608*
X034296Y022593*
X034823*
X034842Y022546*
X03479Y022494*
X034296*
X034219Y022479*
X034154Y022435*
X03411Y02237*
X034095Y022293*
X03411Y022216*
X034154Y022151*
X034219Y022108*
X034296Y022093*
X034627*
X035654Y021065*
X035697Y021037*
X035747Y021027*
X036286*
X036328Y021035*
X036336Y021037*
X036379Y021065*
X036798Y021485*
X040918*
X040959Y021493*
X040967Y021495*
X04101Y021523*
X041964Y022477*
X041993Y022461*
X042356*
Y022552*
X04214*
X042097Y022543*
X042074Y022587*
X042909Y023422*
X043613*
X043655Y02343*
X043663Y023432*
X043705Y02346*
X044986Y02474*
X045755*
X04576Y024717*
X045789Y024674*
X045812Y024659*
X045817Y024609*
X045756Y024547*
X045673Y024564*
X045581Y024545*
X045503Y024493*
X045451Y024415*
X045432Y024323*
X045451Y024231*
X045503Y024153*
X045581Y0241*
X045673Y024082*
X045765Y0241*
X045844Y024153*
X045896Y024231*
X045914Y024323*
X045912Y024334*
X046002Y024424*
X046051Y024419*
X046067Y024396*
X04611Y024367*
X046161Y024357*
X046168Y02435*
X046178Y0243*
X046206Y024257*
X04623Y024241*
X046235Y024191*
X046139Y024095*
X046092Y024105*
X046Y024086*
X045921Y024034*
X045869Y023956*
X045851Y023864*
X045869Y023772*
X045921Y023693*
X046Y023641*
X046092Y023623*
X046139Y023632*
X046174Y023597*
X046162Y023535*
X046181Y023443*
X046233Y023365*
X046311Y023313*
X046403Y023295*
X046495Y023313*
X046573Y023365*
X046626Y023443*
X046644Y023535*
X046626Y023628*
X046573Y023706*
X046534Y023732*
Y023833*
X046571Y023866*
X046608Y023863*
X046624Y023839*
X046667Y02381*
X046718Y0238*
X046724Y023794*
X046734Y023743*
X046735Y023742*
X046924Y023932*
X04713Y024138*
X047128Y024159*
X047155Y024186*
X047183Y024228*
X047185Y024236*
X047193Y024278*
Y024527*
X047221Y024546*
X047274Y024624*
X047292Y024717*
X047274Y024809*
X047221Y024887*
X047143Y024939*
X047051Y024957*
X046959Y024939*
X046881Y024887*
X046829Y024809*
X04681Y024717*
X046829Y024624*
X046881Y024546*
X046932Y024512*
Y024377*
X046885Y024362*
X046878Y024372*
X046835Y0244*
X046784Y02441*
X046778Y024417*
X046768Y024468*
X046739Y024511*
X046696Y02454*
X046645Y02455*
X046639Y024556*
X046628Y024607*
X0466Y02465*
X046557Y024679*
X046506Y024689*
X046499Y024696*
X046489Y024746*
X046461Y024789*
X046418Y024818*
X046367Y024828*
X04636Y024835*
X04635Y024885*
X046321Y024928*
X046278Y024957*
X046228Y024967*
X046221Y024974*
X046211Y025025*
X046182Y025068*
X046139Y025096*
X046088Y025106*
X046038Y025096*
X045995Y025068*
X045929Y025001*
X045039*
X04502Y025048*
X045139Y025167*
X049147*
X049189Y025175*
X049197Y025177*
X049212Y025187*
X049217Y025183*
X049309Y025165*
X049401Y025183*
X04948Y025235*
X049532Y025313*
X049538Y025346*
X049683Y025491*
X049711Y025533*
X049721Y025583*
Y025684*
X04976Y025715*
X049768Y025714*
X049818Y025724*
X049824Y025721*
X049825Y025719*
X049853Y025676*
X049896Y025648*
X049947Y025638*
X049998Y025648*
X050041Y025676*
X050062*
X050268Y02547*
X050255Y025406*
X050274Y025313*
X050326Y025235*
X050404Y025183*
X050496Y025165*
X050588Y025183*
X050666Y025235*
X050719Y025313*
X050737Y025406*
X050719Y025498*
X050666Y025576*
X050588Y025628*
X050496Y025646*
X050467Y025641*
X050247Y025861*
Y025882*
X050275Y025925*
X050285Y025976*
X050275Y026027*
X050247Y02607*
X050204Y026099*
X050176Y026139*
X050184Y02618*
Y026425*
X05023Y026444*
X050274Y0264*
X050339Y026465*
X050389*
X050467Y026387*
X050397Y026317*
X050759Y025956*
X050786Y025929*
X051148Y025567*
X051471Y02589*
X051408Y025954*
Y026004*
X051418Y026014*
X051446Y026056*
X051456Y026106*
Y026651*
X051496Y026677*
X051548Y026755*
X051566Y026847*
X051548Y02694*
X051496Y027018*
X051418Y02707*
X051325Y027088*
X051233Y02707*
X051155Y027018*
X051103Y02694*
X051085Y026847*
X051103Y026755*
X051155Y026677*
X051195Y026651*
Y026232*
X051149Y026213*
X051109Y026252*
X051082Y026279*
X050721Y026641*
X050651Y026571*
X050573Y026649*
Y026699*
X050598Y026723*
X050236Y027085*
X050209Y027112*
X050063Y027258*
X049902Y027096*
X04974Y026934*
X049886Y026789*
X049913Y026762*
X050001Y026673*
X049961Y026633*
X049933Y026591*
X049932Y026583*
X049923Y026541*
Y026417*
X049909Y026405*
X049862Y026422*
X049858Y026444*
X049829Y026487*
X049786Y026516*
X049735Y026526*
X049729Y026533*
X049719Y026584*
X04969Y026627*
X049647Y026655*
X049596Y026665*
X049589Y026672*
X049579Y026723*
X049551Y026766*
X049508Y026794*
X049457Y026805*
X04945Y026811*
X04944Y026862*
X049411Y026905*
X049368Y026934*
X049318Y026944*
X049311Y026951*
X049301Y027001*
X049272Y027044*
X049229Y027073*
X049179Y027083*
X049172Y02709*
X049162Y02714*
X049133Y027183*
X04909Y027212*
X049039Y027222*
X049033Y027229*
X049023Y02728*
X048994Y027323*
X048951Y027351*
X0489Y027361*
X048893Y027368*
X048883Y027419*
X048855Y027462*
X048831Y027477*
X048826Y027527*
X048862Y027563*
X05071*
X051017Y027255*
X05106Y027227*
X051068Y027226*
X051109Y027217*
X052211*
X052219Y027219*
X052453*
X052461Y027217*
X054207*
X054249Y027226*
X054257Y027227*
X0543Y027255*
X054861Y027816*
X055333*
X055348Y027769*
X055275Y02772*
X055223Y027642*
X055205Y02755*
X055223Y027458*
X055275Y027379*
X055353Y027327*
X055446Y027309*
X055538Y027327*
X055616Y027379*
X055642Y027419*
X056152*
X05637Y027202*
Y026901*
Y026863*
Y026782*
X056332Y026774*
X056274Y026735*
X056235Y026676*
X056221Y026607*
X056235Y026538*
X056274Y02648*
X056332Y02644*
X05637Y026433*
Y026351*
X056827*
Y026427*
X05713*
Y026168*
X057839*
Y026837*
X05713*
Y026788*
X056827*
Y026863*
Y026901*
Y027413*
X056527*
X056298Y027642*
X056256Y02767*
X056248Y027672*
X056206Y02768*
X055642*
X055616Y02772*
X055543Y027769*
X055558Y027816*
X05667*
X05713Y027357*
Y026916*
X057839*
Y027585*
X057271*
X056817Y028039*
X056774Y028067*
X056766Y028069*
X056724Y028077*
X054807*
X054765Y028069*
X054757Y028067*
X054714Y028039*
X054426Y027751*
X054382Y027774*
X054394Y027838*
X054376Y02793*
X054324Y028008*
X054245Y02806*
X054153Y028078*
X054061Y02806*
X053983Y028008*
X053931Y02793*
X053925Y027901*
X052987*
Y028047*
X052435*
Y02748*
X052237*
Y028047*
X051685*
Y027938*
X051641Y027914*
X051592Y027947*
X0515Y027965*
X051408Y027947*
X05133Y027895*
X051278Y027817*
X051259Y027724*
X051278Y027632*
X05133Y027554*
X051372Y027526*
X051357Y027478*
X051164*
X050856Y027786*
X050814Y027814*
X050806Y027815*
X050764Y027824*
X048808*
X048758Y027814*
X048716Y027786*
X048537Y027607*
X048528Y027601*
X048322Y027395*
X048293Y027352*
X048283Y027301*
X048293Y027251*
X048322Y027208*
X048346Y027192*
X048351Y027142*
X048278Y02707*
X048226Y027104*
X048134Y027123*
X048042Y027104*
X047964Y027052*
X047911Y026974*
X047893Y026882*
X047911Y02679*
X047964Y026712*
X048042Y026659*
X048134Y026641*
X048226Y026659*
X048304Y026712*
X048348Y026777*
X048367Y02679*
X048535Y026958*
X048585Y026953*
X048601Y026929*
X048643Y0269*
X048694Y02689*
X048701Y026884*
X048711Y026833*
X04874Y02679*
X048763Y026774*
X048766Y026742*
X048733Y026705*
X048556*
X04851Y026696*
X048454Y026707*
X048362Y026689*
X048284Y026636*
X048232Y026558*
X048214Y026466*
X048232Y026374*
X048284Y026296*
X048362Y026244*
X048454Y026225*
X048547Y026244*
X048625Y026296*
X048677Y026374*
X048691Y026444*
X048803*
X048844Y026453*
X048853Y026454*
X048895Y026483*
X048941Y026463*
Y026366*
X048798Y026222*
X048724Y026237*
X048632Y026219*
X048554Y026166*
X048502Y026088*
X048484Y025996*
X048502Y025904*
X048554Y025826*
X048632Y025774*
X048724Y025755*
X048748Y02576*
X048784Y025725*
X048779Y025701*
X048788Y025654*
X048739Y025605*
X046161*
X046147Y025653*
X046182Y025676*
X046211Y025719*
X046221Y02577*
X046228Y025777*
X046278Y025787*
X046321Y025816*
X04635Y025859*
X04636Y025909*
X046367Y025916*
X046418Y025926*
X046461Y025955*
X046489Y025998*
X046499Y026049*
X046506Y026055*
X046557Y026065*
X0466Y026094*
X046628Y026137*
X046639Y026188*
X046645Y026194*
X046696Y026205*
X046739Y026233*
X046768Y026276*
X046778Y026327*
X046784Y026334*
X046835Y026344*
X046878Y026372*
X046907Y026415*
X046917Y026466*
X046924Y026473*
X046974Y026483*
X047017Y026512*
X047046Y026555*
X047056Y026605*
X047063Y026612*
X047114Y026622*
X047157Y026651*
X047185Y026694*
X047195Y026744*
X047202Y026751*
X047253Y026761*
X047269Y026758*
X047289Y026729*
X04741Y026607*
X047401Y02656*
X047419Y026468*
X047471Y02639*
X04755Y026338*
X047642Y026319*
X047734Y026338*
X047812Y02639*
X047864Y026468*
X047883Y02656*
X047864Y026652*
X047812Y026731*
X047734Y026783*
X047642Y026801*
X047595Y026792*
X047512Y026875*
Y026983*
X047502Y027033*
X047531Y02704*
X047574Y027068*
X047603Y027111*
X047609Y027144*
X047656Y027135*
X047706Y027145*
X047748Y027173*
X047776Y027215*
X047786Y027265*
X047776Y027315*
X047748Y027357*
X047719Y027386*
X047713Y027395*
X047507Y027601*
X047464Y02763*
X047414Y02764*
X047363Y02763*
X04732Y027601*
X047291Y027558*
X047281Y027507*
X047274Y027501*
X047224Y02749*
X047181Y027462*
X047152Y027419*
X047142Y027368*
X047135Y027361*
X047085Y027351*
X047042Y027323*
X047013Y02728*
X047003Y027229*
X046996Y027222*
X046945Y027212*
X046902Y027183*
X046874Y02714*
X046864Y02709*
X046857Y027083*
X046806Y027073*
X046763Y027044*
X046734Y027001*
X046724Y026951*
X046718Y026944*
X046667Y026934*
X046624Y026905*
X046595Y026862*
X046585Y026811*
X046578Y026805*
X046528Y026794*
X046485Y026766*
X046456Y026723*
X046446Y026672*
X046439Y026665*
X046389Y026655*
X046346Y026627*
X046317Y026584*
X046307Y026533*
X0463Y026526*
X046249Y026516*
X046206Y026487*
X046178Y026444*
X046168Y026394*
X046161Y026387*
X04611Y026377*
X046067Y026348*
X046038Y026305*
X046028Y026255*
X046022Y026248*
X045971Y026238*
X045928Y026209*
X045899Y026166*
X045889Y026115*
X045882Y026109*
X045832Y026099*
X045789Y02607*
X04576Y026027*
X04575Y025976*
X04576Y025925*
X045789Y025882*
X045995Y025676*
X04603Y025653*
X046016Y025605*
X044995*
X044945Y025595*
X044931Y025586*
X044903Y025567*
X043737Y024401*
X043693Y024424*
X043695Y024433*
Y025044*
X043705Y025066*
X043797Y025085*
X043875Y025137*
X043927Y025215*
X043946Y025307*
X043927Y025399*
X043875Y025477*
X043797Y02553*
X043705Y025548*
X043657Y025538*
X043619Y02557*
Y025671*
X043663Y025694*
X0437Y025669*
X043754Y025659*
X04397*
Y025799*
X04402*
Y025849*
X044416*
X044415Y025853*
X044385Y025898*
X044415Y025942*
X044426Y025996*
X04442Y026024*
X044432Y026038*
X044482Y026036*
X044519Y025981*
X044597Y025929*
X044689Y025911*
X044781Y025929*
X044859Y025981*
X044911Y026059*
X04493Y026152*
X044911Y026244*
X044859Y026322*
X044781Y026374*
X044689Y026392*
X044597Y026374*
X044595Y026373*
X044563Y026412*
X044607Y026455*
X044635Y026497*
X044637Y026505*
X044645Y026547*
Y026575*
X044679Y026609*
X044689Y026607*
X044781Y026625*
X044859Y026677*
X044911Y026755*
X04493Y026847*
X044911Y02694*
X044859Y027018*
X044781Y02707*
X044689Y027088*
X044597Y02707*
X044519Y027018*
X044466Y02694*
X044448Y026847*
X044465Y026764*
X044422Y026721*
X044414Y026709*
X044365Y026699*
X044339Y026716*
X044285Y026727*
X043934*
Y027207*
X043973Y027234*
X044026Y027312*
X044044Y027404*
X044026Y027496*
X043973Y027575*
X043895Y027627*
X043803Y027645*
X043711Y027627*
X043633Y027575*
X043581Y027496*
X043562Y027404*
X043581Y027312*
X043633Y027234*
X043673Y027207*
Y026698*
X043655Y026686*
X043624Y02664*
X043613Y026587*
X043624Y026533*
X043635Y026517*
X043632Y02651*
X04359Y026482*
X043219Y026111*
X04319Y026068*
X043189Y02606*
X043181Y026019*
Y025793*
X043133Y025779*
X043108Y025816*
X042835Y026088*
X042793Y026117*
X04279Y026123*
X042801Y026139*
X042812Y026193*
X042801Y026247*
X042771Y026291*
X042801Y026336*
X042812Y02639*
X042801Y026444*
X042771Y026488*
X042801Y026533*
X042812Y026587*
X042801Y02664*
X042771Y026686*
X042725Y026716*
X042671Y026727*
X042621*
X042589Y026766*
X042596Y026803*
Y026897*
X042627Y026918*
X042679Y026996*
X042698Y027088*
X042679Y027181*
X042627Y027259*
X042549Y027311*
X042457Y027329*
X042365Y027311*
X042286Y027259*
X042234Y027181*
X042216Y027088*
X042234Y026996*
X042286Y026918*
X04232Y026896*
X042324Y026846*
X042313Y026835*
X042285Y026793*
X042283Y026784*
X042275Y026743*
Y026727*
X04214*
X042086Y026716*
X04204Y026686*
X04201Y02664*
X041999Y026587*
X042005Y026559*
X041978Y026526*
X041928Y026528*
X041907Y02656*
X041828Y026612*
X041736Y026631*
X041644Y026612*
X041566Y02656*
X041514Y026482*
X041495Y02639*
X041514Y026298*
X041566Y026219*
X041644Y026167*
X041736Y026149*
X041781Y026158*
X041804Y026114*
X041505Y025814*
X041477Y025772*
X041475Y025764*
X041467Y025722*
Y025339*
X041341*
X041303*
X041097*
Y02511*
Y024881*
X041303*
X041341*
X041853*
X041871Y024889*
X042293Y024467*
X042336Y024439*
X042386Y024429*
X042436*
X042452Y024405*
X04253Y024353*
X042622Y024334*
X042714Y024353*
X042792Y024405*
X042794Y024407*
X042844*
X042845Y024404*
X042924Y024352*
X043016Y024333*
X043108Y024352*
X043186Y024404*
X043238Y024482*
X043257Y024574*
X043238Y024666*
X043186Y024744*
X043146Y024771*
Y025227*
X043194Y025242*
X043219Y025205*
X043434Y02499*
Y024487*
X043175Y024228*
X041258*
X040448Y025039*
Y025339*
X039936*
X039898*
X039692*
Y02511*
X039642*
Y02506*
X039386*
Y024881*
X039461*
Y024608*
X039419Y024546*
X039411Y024503*
X039873*
X039864Y024546*
X039822Y024608*
Y024881*
X039898*
X039936*
X040236*
X041112Y024006*
X04114Y023987*
X041154Y023977*
X041204Y023967*
X041671*
X04169Y023921*
X041565Y023797*
X041341*
X041303*
X041097*
Y023568*
X040997*
Y023797*
X040791*
X040781*
X040774Y023831*
X040746Y023873*
X040486Y024133*
X040444Y024161*
X040436Y024163*
X040394Y024171*
X039689*
X039594*
X038945*
X038641Y024475*
Y02515*
X038668*
Y025661*
X038353*
X03835*
X038314Y025697*
Y026169*
X038353*
X038461*
Y026425*
Y026681*
X038353*
X03835*
X038314Y026716*
Y026848*
X038355Y026856*
X038433Y026908*
X038485Y026987*
X038503Y027079*
X038485Y027171*
X038433Y027249*
X038355Y027301*
X038263Y02732*
X03817Y027301*
X038092Y027249*
X03804Y027171*
X038036Y027149*
X037986*
X037981Y027171*
X037929Y027249*
X037851Y027301*
X037759Y02732*
X037666Y027301*
X037588Y027249*
X037536Y027171*
X037518Y027079*
X037536Y026987*
X037588Y026908*
X037628Y026882*
Y026681*
X037601*
Y026169*
X037916*
X037918*
X037953Y026134*
Y025661*
X037916*
X037601*
Y02515*
X037628*
Y024527*
X037636Y024485*
X037638Y024477*
X037666Y024434*
X037819Y024282*
X037803Y024235*
X037799Y024234*
X037684Y024186*
X037585Y024111*
X037509Y024012*
X037465Y023904*
X037136*
X037115Y023935*
X03705Y023979*
X036973Y023994*
X036343*
X036266Y023979*
X036201Y023935*
X036158Y02387*
X036142Y023793*
X036158Y023716*
X036201Y023651*
X036266Y023608*
X036343Y023593*
X036973*
X03705Y023608*
X037103Y023643*
X037465*
X037509Y023535*
X037585Y023437*
X037684Y023361*
X037799Y023313*
X037922Y023297*
X038045Y023313*
X03816Y023361*
X038259Y023437*
X038304Y023495*
X038351Y023494*
X038777Y023068*
X038754Y023024*
X038685Y023037*
X038593Y023019*
X038515Y022967*
X038463Y022889*
X038444Y022796*
X038463Y022704*
X038515Y022626*
X038593Y022574*
X038685Y022556*
X038777Y022574*
X038855Y022626*
X038908Y022704*
X038926Y022796*
X038912Y022865*
X038956Y022889*
X039294Y022551*
X039336Y022523*
X039386Y022513*
X041512*
X041553Y022521*
X041561Y022523*
X041588Y02254*
X041619Y022502*
X040863Y021746*
X036744*
X036702Y021738*
X036694Y021736*
X036652Y021708*
X036232Y021288*
X035801*
X035017Y022071*
X035022Y022121*
X035068Y022151*
X035111Y022216*
X035126Y022293*
X035111Y02237*
X035081Y022416*
X035409Y022744*
X035437Y022786*
X035439Y022794*
X035447Y022836*
Y024345*
X035439Y024387*
X035437Y024395*
X035409Y024437*
X035371Y024475*
Y024554*
X035478Y024599*
X035577Y024675*
X035653Y024774*
X0357Y024888*
X035717Y025012*
X0357Y025135*
X035653Y02525*
X035577Y025349*
X035478Y025424*
X035363Y025472*
X03524Y025488*
X035117Y025472*
X035002Y025424*
X034903Y025349*
X034827Y02525*
X03478Y025135*
X034764Y025012*
X034767Y024984*
X034734Y024946*
X034733*
X034728Y024945*
X034593*
Y025045*
X034081*
X034043*
X033968*
Y026141*
X034035Y026209*
X035181*
Y026161*
X035383*
X03577Y025774*
X035828Y025735*
X035898Y025721*
X036685*
Y025646*
X036733*
Y025322*
X036691Y025259*
X036676Y025186*
X035736Y024246*
X035697Y024187*
X035683Y024118*
Y023102*
X035697Y023033*
X035736Y022974*
X036045Y022666*
X036104Y022626*
X036173Y022613*
X036259*
X036266Y022608*
X036343Y022593*
X036973*
X03705Y022608*
X037076Y022625*
X037547*
X037609Y022583*
X037701Y022565*
X037794Y022583*
X037872Y022636*
X037924Y022714*
X037942Y022806*
X037924Y022898*
X037872Y022976*
X037794Y023028*
X037701Y023047*
X037609Y023028*
X037547Y022987*
X037011*
X036973Y022994*
X036343*
X036266Y022979*
X036259Y022974*
X036248*
X036045Y023177*
Y024043*
X036932Y02493*
X037006Y024945*
X037084Y024997*
X037136Y025075*
X037154Y025167*
X037136Y025259*
X037094Y025322*
Y025646*
X037142*
Y026157*
Y026196*
Y026402*
X036685*
Y026196*
Y026157*
Y026082*
X035972*
X03594Y026115*
X035959Y026161*
X036243*
Y026618*
X035943*
X035672Y026889*
X035629Y026918*
X035621Y026919*
X03558Y026928*
X033665*
X033624Y026919*
X033615Y026918*
X033573Y026889*
X033337Y026653*
X033308Y026611*
X033307Y026602*
X033298Y026561*
Y024339*
X033307Y024297*
X033308Y024289*
X033337Y024247*
X033451Y024132*
X033493Y024104*
X033543Y024094*
X034126*
X034204Y024015*
X034199Y023966*
X034154Y023935*
X03411Y02387*
X034095Y023793*
X03411Y023716*
X034154Y023651*
X034219Y023608*
X034296Y023593*
X034926*
X035003Y023608*
X035068Y023651*
X035111Y023716*
X035126Y023793*
X035111Y02387*
X035068Y023935*
X035003Y023979*
X034926Y023994*
X034595*
X034272Y024317*
X03423Y024345*
X034221Y024347*
X03418Y024355*
X033597*
X033559Y024393*
Y024587*
X034043*
X034081*
X034593*
Y024685*
X034896*
X034903Y024675*
X035002Y024599*
X03511Y024554*
Y024421*
X035118Y02438*
X03512Y024371*
X035148Y024329*
X035186Y024291*
Y02289*
X035153Y022857*
X035111Y02287*
X035068Y022935*
X035003Y022979*
X034926Y022994*
X034296*
X034219Y022979*
X034154Y022935*
X034146Y022924*
X03393*
X033888Y022915*
X03388Y022914*
X033837Y022886*
X032296Y021344*
X032246Y021347*
X032234Y021363*
X032136Y021438*
X032021Y021486*
X031897Y021502*
X031774Y021486*
X031659Y021438*
X03156Y021363*
X031485Y021264*
X031437Y021149*
X031431Y021107*
X030891*
X029033*
X028661Y02148*
X028618Y021508*
X028611Y021509*
X028595Y021546*
X028545Y021612*
X028479Y021662*
X028443Y021677*
Y021727*
X028479Y021742*
X028545Y021793*
X028595Y021858*
X028627Y021935*
X028638Y022017*
X028631Y022072*
X028848Y022289*
X028897Y022279*
X028905Y022258*
X028956Y022193*
X029021Y022142*
X029098Y02211*
X02918Y0221*
X029263Y02211*
X029339Y022142*
X029405Y022193*
X029455Y022258*
X029487Y022335*
X029498Y022417*
X029487Y0225*
X029455Y022576*
X029405Y022642*
X029339Y022692*
X029263Y022724*
X029226Y022729*
X02921Y022776*
X029592Y023158*
X03071*
X030779Y023172*
X030838Y023211*
X030877Y023269*
X03089Y023339*
Y027541*
X032291*
X032307Y027538*
X032323Y027541*
X032681*
X03275Y027555*
X032754Y027558*
X035393*
X035463Y027571*
X035521Y02761*
X037484Y029573*
X037976*
Y030321*
X037228*
Y029829*
X035319Y027919*
X032698*
X032628Y027905*
X032624Y027902*
X029191*
X028931Y028162*
Y028241*
X028976Y028263*
X029038Y028215*
X029115Y028183*
X029197Y028173*
X029279Y028183*
X029356Y028215*
X029421Y028266*
X029472Y028331*
X029504Y028408*
X029515Y02849*
X029504Y028573*
X029472Y028649*
X029421Y028715*
X029356Y028765*
X029279Y028797*
X029197Y028808*
X029115Y028797*
X029038Y028765*
X028972Y028715*
X028922Y028649*
X0289Y028596*
X028851Y028586*
X028639Y028798*
X028644Y028808*
X028655Y02889*
X028644Y028973*
X028612Y029049*
X028561Y029115*
X028496Y029165*
X02846Y02918*
Y02923*
X028496Y029245*
X028561Y029296*
X028612Y029361*
X028644Y029438*
X028655Y02952*
X028647Y029575*
X028824Y029752*
X030251*
X03032Y029766*
X030379Y029805*
X03144Y030867*
X032372*
X033291Y029947*
Y029455*
X033971*
X03399Y029408*
X033771Y02919*
X033763Y029193*
X033665Y029206*
X033568Y029193*
X033477Y029155*
X033399Y029095*
X033339Y029017*
X033301Y028926*
X033288Y028829*
X033301Y028731*
X033339Y02864*
X033399Y028562*
X033477Y028502*
X033568Y028464*
X033665Y028451*
X033763Y028464*
X033854Y028502*
X033932Y028562*
X033992Y02864*
X03403Y028731*
X034043Y028829*
X03403Y028926*
X034026Y028934*
X034321Y029228*
X03436Y029287*
X034374Y029356*
Y029525*
X034418Y029547*
X034477Y029502*
X034485Y029499*
Y029159*
X034477Y029155*
X034399Y029095*
X034339Y029017*
X034301Y028926*
X034288Y028829*
X034301Y028731*
X034339Y02864*
X034399Y028562*
X034477Y028502*
X034568Y028464*
X034665Y028451*
X034763Y028464*
X034854Y028502*
X034932Y028562*
X034992Y02864*
X03503Y028731*
X035043Y028829*
X03503Y028926*
X034992Y029017*
X034932Y029095*
X034854Y029155*
X034846Y029159*
Y029499*
X034854Y029502*
X034932Y029562*
X034992Y02964*
X03503Y029731*
X035043Y029829*
X03503Y029926*
X034992Y030017*
X034932Y030095*
X034931Y030117*
X035512Y030699*
X036482*
X036551Y030712*
X036609Y030752*
X037133Y031275*
X037407*
X037445*
X037957*
Y031504*
X038794Y032341*
X03884Y032322*
Y031737*
X038765*
Y031279*
X039277*
X039315*
X03939*
Y030992*
X039148Y03075*
X039144Y030745*
X038708Y030308*
X0387Y030311*
X038602Y030324*
X038505Y030311*
X038414Y030274*
X038336Y030214*
X038276Y030136*
X038238Y030045*
X038225Y029947*
X038238Y029849*
X038276Y029758*
X038336Y02968*
X038414Y02962*
X038422Y029617*
Y029277*
X038414Y029274*
X038336Y029214*
X038276Y029136*
X038238Y029045*
X038225Y028947*
X038238Y028849*
X038276Y028758*
X038336Y02868*
X038414Y02862*
X038416Y028619*
Y027892*
X038364Y027814*
X038346Y027722*
X038364Y02763*
X038416Y027551*
X038494Y027499*
X038587Y027481*
X038679Y027499*
X038757Y027551*
X038809Y02763*
X038827Y027722*
X038809Y027814*
X038777Y027861*
Y028615*
X038791Y02862*
X038869Y02868*
X038929Y028758*
X038967Y028849*
X03898Y028947*
X038967Y029045*
X038929Y029136*
X038869Y029214*
X038791Y029274*
X038783Y029277*
Y029617*
X038791Y02962*
X038869Y02968*
X038929Y029758*
X038967Y029849*
X03898Y029947*
X038967Y030045*
X038963Y030053*
X039403Y030493*
X039407Y030498*
X039699Y03079*
X039738Y030848*
X039752Y030917*
Y031279*
X039827*
Y031658*
X039919Y03175*
X039958Y031809*
X039972Y031878*
Y032298*
X040018Y032317*
X040415Y03192*
Y031748*
X04034*
Y031291*
X040852*
X04089*
X041402*
Y031339*
X041579*
Y031279*
X042091*
X042129*
X042641*
Y031737*
X042565*
Y032559*
X042641*
Y032607*
X043117*
X043186Y032621*
X043245Y03266*
X044995Y03441*
X045034Y034468*
X045048Y034537*
Y034817*
X045098Y034822*
X045099Y034813*
X045101Y034805*
X045129Y034763*
X045622Y03427*
X045665Y034242*
X045673Y03424*
X045714Y034232*
X046914*
X046929Y034184*
X046861Y034139*
X046809Y034061*
X046791Y033969*
X046809Y033876*
X046861Y033798*
X046901Y033772*
Y033709*
X046546Y033353*
X046517Y033311*
X046516Y033302*
X046507Y033261*
Y032709*
X046422Y032624*
X046388Y032631*
X046323Y032618*
X046267Y032581*
X045947Y032261*
X04591Y032205*
X045897Y03214*
X04591Y032075*
X045947Y032019*
X046003Y031982*
X046068Y031969*
X046089Y031974*
X046124Y031938*
X04612Y031917*
X046133Y031852*
X04617Y031797*
X046225Y03176*
X046291Y031747*
X046312Y031751*
X046347Y031716*
X046343Y031695*
X046356Y031629*
X046364Y031616*
X046638Y03189*
X046912Y032164*
X046899Y032172*
X046834Y032185*
X046832Y032194*
X046823Y032236*
X046908Y032322*
X046937Y032364*
X046938Y032372*
X046947Y032414*
Y033135*
X047575Y033763*
X047622Y033754*
X047714Y033772*
X047792Y033824*
X047845Y033902*
X047853Y033943*
X047902Y033938*
Y033363*
X047318Y032779*
X04729Y032737*
X047288Y032728*
X04728Y032687*
Y032231*
X047288Y03219*
X04729Y032181*
X047318Y032139*
X047791Y031666*
Y031365*
X047735Y031309*
X047685*
X047668Y031326*
X047672Y031347*
X047659Y031412*
X047622Y031467*
X047567Y031504*
X047502Y031517*
X047481Y031513*
X047445Y031548*
X047449Y031569*
X047436Y031635*
X0474Y03169*
X047344Y031727*
X047279Y03174*
X047258Y031736*
X047223Y031771*
X047227Y031792*
X047214Y031857*
X047177Y031913*
X047121Y03195*
X047056Y031963*
X047035Y031958*
X047Y031994*
X047004Y032015*
X046991Y03208*
X046982Y032093*
X046709Y031819*
X046435Y031546*
X046448Y031537*
X046513Y031524*
X046534Y031528*
X04657Y031493*
X046565Y031472*
X046578Y031407*
X046615Y031351*
X046671Y031314*
X046736Y031301*
X046757Y031305*
X046792Y03127*
X046788Y031249*
X046801Y031184*
X046838Y031129*
X046893Y031092*
X046959Y031079*
X046969Y031081*
X046992Y031036*
X046723Y030767*
X046694Y030725*
X046693Y030716*
X046684Y030675*
Y030595*
X046645Y030568*
X046592Y03049*
X046574Y030398*
X046583Y030351*
X046078Y029846*
X04545*
X045423Y029886*
X045345Y029938*
X045253Y029956*
X045206Y029947*
X044932Y030221*
X044889Y03025*
X044881Y030251*
X04484Y030259*
X044148*
X04405Y030358*
X043493Y029802*
X043729Y029565*
X043738Y029573*
X043786Y029559*
X043795Y029514*
X043803Y029501*
X044077Y029774*
X044148Y029704*
X043874Y02943*
X043887Y029421*
X043952Y029408*
X043973Y029412*
X044008Y029377*
X044004Y029356*
X044017Y029291*
X044054Y029236*
X04411Y029199*
X044175Y029186*
X044196Y02919*
X044213Y029172*
X044227Y029147*
X04412Y029041*
X043868*
X042711Y030199*
X042668Y030227*
X04266Y030228*
X042618Y030237*
X04214*
X042098Y030228*
X04209Y030227*
X042048Y030199*
X041036Y029187*
X040958Y02922*
X04085Y029234*
X040742Y02922*
X040662Y029186*
X040016Y029832*
X039974Y02986*
X039965Y029862*
X039924Y02987*
X039685*
X039659Y02991*
X039581Y029962*
X039488Y029981*
X039396Y029962*
X039318Y02991*
X039266Y029832*
X039248Y02974*
X039266Y029648*
X039318Y02957*
X039396Y029517*
X039488Y029499*
X039581Y029517*
X039659Y02957*
X039685Y029609*
X03987*
X040479Y029*
X040448Y028925*
X040433Y028817*
X040448Y028709*
X040489Y028608*
X040556Y028522*
X040642Y028456*
X040742Y028414*
X040841Y028401*
X040857Y028354*
X040758Y028255*
X04073Y028213*
X040728Y028204*
X04072Y028163*
Y027289*
X040642Y027257*
X040556Y02719*
X040489Y027104*
X040448Y027004*
X040433Y026896*
X040448Y026788*
X04048Y02671*
X040192Y026422*
X039737*
X03971Y026462*
X039632Y026514*
X03954Y026532*
X039448Y026514*
X03937Y026462*
X039317Y026384*
X039299Y026291*
X039317Y026199*
X03937Y026121*
X039448Y026069*
X03954Y02605*
X039632Y026069*
X03971Y026121*
X039737Y026161*
X040246*
X040288Y026169*
X040296Y026171*
X040338Y026199*
X040664Y026525*
X040742Y026493*
X04085Y026479*
X040958Y026493*
X041059Y026535*
X041145Y026601*
X041211Y026687*
X041253Y026788*
X041267Y026896*
X041253Y027004*
X041211Y027104*
X041145Y02719*
X041059Y027257*
X040981Y027289*
Y028109*
X041405Y028533*
X041434Y028575*
X041443Y028625*
Y028931*
X04194Y029428*
X041985Y029406*
X04197Y02929*
X041986Y029167*
X042033Y029052*
X042109Y028953*
X042208Y028878*
X042323Y02883*
X042446Y028814*
X042569Y02883*
X042684Y028878*
X042766Y02894*
X042885Y02882*
Y028049*
X04276*
X042722*
X04221*
Y028011*
X041596*
X041533Y028053*
X041441Y028071*
X041349Y028053*
X041271Y028001*
X041218Y027923*
X0412Y02783*
X041218Y027738*
X041271Y02766*
X041349Y027608*
X041441Y02759*
X041533Y027608*
X041596Y02765*
X04221*
Y027591*
X042722*
X04276*
X043272*
Y027788*
X044371*
X044394Y027744*
X044361Y027693*
X044342Y027601*
X044361Y027509*
X044413Y027431*
X044491Y027379*
X044583Y02736*
X044675Y027379*
X044753Y027431*
X044806Y027509*
X044824Y027601*
X044806Y027693*
X044753Y027771*
X044675Y027824*
X044661Y02787*
X045078Y028287*
X045122Y028263*
X045118Y028243*
X045131Y028177*
X045168Y028122*
X045223Y028085*
X045288Y028072*
X045354Y028085*
X045409Y028122*
X045729Y028442*
X045766Y028497*
X045779Y028563*
X045766Y028628*
X045733Y028678*
Y029126*
X045723Y029176*
X045714Y02919*
X045695Y029218*
X045418Y029495*
X045423Y029545*
X04545Y029585*
X046132*
X046174Y029593*
X046182Y029595*
X046224Y029623*
X046642Y03004*
X04669Y030026*
X046693Y03001*
X046694Y030001*
X046723Y029959*
X047012Y029669*
X047015Y029655*
X04698Y02962*
X046959Y029624*
X046893Y029611*
X04688Y029603*
X047154Y029329*
X047083Y029258*
X04681Y029532*
X046801Y029519*
X046788Y029454*
X046792Y029433*
X046757Y029397*
X046736Y029401*
X046671Y029388*
X046615Y029351*
X046578Y029296*
X046565Y029231*
X04657Y02921*
X046534Y029175*
X046513Y029179*
X046448Y029166*
X046393Y029129*
X046356Y029073*
X046343Y029008*
X046347Y028987*
X046312Y028952*
X046291Y028956*
X046225Y028943*
X04617Y028906*
X046133Y028851*
X04612Y028785*
X046124Y028765*
X046089Y028729*
X046068Y028733*
X046003Y02872*
X04599Y028712*
X046263Y028438*
X046537Y028164*
X046546Y028177*
X046555Y028226*
X046601Y028245*
X046612Y028238*
X046662Y028228*
X046831*
X046872Y028236*
X046881Y028238*
X046923Y028266*
X047245Y028588*
X047515*
X047557Y028596*
X047565Y028598*
X047607Y028626*
X047881Y0289*
X048222*
X048263Y028909*
X048272Y02891*
X048314Y028939*
X048588Y029212*
X048649*
X048954Y028906*
Y028599*
X049466*
X049504*
X04971*
Y028827*
Y029056*
X049504*
X049466*
X049174*
X049003Y029227*
X049022Y029273*
X049471*
X049509*
X049715*
Y029502*
Y02973*
X049509*
X049471*
X048959*
Y02967*
X048526*
X048507Y029716*
X048626Y029835*
X048654Y029878*
X048656Y029886*
X048664Y029927*
Y031677*
X048712Y031691*
X048751Y031633*
X048829Y031581*
X048921Y031562*
X049013Y031581*
X049092Y031633*
X049144Y031711*
X049162Y031803*
X049144Y031895*
X049102Y031958*
Y03224*
X049127*
Y032363*
X049437*
X049469Y032324*
X049461Y032287*
X049474Y032226*
X049509Y032174*
Y032145*
X049474Y032093*
X049461Y032031*
X049474Y03197*
X049509Y031918*
Y031889*
X049474Y031837*
X049461Y031776*
X049474Y031714*
X049509Y031662*
Y031633*
X049474Y031581*
X049461Y03152*
X049474Y031458*
X049509Y031406*
Y031377*
X049474Y031325*
X049461Y031264*
X049474Y031202*
X049509Y03115*
Y031121*
X049474Y031069*
X049461Y031008*
X049474Y030946*
X049509Y030894*
Y030865*
X049474Y030813*
X049461Y030752*
X049474Y030691*
X049509Y030638*
X049561Y030604*
X049622Y030591*
X050331*
X050392Y030604*
X050444Y030638*
X050479Y030691*
X050491Y030752*
X050479Y030813*
X050444Y030865*
Y030894*
X050479Y030946*
X050491Y031008*
X050479Y031069*
X050444Y031121*
Y03115*
X050479Y031202*
X050491Y031264*
X050479Y031325*
X050444Y031377*
Y031406*
X050479Y031458*
X050491Y03152*
X050479Y031581*
X050444Y031633*
Y031662*
X050479Y031714*
X050491Y031776*
X050479Y031837*
X050444Y031889*
Y031918*
X050479Y03197*
X050491Y032031*
X050479Y032093*
X050444Y032145*
Y032174*
X050479Y032226*
X050491Y032287*
X05049Y032296*
X050534Y032319*
X050717Y032136*
X050707Y032121*
X050688Y032029*
X050707Y031937*
X050759Y031859*
X050837Y031807*
X050929Y031788*
X051021Y031807*
X051099Y031859*
X051144Y031926*
X051192Y031912*
Y031576*
X051203Y031522*
X051233Y031477*
X051636Y031074*
X051682Y031043*
X051735Y031033*
X052013*
X052066Y031043*
X052112Y031074*
X052122Y031084*
X052161Y031052*
X052138Y031018*
X052127Y030964*
Y029921*
X052029Y029881*
X051931Y029805*
X051855Y029706*
X051815Y029609*
X051441*
Y029749*
X050929*
X050891*
X050849*
X05083Y029795*
X050965Y02993*
X051325*
X051388Y029888*
X05148Y02987*
X051572Y029888*
X051651Y029941*
X051703Y030019*
X051721Y030111*
X051703Y030203*
X051651Y030281*
X051572Y030333*
X05148Y030352*
X051388Y030333*
X051325Y030292*
X05089*
X050821Y030278*
X050762Y030239*
X050507Y029984*
X050468Y029925*
X050454Y029856*
Y029749*
X050379*
Y029292*
X050891*
X050929*
X051441*
Y029328*
X051815*
X051855Y02923*
X051931Y029131*
X052029Y029055*
X052144Y029008*
X052268Y028992*
X052391Y029008*
X052506Y029055*
X052605Y029131*
X05268Y02923*
X052728Y029345*
X052744Y029468*
X052728Y029591*
X05268Y029706*
X052605Y029805*
X052506Y029881*
X052408Y029921*
Y030906*
X052491Y030989*
X052539Y030974*
X052545Y030946*
X052579Y030894*
Y030865*
X052545Y030813*
X052532Y030752*
X052545Y030691*
X052579Y030638*
X052631Y030604*
X052693Y030591*
X053205*
X053417Y030379*
Y029244*
X053425Y029202*
X053427Y029194*
X053455Y029152*
X054341Y028266*
X054383Y028238*
X054433Y028228*
X055462*
X055504Y028236*
X055512Y028238*
X055554Y028266*
X0561Y028812*
X056128Y028854*
X056138Y028904*
Y032984*
X056128Y033034*
X0561Y033077*
X055786Y033391*
X055805Y033437*
X056854*
X056894*
X058626*
Y034402*
X056894*
X056854*
X056618*
X056599Y034448*
X057065Y034913*
X057084Y034942*
X057093Y034956*
X057103Y035006*
Y035563*
X057095Y035605*
X057093Y035613*
X057065Y035655*
X056769Y035951*
X056727Y035979*
X056719Y03598*
X056677Y035989*
X056608*
Y035996*
Y036311*
Y036665*
X056104*
X056087Y036669*
X055138*
X054966Y036841*
X054951Y036915*
X054909Y036978*
Y037159*
X054895Y037228*
X054856Y037286*
X054797Y037326*
X054728Y037339*
X054367*
Y037415*
Y037453*
Y037753*
X055624Y03901*
X055652Y039052*
X055662Y039102*
Y03913*
X05572Y039154*
X055798Y039214*
X055858Y039292*
X055896Y039383*
X055906Y039457*
X055953Y039473*
X056038Y039388*
X05608Y03936*
X056088Y039358*
X05613Y03935*
X056181*
X056205Y039292*
X056265Y039214*
X056343Y039154*
X056434Y039116*
X056532Y039103*
X056629Y039116*
X05672Y039154*
X056798Y039214*
X056858Y039292*
X056896Y039383*
X056909Y03948*
X056896Y039578*
X056858Y039669*
X056798Y039747*
X05672Y039807*
X056629Y039845*
X056532Y039858*
X056434Y039845*
X056343Y039807*
X056265Y039747*
X056205Y039669*
X056199Y039655*
X05615Y039645*
X055799Y039996*
X055757Y040024*
X055748Y040026*
X055707Y040034*
X055356*
X055306Y040024*
X055264Y039996*
X054952Y039684*
X054906Y039703*
Y039854*
X054157*
Y039188*
X053956*
X053915Y039179*
X053906Y039178*
X053864Y039149*
X052569Y037854*
X049354*
X049054Y038154*
X049064Y038201*
X049045Y038293*
X048993Y038371*
X048915Y038423*
X048823Y038442*
X048731Y038423*
X048653Y038371*
X0486Y038293*
X048582Y038201*
X0486Y038109*
X048653Y03803*
X048731Y037978*
X048823Y03796*
X04887Y037969*
X049208Y037631*
X04925Y037603*
X049259Y037601*
X0493Y037593*
X052623*
X052664Y037601*
X052673Y037603*
X052715Y037631*
X05401Y038927*
X05488*
X054921Y038935*
X05493Y038937*
X054972Y038965*
X055047Y03904*
X055075Y039082*
X055077Y03909*
X055085Y039132*
Y039438*
X055126Y039467*
X055157Y039457*
X055167Y039383*
X055205Y039292*
X055265Y039214*
X055343Y039154*
X055352Y039107*
X054209Y037965*
X053909*
Y037839*
X053312*
X05327Y037831*
X053262Y037829*
X05322Y037801*
X052918Y0375*
X048365*
X048324Y037491*
X048315Y03749*
X048273Y037461*
X048033Y037222*
X047549*
X047511*
X046999*
Y036764*
X047158*
Y036674*
X047118Y036648*
X047066Y03657*
X047048Y036478*
X047066Y036385*
X047118Y036307*
X047196Y036255*
X047289Y036237*
X047381Y036255*
X047459Y036307*
X047511Y036385*
X047529Y036478*
X047511Y03657*
X047459Y036648*
X047419Y036674*
Y036764*
X047511*
X047549*
X048061*
Y03688*
X048419Y037239*
X052972*
X053014Y037247*
X053022Y037249*
X053064Y037277*
X053366Y037578*
X053909*
Y037453*
Y037415*
Y036903*
X054367*
Y036978*
X054495*
X054518Y036934*
X054506Y036915*
X054491Y036841*
X054443Y036793*
X054404Y036734*
X05439Y036665*
Y035956*
X054303*
Y035444*
Y035406*
Y03533*
X054213*
X053808Y035735*
X053803Y035738*
Y036316*
X052701*
Y034899*
X053803*
Y035163*
X053849Y035183*
X05401Y035022*
X054069Y034983*
X054138Y034969*
X054303*
Y034894*
X05476*
Y034969*
X055142*
X055211Y034983*
X055269Y035022*
X055295Y035048*
X056087*
X056104Y035051*
X056518*
X056537Y035005*
X056387Y034855*
X05527*
X055228Y034847*
X05522Y034845*
X055177Y034817*
X054989Y034628*
X054961Y034586*
X054959Y034578*
X054951Y034536*
Y03353*
X054905Y033511*
X054847Y033569*
X054805Y033597*
X054797Y033599*
X054755Y033607*
X054115*
X054074Y033599*
X054065Y033597*
X054023Y033569*
X053586Y033132*
X053536Y033137*
X053515Y033169*
Y033197*
X05355Y03325*
X053562Y033311*
X05355Y033372*
X053515Y033425*
Y033453*
X05355Y033505*
X053562Y033567*
X05355Y033628*
X053515Y03368*
Y033709*
X05355Y033761*
X053562Y033823*
X05355Y033884*
X053515Y033936*
Y033965*
X05355Y034017*
X053562Y034079*
X05355Y03414*
X053515Y034192*
X053463Y034227*
X053402Y034239*
X052693*
X052631Y034227*
X052579Y034192*
X052545Y03414*
X052532Y034079*
X052545Y034017*
X052579Y033965*
Y033936*
X052545Y033884*
X052532Y033823*
X052545Y033761*
X052579Y033709*
Y03368*
X052545Y033628*
X052532Y033567*
X052545Y033505*
X052518Y033478*
X052459Y033439*
X052414Y033394*
X052368Y033413*
Y0349*
X052355Y034969*
X052315Y035028*
X052031Y035312*
Y036316*
X050929*
Y036039*
X049828*
X049815Y036058*
X049804Y036085*
X0499Y036181*
X049928Y036223*
X04993Y036231*
X049938Y036273*
Y036277*
X049964*
Y036734*
X049452*
X049414*
X049208*
Y036505*
X049158*
Y036455*
X048902*
Y036277*
X04904*
X049059Y036231*
X048441Y035613*
X048413Y035571*
X048411Y035562*
X048403Y035521*
Y029982*
X048152Y029731*
X048108Y029754*
X048118Y029802*
X048105Y029867*
X048068Y029922*
X047747Y030242*
X047692Y030279*
X047627Y030292*
X047562Y030279*
X04754Y030265*
X047133*
X047046Y030351*
X047056Y030398*
X047037Y03049*
X046985Y030568*
X046963Y030583*
X046958Y030633*
X047181Y030856*
X047202Y03086*
X047238Y030825*
X047234Y030804*
X047247Y030738*
X047284Y030683*
X047339Y030646*
X047404Y030633*
X047425Y030637*
X04746Y030602*
X047456Y030581*
X047469Y030516*
X047506Y03046*
X047562Y030423*
X047627Y03041*
X047692Y030423*
X047747Y03046*
X048068Y030781*
X048105Y030836*
X048118Y030901*
X048116Y03091*
X0482Y030994*
X048228Y031037*
X04823Y031045*
X048238Y031086*
Y031785*
X048228Y031835*
X0482Y031877*
X047718Y032359*
Y032559*
X048302Y033144*
X048331Y033186*
X04834Y033236*
Y034203*
X048331Y034253*
X048302Y034295*
X047965Y034632*
X047923Y03466*
X047915Y034662*
X047873Y03467*
X047528*
X047454Y034744*
X047458Y034782*
X04751Y034861*
X047528Y034953*
X04751Y035045*
X047458Y035123*
X04738Y035175*
X047287Y035194*
X047195Y035175*
X047117Y035123*
X047065Y035045*
X047047Y034953*
X047065Y034861*
X047117Y034782*
X047157Y034756*
Y034726*
X047165Y034684*
X047167Y034676*
X047195Y034633*
X04729Y034539*
X04727Y034493*
X045768*
X045457Y034804*
X045476Y03485*
X045478*
X045516*
X045821*
X045834Y034842*
X045848Y034832*
X045898Y034822*
X046372*
X046398Y034782*
X046477Y03473*
X046569Y034712*
X046661Y03473*
X046739Y034782*
X046791Y034861*
X04681Y034953*
X046791Y035045*
X046739Y035123*
X046661Y035175*
X046569Y035194*
X046477Y035175*
X046398Y035123*
X046372Y035083*
X046028*
Y035308*
X045516*
X045478*
X045193*
X045174Y035354*
X045295Y035475*
X047571*
X04764Y035488*
X047699Y035528*
X048856Y036685*
X048902Y036666*
Y036555*
X049108*
Y036734*
X048971*
X048961Y036757*
X048989Y036799*
X051904*
X052265Y036439*
X052323Y036399*
X052392Y036386*
X053842*
X053905Y036344*
X053997Y036326*
X054089Y036344*
X054167Y036396*
X05422Y036474*
X054238Y036566*
X05422Y036659*
X054167Y036737*
X054089Y036789*
X053997Y036807*
X053905Y036789*
X053842Y036747*
X052467*
X052107Y037107*
X052048Y037146*
X051979Y03716*
X048895*
X048826Y037146*
X048767Y037107*
X047496Y035836*
X04522*
X045151Y035822*
X045092Y035783*
X04474Y03543*
X0447Y035372*
X044687Y035303*
Y034612*
X043042Y032968*
X042641*
Y033016*
X042582*
X042577Y033039*
X042538Y033097*
X041941Y033695*
X041882Y033734*
X041851Y03374*
X041856Y03379*
X043539*
X043549Y033792*
X043559*
X043564Y033795*
X04357Y033796*
X043578Y033801*
X043587Y033805*
X043654Y033855*
X043658Y033859*
X043663Y033863*
X043668Y033871*
X043675Y033878*
X043677Y033883*
X04368Y033889*
X043682Y033898*
X043686Y033907*
X043685Y033913*
X043687Y033919*
Y034809*
X044111*
X044173Y034767*
X044266Y034749*
X044358Y034767*
X044436Y034819*
X044488Y034898*
X044507Y03499*
X044488Y035082*
X044436Y03516*
X044358Y035212*
X044266Y035231*
X044173Y035212*
X044111Y03517*
X043687*
Y038414*
X044447*
X044516Y038428*
X044575Y038467*
X044665Y038558*
X044841*
X044848Y038553*
X044925Y038537*
X04506*
Y038439*
X044925*
X044848Y038424*
X044783Y03838*
X04474Y038315*
X044724Y038238*
X04474Y038161*
X044783Y038096*
X044804Y038083*
X044789Y038035*
X04448*
X044468Y038051*
X04441Y038095*
X044343Y038123*
X044271Y038132*
X044199Y038123*
X044132Y038095*
X044075Y038051*
X04403Y037993*
X044003Y037926*
X043993Y037854*
X044003Y037782*
X04403Y037715*
X044075Y037658*
X044132Y037613*
X044199Y037586*
X044271Y037576*
X044343Y037586*
X04441Y037613*
X044468Y037658*
X04448Y037673*
X045191*
X045205Y037671*
X04585*
X04592Y037684*
X045978Y037723*
X046017Y037782*
X046031Y037851*
Y039058*
X046888*
X046896Y039053*
X046972Y039037*
X047602*
X047679Y039053*
X047744Y039096*
X047788Y039161*
X047803Y039238*
X047788Y039315*
X047744Y03938*
X047679Y039424*
X047602Y039439*
X047468*
Y039537*
X047602*
X047679Y039553*
X047744Y039596*
X047788Y039661*
X047803Y039738*
X047788Y039815*
X047744Y03988*
X047679Y039924*
X047602Y039939*
X046972*
X046896Y039924*
X046831Y03988*
X046787Y039815*
X046772Y039738*
X046787Y039661*
X046831Y039596*
X046896Y039553*
X046972Y039537*
X047107*
Y039439*
X046972*
X046896Y039424*
X046888Y039419*
X045639*
X045632Y039424*
X045555Y039439*
X044925*
X044848Y039424*
X044843Y03942*
X044811Y039458*
X044896Y039543*
X044925Y039537*
X045555*
X045632Y039553*
X045697Y039596*
X045741Y039661*
X045756Y039738*
X045741Y039815*
X045697Y03988*
X045632Y039924*
X045555Y039939*
X044925*
X044848Y039924*
X044841Y039919*
X044835*
X044766Y039905*
X044707Y039866*
X044463Y039621*
X044424Y039563*
X04441Y039494*
Y038813*
X044372Y038775*
X043687*
Y040366*
X04368Y040397*
X043663Y040423*
X043637Y04044*
X043606Y040446*
G37*
G36*
X050021Y02973D02*
X049815D01*
Y029552*
X050021*
Y02973*
G37*
G36*
X028717Y032347D02*
X02855Y032333D01*
X028387Y032294*
X028233Y03223*
X02809Y032143*
X027963Y032034*
X027854Y031907*
X027767Y031764*
X027703Y03161*
X027664Y031447*
X027651Y03128*
X027664Y031114*
X027703Y030951*
X027767Y030796*
X027854Y030654*
X027963Y030526*
X02809Y030418*
X028233Y03033*
X028387Y030266*
X02855Y030227*
X028717Y030214*
X028884Y030227*
X029046Y030266*
X029201Y03033*
X029344Y030418*
X029471Y030526*
X029579Y030654*
X029667Y030796*
X029731Y030951*
X02977Y031114*
X029783Y03128*
X02977Y031447*
X029731Y03161*
X029667Y031764*
X029579Y031907*
X029471Y032034*
X029344Y032143*
X029201Y03223*
X029046Y032294*
X028884Y032333*
X028717Y032347*
G37*
G36*
X050021Y029452D02*
X049815D01*
Y029273*
X050021*
Y029452*
G37*
G36*
X050016Y028777D02*
X04981D01*
Y028599*
X050016*
Y028777*
G37*
G36*
Y029056D02*
X04981D01*
Y028877*
X050016*
Y029056*
G37*
%LNaddl-3*%
%LPD*%
G54D56*
X054919Y03634D02*
X054984Y036297D01*
X05506Y036283*
X05554*
Y035996*
Y035681*
Y035434*
X055217*
X055141Y035418*
X055077Y035375*
X055056Y035355*
X054785*
Y035406*
Y035444*
Y035981*
X054777*
Y036462*
X054792Y036468*
X054919Y03634*
X043581Y0388D02*
X042719D01*
X042643Y038784*
X042576Y03874*
X042531Y038673*
X042516Y038596*
Y036848*
X042318*
Y036316*
X041608Y035605*
X041592Y035611*
Y035731*
X041582Y035805*
X041552Y035876*
X041506Y035936*
X041445Y035983*
X041408Y035999*
X04141Y036008*
X041773*
Y037858*
X037826*
Y036008*
X038009*
Y035995*
Y035257*
X037561*
Y035307*
Y035345*
Y035576*
X037053*
Y035345*
Y035307*
Y03477*
X037561*
Y034846*
X038009*
Y03437*
X037533Y033895*
X036938*
Y040341*
X043581*
Y0388*
X042398Y023749D02*
X041446Y022799D01*
X040497*
Y023299*
X040516*
X040505*
X040506Y023292*
X040509Y023279*
X040541Y023231*
X040642Y02313*
X040691Y023098*
X040748Y023087*
X041274*
X041317Y023095*
X041331Y023098*
X041379Y02313*
X041563Y023314*
X041878*
Y023705*
X041938Y023765*
X042392*
X042398Y023749*
X043581Y035195D02*
X043126D01*
Y035498*
X042747*
Y035079*
Y03466*
X043126*
Y034784*
X043581*
Y033931*
X04353Y033895*
X041576*
X041563Y033914*
X041582Y03396*
X041592Y034035*
Y035008*
X042594Y03601*
X043126*
Y036848*
X042928*
Y038389*
X043581*
Y035195*
X038009Y033767D02*
Y033746D01*
X038404*
X038411Y03373*
X037721Y033041*
X037503*
X037465*
X037414*
Y033194*
X037992Y033773*
X038009Y033767*
X041554Y032758D02*
Y032534D01*
X041629*
Y031762*
X041554*
Y031725*
X041427*
Y031773*
X04089*
X040852*
X040801*
Y031997*
X040786Y032073*
X040742Y032138*
X040351Y032529*
X040357Y032545*
X040852*
X04089*
X041427*
Y032864*
X041442Y03287*
X041554Y032758*
X049505Y036005D02*
X049502Y036002D01*
X0495Y035998*
X049029Y035527*
X048986Y035462*
X048971Y035386*
Y035383*
X048916*
Y034875*
X048971*
Y03341*
X048887Y033327*
X048699*
X048679*
X048689Y033317*
Y035456*
X04925Y036018*
X049502*
X049505Y036005*
X05102Y034563D02*
X051068Y034531D01*
X051081Y034528*
X051126Y03452*
X051572*
X051768Y034325*
Y034079*
X051755Y034075*
X051747Y034086*
X051661Y034144*
X05156Y034164*
X051458Y034144*
X05137Y034085*
X051342Y034043*
X051335Y034042*
X051318*
X051275Y034107*
X051188Y034165*
X051087Y034185*
X050984Y034165*
X050897Y034107*
X05084Y03402*
X050832Y033978*
X050513*
Y034261*
X050132*
Y034334*
X050123Y034379*
X05012Y034392*
X050088Y03444*
X050065Y034462*
X050073Y034501*
X050053Y034603*
X049994Y03469*
X049908Y034747*
X049807Y034768*
X049705Y034747*
X049618Y03469*
X049561Y034603*
X04954Y034502*
X049561Y0344*
X049618Y034314*
X049678Y034273*
X049674Y034261*
X04944*
Y033914*
X04945Y033894*
X04945Y033893*
X049435Y033823*
X04945Y033751*
X049484Y033701*
Y033687*
X04945Y033637*
X049435Y033567*
X04945Y033495*
X049484Y033445*
Y033432*
X04945Y033381*
X049435Y033311*
X04945Y03324*
X049484Y033189*
Y033176*
X04945Y033126*
X049435Y033054*
X04945Y032984*
X049484Y032934*
Y03292*
X04945Y03287*
X049435Y032798*
X049441Y032769*
X049425Y032749*
X049152*
Y032752*
Y03279*
Y033008*
X049323Y033181*
X049366Y033246*
X049382Y033322*
Y034875*
X049453*
X049491*
X050028*
Y034965*
X050619*
X05102Y034563*
X038328Y025321D02*
Y025125D01*
X038355*
Y024418*
X038363Y024375*
X038366Y024361*
X038398Y024313*
X038782Y023929*
X038831Y023895*
X038844Y023894*
X038888Y023885*
X040329*
X040393Y023821*
X040387Y023806*
X040004*
X039966*
X039735*
Y023552*
Y023299*
X039966*
X040004*
X040186*
Y022799*
X03945*
X038599Y02365*
Y023992*
X038587Y024049*
X038555Y024097*
X038245Y024407*
X038198Y024439*
X038185Y024442*
X03814Y024451*
X038054*
X037914Y024591*
Y025125*
X037941*
Y025314*
X037931Y025317*
X037951Y025296*
Y025125*
X038316*
Y025302*
X038336Y025321*
X038328Y025321*
X028094Y029278D02*
X028165Y029223D01*
X028189Y029213*
Y029196*
X028165Y029186*
X028094Y029132*
X02804Y029061*
X028005Y028979*
X027993Y028889*
X028005Y028801*
X02804Y028718*
X028094Y028648*
X028165Y028593*
X028189Y028583*
Y028566*
X028165Y028556*
X028094Y028502*
X02804Y028431*
X028005Y028349*
X027993Y028259*
X028005Y028171*
X02804Y028088*
X028094Y028018*
X028165Y027963*
X028248Y027928*
X028337Y027917*
X028425Y027928*
X028508Y027963*
X028534Y027983*
X028562Y027989*
X028573Y027987*
X028602Y027943*
X028899Y027647*
X028893Y027636*
X028887Y027637*
X028717Y027652*
X028546Y027637*
X028379Y027597*
X028221Y027532*
X028075Y027443*
X027945Y027331*
X027833Y027201*
X027744Y027055*
X027679Y026897*
X027639Y02673*
X027625Y026559*
X027639Y02639*
X027679Y026223*
X027744Y026064*
X027833Y025919*
X027945Y025788*
X028075Y025677*
X028221Y025587*
X028379Y025522*
X028505Y025491*
X028507Y025479*
X028363Y025444*
X028204Y025379*
X028059Y02529*
X027928Y025178*
X027817Y025048*
X027727Y024902*
X027662Y024744*
X027622Y024577*
X027608Y024406*
X027622Y024237*
X027662Y02407*
X027727Y023911*
X027817Y023766*
X027928Y023635*
X028059Y023524*
X028204Y023434*
X028363Y023369*
X02853Y023329*
X028699Y023315*
X02887Y023329*
X029037Y023369*
X029195Y023434*
X029341Y023524*
X029471Y023635*
X029583Y023766*
X029672Y023911*
X029737Y02407*
X029777Y024237*
X029792Y024406*
X029777Y024577*
X029737Y024744*
X029672Y024902*
X029583Y025048*
X029471Y025178*
X029341Y02529*
X029195Y025379*
X029037Y025444*
X028911Y025475*
X02891Y025487*
X029053Y025522*
X029212Y025587*
X029358Y025677*
X029488Y025788*
X029599Y025919*
X029689Y026064*
X029754Y026223*
X029794Y02639*
X029808Y026559*
X029794Y02673*
X029754Y026897*
X029689Y027055*
X029599Y027201*
X029488Y027331*
X029358Y027443*
X029258Y027504*
X029261Y027516*
X030504*
Y023544*
X029514*
X029438Y023528*
X029373Y023485*
X028657Y02277*
X028635Y022774*
X028616Y022818*
X028562Y022889*
X028491Y022943*
X028409Y022978*
X02832Y02299*
X028274Y022984*
X027473Y023785*
Y028804*
X027983Y029315*
X028065*
X028094Y029278*
X043633Y028621D02*
X043681Y028589D01*
X043738Y028578*
X044328*
X044331Y028565*
X044303Y028546*
X044246Y028459*
X044225Y028358*
X044246Y028256*
X044303Y028169*
X04439Y028112*
X044459Y028098*
X044461Y028093*
X044446Y028074*
X043171*
Y028876*
X043159Y028933*
X043148Y028951*
X043127Y028982*
X042932Y029176*
X042948Y02929*
X042948Y029287*
X04296Y029293*
X043633Y028621*
X055656Y032783D02*
Y029022D01*
X055343Y028711*
X055309*
X055306Y028722*
X05536Y028759*
X055417Y028845*
X055437Y028947*
X055417Y029047*
X05542Y029042*
X05543Y029062*
X05552*
Y02982*
X054801*
Y029062*
X054912*
X054922Y029042*
X054925Y029047*
X054904Y028947*
X054925Y028845*
X054982Y028759*
X055036Y028722*
X055032Y028711*
X054576*
X05424Y029045*
X054246Y029062*
X054772*
Y02982*
X054253*
X054057Y030016*
Y03064*
X054179*
Y030436*
X054145Y030415*
X054088Y030327*
X054068Y030226*
X054088Y030124*
X054145Y030037*
X054232Y02998*
X054335Y029959*
X054436Y02998*
X054523Y030037*
X05458Y030124*
X0546Y030226*
X05458Y030327*
X054523Y030415*
X05449Y030436*
Y03064*
X054694*
Y031399*
X054053*
X054052Y031387*
X054069Y031406*
X054685*
X054728Y031414*
X054742Y031415*
X054791Y031449*
X054911Y031569*
X054927Y031563*
Y031399*
X054723*
Y03064*
X055442*
Y031399*
X055238*
Y032019*
X055409Y03219*
X055441Y032238*
X055444Y032251*
X055453Y032296*
Y032936*
X055444Y032979*
X055441Y032993*
X055445Y032986*
X055449Y03299*
X055656Y032783*
X054931Y032752D02*
Y032402D01*
X054838Y032309*
X05482Y032315*
X054819Y032326*
X054768Y032447*
X054689Y032551*
X054585Y032631*
X054464Y032681*
X054335Y032698*
X054204Y032681*
X054083Y032631*
X05398Y032551*
X0539Y032447*
X053849Y032326*
X053848Y032319*
X053832Y032308*
X053711Y032187*
X053575*
X053565Y032204*
X053573Y032216*
X053587Y032286*
X053573Y032358*
X053538Y03241*
X05354Y032402*
X05353Y032399*
X053578Y032431*
X054217Y033071*
X054612*
X054931Y032752*
X050904Y035141D02*
X050888Y035135D01*
X050792Y035231*
X050743Y035265*
X05073Y035266*
X050686Y035276*
X050028*
Y035383*
X049491*
X049487*
X049481Y035398*
X049735Y035653*
X050904*
Y035141*
X051373Y024701D02*
Y024663D01*
Y024517*
X051345*
X051322Y02455*
X051236Y024607*
X051135Y024628*
X051032Y024607*
X050945Y02455*
X050888Y024463*
X050868Y024362*
X050888Y02426*
X050945Y024174*
X051032Y024115*
X051135Y024095*
X051236Y024115*
X051322Y024173*
X051345Y024206*
X051373*
Y024126*
X051721*
X051727Y02411*
X051562Y023946*
X05031*
X050304Y023961*
X051144Y024802*
X051373*
Y024701*
X041984Y025893D02*
X041994Y025874D01*
X041986Y025862*
X041973Y025799*
X041986Y025735*
X042021Y025682*
X042076Y025645*
X042137Y025634*
X04227*
Y025618*
X042236Y025595*
X042179Y025509*
X042158Y025408*
X042179Y025306*
X042236Y025219*
X042323Y025162*
X042425Y025141*
X042526Y025162*
X042613Y025219*
X042671Y025306*
X042691Y025408*
X042671Y025509*
X042614Y025595*
X042581Y025618*
Y025634*
X042673*
X042734Y025645*
X042789Y025682*
X042796Y025693*
X042822Y025695*
X04286Y025658*
Y024784*
X042829Y024763*
X042833Y024768*
X042804*
X042808Y024764*
X042723Y024821*
X042622Y024841*
X04252Y024821*
X042435Y024763*
X042433Y024761*
X042406Y024759*
X041943Y025221*
X041894Y025255*
X04188Y025256*
X041878Y025257*
Y025364*
X041753*
Y025657*
X041988Y025893*
X041984Y025893*
%LNaddl-4*%
%LPC*%
G36*
X039062Y023783D02*
X03902Y023775D01*
X038942Y023723*
X03889Y023645*
X038881Y023602*
X039062*
Y023783*
G37*
G36*
X037257Y035857D02*
X037078D01*
Y035651*
X037257*
Y035857*
G37*
G36*
X042672Y035473D02*
X042343D01*
Y035129*
X042672*
Y035473*
G37*
G36*
X03966Y023781D02*
X039454D01*
Y023602*
X03966*
Y023781*
G37*
G36*
X039162Y023783D02*
Y023602D01*
X039343*
X039335Y023645*
X039283Y023723*
X039204Y023775*
X039162Y023783*
G37*
G36*
X03966Y023502D02*
X039454D01*
Y023324*
X03966*
Y023502*
G37*
G36*
X039062D02*
X038881D01*
X03889Y02346*
X038942Y023382*
X03902Y02333*
X039062Y023322*
Y023502*
G37*
G36*
X042672Y035029D02*
X042343D01*
Y034685*
X042672*
Y035029*
G37*
G36*
X037536Y035857D02*
X037357D01*
Y035651*
X037536*
Y035857*
G37*
G36*
X041748Y039734D02*
X039849D01*
Y037933*
X041748*
Y039734*
G37*
G36*
X039749D02*
X037851D01*
Y037933*
X039749*
Y039734*
G37*
G36*
X039343Y023502D02*
X039162D01*
Y023322*
X039204Y02333*
X039283Y023382*
X039335Y02346*
X039343Y023502*
G37*
%LNaddl-5*%
%LPD*%
G54D10*
X04402Y021624D03*
Y02182D03*
Y022017D03*
Y022214D03*
Y022411D03*
X042406Y021624D03*
Y02182D03*
Y022017D03*
Y022214D03*
Y022411D03*
Y026587D03*
Y02639D03*
Y026193D03*
Y025996D03*
Y025799D03*
X04402Y026587D03*
Y02639D03*
Y026193D03*
Y025996D03*
Y025799D03*
G54D11*
X045137Y022059D03*
X045687D03*
X040192Y02511D03*
X039642D03*
X041047D03*
X041597D03*
X03971Y023552D03*
X04026D03*
X041597Y023568D03*
X041047D03*
X04921Y028827D03*
X04976D03*
X037759Y032787D03*
X037209D03*
X042385Y031508D03*
X041835D03*
X041146Y03152D03*
X040596D03*
X039571Y031508D03*
X039021D03*
X037151Y031503D03*
X037701D03*
X035987Y02639D03*
X035437D03*
X034337Y024816D03*
X033787D03*
X042466Y02782D03*
X043016D03*
X045222Y036626D03*
X045772D03*
X042385Y032787D03*
X041835D03*
X040596Y032799D03*
X041146D03*
X051219Y022862D03*
X051769D03*
X049747Y035129D03*
X049197D03*
X049158Y036505D03*
X049708D03*
X049765Y029502D03*
X049215D03*
X047255Y036993D03*
X047805D03*
X045222Y035079D03*
X045772D03*
X050635Y02952D03*
X051185D03*
G54D12*
X047287Y038238D03*
X036658Y022293D03*
G54D13*
X04524Y039738D03*
Y039238D03*
Y038738D03*
Y038238D03*
X047287Y039738D03*
Y039238D03*
Y038738D03*
X034611Y023793D03*
Y023293D03*
Y022793D03*
Y022293D03*
X036658Y023793D03*
Y023293D03*
Y022793D03*
G54D14*
X05074Y026298D03*
X051129Y025909D03*
X049866Y027132D03*
X050255Y026743D03*
G54D15*
X042722Y035079D03*
Y036429D03*
G54D16*
X053047Y030752D03*
Y031008D03*
Y031264D03*
Y03152D03*
Y031776D03*
Y032031D03*
Y032287D03*
Y032543D03*
Y032799D03*
Y033055D03*
Y033311D03*
Y033567D03*
Y033823D03*
Y034079D03*
X049976Y030752D03*
Y031008D03*
Y031264D03*
Y03152D03*
Y031776D03*
Y032031D03*
Y032287D03*
Y032543D03*
Y032799D03*
Y033055D03*
Y033311D03*
Y033567D03*
Y033823D03*
G54D17*
X049976Y034079D03*
G54D18*
X05148Y035607D03*
X053252D03*
G54D19*
X054412Y029441D03*
X05516D03*
X055083Y03102D03*
X054335D03*
G54D20*
X056087Y035543D03*
Y036488D03*
Y035858D03*
Y036173D03*
Y035228D03*
G54D21*
X05776Y033919D03*
Y037797D03*
G54D22*
X056087Y033919D03*
Y037797D03*
G54D23*
X045003Y031855D03*
X04478Y031632D03*
X044335Y031187D03*
X044112Y030964D03*
X046896Y029071D03*
X044558Y031409D03*
X046451Y028625D03*
X047119Y029293D03*
X047564Y029739D03*
X047787Y029962D03*
X043889Y030741D03*
X046673Y028848D03*
X047342Y029516D03*
X046228Y028403D03*
X045226Y032077D03*
X045448Y0323D03*
G54D24*
X046228Y0323D03*
X047787Y030741D03*
X047119Y031409D03*
X045448Y028403D03*
X045226Y028625D03*
X04478Y029071D03*
X046896Y031632D03*
X044558Y029294D03*
X047564Y030964D03*
X046673Y031855D03*
X047342Y031187D03*
X045003Y028848D03*
X044335Y029516D03*
X044112Y029739D03*
X046451Y032077D03*
G54D25*
X043889Y029962D03*
G54D26*
X048898Y033046D03*
Y032496D03*
X054531Y0357D03*
Y03515D03*
X036913Y025902D03*
Y026451D03*
X037307Y035051D03*
Y035601D03*
X054138Y037159D03*
Y037709D03*
X056598Y027157D03*
Y026607D03*
X051627Y024407D03*
Y024957D03*
X055213Y024417D03*
Y024967D03*
G54D27*
X051961Y027722D03*
X052711D03*
X052341Y028522D03*
G54D28*
X037759Y025406D03*
X038511D03*
X038134D03*
X038511Y026425D03*
X037759D03*
G54D29*
X048797Y023618D03*
X05005Y024871D03*
X049911Y024732D03*
X046403Y026291D03*
X047099Y026987D03*
X047238Y027126D03*
X047377Y027265D03*
X047517Y027404D03*
X048936Y023757D03*
X049354Y024175D03*
X049215Y024036D03*
X04696Y026847D03*
X046821Y026708D03*
X046681Y026569D03*
X046542Y02643D03*
X046264Y026152D03*
X046125Y026012D03*
X045985Y025873D03*
X049493Y024314D03*
X048658Y023479D03*
X049076Y023897D03*
X049772Y024593D03*
X049632Y024453D03*
G54D30*
X049215Y026708D03*
X049493Y02643D03*
X049632Y026291D03*
X046821Y024036D03*
X046403Y024453D03*
X046125Y024732D03*
X048797Y027126D03*
X048936Y026987D03*
X049772Y026152D03*
X045985Y024871D03*
X048519Y027404D03*
X048658Y027265D03*
X046264Y024593D03*
X046542Y024314D03*
X046681Y024175D03*
X04696Y023897D03*
X049076Y026847D03*
X049354Y026569D03*
X047099Y023757D03*
X047238Y023618D03*
X049911Y026012D03*
X047377Y023479D03*
X047517Y02334D03*
X05005Y025873D03*
G54D31*
X048519Y02334D03*
G54D32*
X039799Y037883D03*
G54D33*
X041299Y034883D03*
X040799D03*
X040299D03*
X039799D03*
X039299D03*
X038799D03*
G54D34*
X038299Y034883D03*
G54D35*
X057484Y026503D03*
Y027251D03*
G54D36*
X045448Y028403D02*
X045602Y028557D01*
Y029126*
X045253Y029475D02*
X045602Y029126D01*
X045253Y029475D02*
Y029715D01*
X04538Y028773D02*
Y029098D01*
X045076Y029402D02*
X04538Y029098D01*
X044525Y027919D02*
X04538Y028773D01*
X045076Y029402D02*
Y029428D01*
X044765Y029739D02*
X045076Y029428D01*
X033072Y022435D02*
X033931Y023293D01*
X031213Y022435D02*
X033072D01*
X030395Y021617D02*
X031213Y022435D01*
X040192Y02511D02*
X041204Y024098D01*
X037759Y026425D02*
Y027079D01*
X039924Y02974D02*
X040847Y028817D01*
X039488Y02974D02*
X039924D01*
X043016Y02782D02*
Y028874D01*
X0426Y02929D02*
X043016Y028874D01*
X042446Y02929D02*
X0426D01*
X04402Y022786D02*
X044251Y023018D01*
X047662Y021524D02*
X048519Y022381D01*
X045672Y021524D02*
X047662D01*
X045137Y022059D02*
X045672Y021524D01*
X04402Y02182D02*
X044861D01*
X048519Y022381D02*
Y02295D01*
X04402Y022017D02*
X045095D01*
X04402Y021176D02*
X044406Y020789D01*
X04402Y021176D02*
Y021624D01*
X048571Y023287D02*
X048609Y023249D01*
X048519Y02334D02*
X048571Y023287D01*
X048519Y02295D02*
X048571Y023003D01*
Y023287*
X047346Y022998D02*
X047695Y02265D01*
X049684Y022706D02*
X05043D01*
X050496Y022639*
X049552Y023142D02*
X050494D01*
X048936Y023757D02*
X049552Y023142D01*
X048797Y023593D02*
X049684Y022706D01*
X039386Y022643D02*
X040341D01*
X038444Y023586D02*
X039386Y022643D01*
X053338Y028266D02*
X053437D01*
X053082Y028522D02*
X053338Y028266D01*
X052341Y028522D02*
X053082D01*
X033429Y026561D02*
X033665Y026797D01*
X033429Y024339D02*
Y026561D01*
Y024339D02*
X033543Y024224D01*
X03393Y022793D02*
X034611D01*
X042386Y024559D02*
X042606D01*
X042622Y024575*
X043311Y026019D02*
X043682Y02639D01*
X043311Y025297D02*
Y026019D01*
Y025297D02*
X043564Y025044D01*
X043587Y025996D02*
X04402D01*
X043488Y025898D02*
X043587Y025996D01*
X043488Y025425D02*
Y025898D01*
Y025425D02*
X043682Y025231D01*
X041597Y023644D02*
X041874Y023921D01*
X047422Y024421D02*
X047489D01*
X047408Y024407D02*
X047422Y024421D01*
X047408Y024407D02*
X047454Y024362D01*
X047911Y024082D02*
X047957Y024036D01*
X047721Y024082D02*
X047911D01*
X047454Y024112D02*
Y024362D01*
X047063Y024278D02*
Y024636D01*
X046821Y024036D02*
X047063Y024278D01*
X048556Y026575D02*
X048803D01*
X049076Y026847*
X046816Y033189D02*
X047622Y033994D01*
X046816Y032414D02*
Y033189D01*
X046297Y031894D02*
X046816Y032414D01*
X046638Y032655D02*
Y033261D01*
X047031Y033654*
Y033969*
X049186Y036173D02*
X049708D01*
X048533Y035521D02*
X049186Y036173D01*
X048533Y029927D02*
Y035521D01*
X047603Y030134D02*
X047787Y02995D01*
X047079Y030134D02*
X047603D01*
X046815Y030398D02*
X047079Y030134D01*
X03524Y024421D02*
X035316Y024345D01*
Y022836D02*
Y024345D01*
X034774Y022293D02*
X035316Y022836D01*
X049807Y036273D02*
Y036567D01*
X049708Y036173D02*
X049807Y036273D01*
X047099Y023757D02*
X047454Y024112D01*
X048661Y023479D02*
X048829Y023311D01*
X048658Y023479D02*
X048661D01*
X047238Y023618D02*
X047721Y024082D01*
X038511Y024421D02*
Y025406D01*
X038138Y024295D02*
X038444Y02399D01*
X03799Y024295D02*
X038138D01*
X037759Y024527D02*
X03799Y024295D01*
X037759Y024527D02*
Y025406D01*
X042722Y035079D02*
X042811Y03499D01*
X048519Y02334D02*
X048616Y023243D01*
X055604Y033388D02*
X056008Y032984D01*
X055449Y033211D02*
X055811Y032848D01*
X048797Y027126D02*
X0488D01*
X049768Y025844D02*
X049911Y025987D01*
Y026012*
X049354Y026569D02*
X049379D01*
X045222Y034855D02*
X045714Y034362D01*
X045222Y034855D02*
Y03515D01*
X045772Y035079D02*
X045898Y034953D01*
X046569*
X047287Y034726D02*
Y034953D01*
X040246Y026291D02*
X04085Y026896D01*
X03954Y026291D02*
X040246D01*
X053776Y032031D02*
X053941Y032197D01*
X053047Y032031D02*
X053776D01*
X046092Y023864D02*
X046542Y024314D01*
X05488Y039057D02*
X054955Y039132D01*
Y039502*
X055356Y039904*
X055707*
X05613Y03948*
X056532*
X054138Y037709D02*
X055532Y039102D01*
Y03948*
X03558Y026797D02*
X035987Y02639D01*
X033665Y026797D02*
X03558D01*
X033543Y024224D02*
X03418D01*
X034611Y023793*
X03524Y024421D02*
Y025012D01*
X033931Y023293D02*
X034611D01*
X037922Y023774D02*
X038026Y023669D01*
X036678Y023774D02*
X037922D01*
X032307Y028457D02*
Y02868D01*
X031697Y02929D02*
X032307Y02868D01*
X029197Y02929D02*
X031697D01*
X035142Y025012D02*
X03524D01*
X034945Y024815D02*
X035142Y025012D01*
X056441Y034724D02*
X056795Y035079D01*
Y035445*
D01*
X056697Y035543D02*
X056795Y035445D01*
X056087Y035543D02*
X056697D01*
X056972Y035006D02*
Y035563D01*
X056677Y035858D02*
X056972Y035563D01*
X056087Y035858D02*
X056677D01*
X056469Y034502D02*
X056972Y035006D01*
X05527Y034724D02*
X056441D01*
X055082Y034536D02*
X05527Y034724D01*
Y034474D02*
X055298Y034502D01*
X056469*
X055122Y029502D02*
X055171Y029452D01*
X054335Y030226D02*
Y03102D01*
X055171Y028995D02*
Y029452D01*
X053047Y031008D02*
X053547D01*
X053941Y032197D02*
X054335D01*
X053047Y030752D02*
X053229D01*
X053547Y029244D02*
Y030433D01*
X053229Y030752D02*
X053547Y030433D01*
Y031008D02*
X053724Y030831D01*
Y029343D02*
Y030831D01*
X053047Y032799D02*
X053096Y032848D01*
X053487*
X054115Y033476*
X055082Y0334D02*
Y034536D01*
X05527Y033463D02*
X055345Y033388D01*
X055604*
X05527Y033463D02*
Y034474D01*
X055271Y033211D02*
X055449D01*
X046362Y036626D02*
X046559Y036823D01*
X045772Y036626D02*
X046362D01*
X042406Y026193D02*
D01*
X042068D02*
X042406D01*
X041597Y025722D02*
X042068Y026193D01*
X049076Y025734D02*
X049632Y026291D01*
X042406Y025996D02*
X042743D01*
X043016Y025723*
X049976Y034079D02*
Y034332D01*
X049807Y034501D02*
X049976Y034332D01*
X044076Y02639D02*
X044357D01*
X044689Y026847D02*
X044753D01*
X044648Y026193D02*
X044689Y026152D01*
X04402Y026193D02*
X044648D01*
X043682Y02639D02*
X04402D01*
X044514Y026629D02*
X044701Y026815D01*
X044753Y026847*
X044357Y02639D02*
X044514Y026547D01*
Y026629*
X041736Y02639D02*
X042406D01*
X043803Y026587D02*
Y027404D01*
Y026587D02*
X04402D01*
X049215Y026683D02*
Y026708D01*
X049072Y02654D02*
X049215Y026683D01*
X049072Y026312D02*
Y02654D01*
X041597Y02511D02*
Y025722D01*
Y02511D02*
X041835D01*
X042386Y024559*
X040192Y02511D02*
X040194D01*
X044177Y032166D02*
X044239Y032228D01*
X044177Y032295D02*
X044237D01*
X044239Y032228D02*
Y032293D01*
X044237Y032295D02*
X044239Y032293D01*
X04085Y026896D02*
Y028163D01*
X047872Y029431D02*
X048037D01*
X048107Y029237D02*
X048409Y029539D01*
X048222Y029031D02*
X048533Y029343D01*
X047517Y027404D02*
X047656Y027265D01*
X04484Y030129D02*
X045253Y029715D01*
X044177Y031758D02*
Y032166D01*
Y031758D02*
X044558Y031377D01*
X047827Y029031D02*
X048222D01*
X047748Y029237D02*
X048107D01*
X046228Y032245D02*
X046638Y032655D01*
X046974Y028994D02*
X047068Y0289D01*
Y028846D02*
X047122Y0289D01*
X04741*
X047748Y029237*
X047515Y028719D02*
X047827Y029031D01*
X047191Y028719D02*
X047515D01*
X046831Y028358D02*
X047191Y028719D01*
X043809Y029888D02*
X04405Y030129D01*
X04484*
X044263Y03081D02*
X044549Y030524D01*
X045003*
X045253Y032499D02*
Y032682D01*
X046815Y030398D02*
Y030675D01*
X047172Y031032*
X042996Y027919D02*
X044525D01*
X044252Y029445D02*
X044546Y029739D01*
X044765*
X047564D02*
X047872Y029431D01*
X048134Y026882D02*
X048275D01*
X048658Y027265*
X05005Y025873D02*
X050496Y025427D01*
Y025406D02*
Y025427D01*
X049433Y025425D02*
X049591Y025583D01*
X047381Y026821D02*
X047642Y02656D01*
X047381Y026821D02*
Y026983D01*
X049275Y025425D02*
X049433D01*
X048793Y025474D02*
X04902Y025701D01*
X049147Y025297D02*
X049275Y025425D01*
X048797Y023593D02*
Y023618D01*
X043016Y024574D02*
Y025723D01*
X045716Y024323D02*
X046125Y024732D01*
X045673Y024323D02*
X045716D01*
X053047Y032543D02*
X05347D01*
X054153Y033226*
X054677*
X055087Y032817*
X054683Y031561D02*
X054906Y031783D01*
X053974Y031561D02*
X054683D01*
X053765Y031352D02*
X053974Y031561D01*
X053765Y031041D02*
Y031352D01*
Y031041D02*
X053902Y030904D01*
Y029952D02*
Y030904D01*
Y029952D02*
X054412Y029441D01*
X055082Y0334D02*
X055271Y033211D01*
X054115Y033476D02*
X054755D01*
X055083Y03102D02*
Y032084D01*
X054906Y032157D02*
X055087Y032338D01*
Y032817*
X054906Y031783D02*
Y032157D01*
X054755Y033476D02*
X055298Y032934D01*
Y032299D02*
Y032934D01*
X055083Y032084D02*
X055298Y032299D01*
X047695Y02265D02*
X047848D01*
X047937Y022561*
Y022551D02*
Y022561D01*
X049976Y033823D02*
X051012D01*
X051087Y033912D02*
Y033919D01*
X051012Y033823D02*
X051087Y033919D01*
X043882Y0316D02*
Y031896D01*
X045378Y032807D02*
Y032848D01*
X045253Y032682D02*
X045378Y032807D01*
X044866Y032459D02*
X045314Y032011D01*
X044866Y032459D02*
Y032833D01*
X049118Y029539D02*
X049217Y029441D01*
X048703Y029343D02*
X049217Y028829D01*
X048533Y029343D02*
X048703D01*
X048409Y029539D02*
X049118D01*
X046815Y030051D02*
Y030398D01*
Y030051D02*
X047342Y029525D01*
X04741Y032231D02*
Y032687D01*
Y032231D02*
X047922Y03172D01*
Y031311D02*
Y03172D01*
X047492Y030881D02*
X047922Y031311D01*
X04741Y032687D02*
X048033Y033309D01*
X047723Y030702D02*
X048107Y031086D01*
X045714Y034362D02*
X0478D01*
X048033Y034129*
Y033309D02*
Y034129D01*
X048037Y029431D02*
X048533Y029927D01*
X048107Y031086D02*
Y031785D01*
X047587Y032305D02*
X048107Y031785D01*
X047587Y032305D02*
Y032613D01*
X04821Y033236*
Y034203*
X047873Y034539D02*
X04821Y034203D01*
X047474Y034539D02*
X047873D01*
X047287Y034726D02*
X047474Y034539D01*
X045253Y032499D02*
X045527Y032225D01*
X046451Y02857D02*
X046662Y028358D01*
X046831*
X046451Y02857D02*
Y028625D01*
X045253Y029715D02*
X046132D01*
X046815Y030398*
X043882Y0316D02*
X044335Y031147D01*
X045665Y024315D02*
X045673Y024323D01*
X042406Y026587D02*
Y026743D01*
X042466Y026803*
Y027079*
X042457Y027088D02*
X042466Y027079D01*
X042425Y025399D02*
Y02578D01*
X042406Y025799D02*
X042425Y02578D01*
X047289Y036478D02*
Y036959D01*
X047255Y036993D02*
X047289Y036959D01*
X049747Y03512D02*
X050684D01*
X051129Y034676*
X051637*
X051923Y03439*
X05156Y033641D02*
Y033898D01*
X049976Y033567D02*
X051486D01*
D01*
X05156Y033641D01*
X051923Y033423D02*
Y03439D01*
X05152Y033019D02*
X051923Y033423D01*
X05152Y032266D02*
X052Y031785D01*
X053037*
X05152Y032266D02*
Y033019D01*
X049976Y033055D02*
X050743D01*
X050877Y032787D02*
Y032921D01*
X050743Y033055D02*
X050877Y032921D01*
X041597Y023568D02*
Y023644D01*
X04026Y023552D02*
X040341Y023471D01*
X038511Y024421D02*
X038891Y024041D01*
X040394*
X040654Y023781*
Y02334D02*
Y023781D01*
Y02334D02*
X040751Y023243D01*
X041272*
X041597Y023568*
X040341Y022643D02*
Y023471D01*
X038444Y023586D02*
Y02399D01*
X048829Y023109D02*
Y023311D01*
Y023109D02*
X048895Y023043D01*
X049848Y023473D02*
X049884Y02351D01*
X048724Y025965D02*
X049072Y026312D01*
X053312Y037709D02*
X054138D01*
X048365Y037369D02*
X052972D01*
X053312Y037709*
X034734Y024815D02*
X034945D01*
X034733Y024816D02*
X034734Y024815D01*
X034338D02*
X034734D01*
X034337Y024816D02*
X034338Y024815D01*
X048823Y038201D02*
X0493Y037723D01*
X047935Y036939D02*
X048365Y037369D01*
X0493Y037723D02*
X052623D01*
X053956Y039057*
X05488*
X056008Y028904D02*
Y032984D01*
X055811Y028958D02*
Y032848D01*
X02918Y021617D02*
X030395D01*
X02832Y021387D02*
X028568D01*
X028979Y020976*
X030891*
X031897Y021026D02*
X032162D01*
X03393Y022793*
X030891Y020976D02*
X031928D01*
X056663Y021524D02*
X057382Y022243D01*
X055462Y028358D02*
X056008Y028904D01*
X053724Y029343D02*
X054512Y028555D01*
X055408*
X055811Y028958*
X053547Y029244D02*
X054433Y028358D01*
X055462*
X054152Y027839D02*
X054153Y027838D01*
X052688Y027771D02*
X054153D01*
X05272Y027728D02*
X052763Y027669D01*
X052688Y027771D02*
X05272Y027728D01*
X048519Y027404D02*
X048808Y027693D01*
X050764*
X04085Y028163D02*
X041313Y028625D01*
Y028986*
X042215Y029888*
X04085Y028817D02*
X04214Y030106D01*
X057421Y027251D02*
X057484D01*
X050764Y027693D02*
X051109Y027348D01*
X054207D02*
X054807Y027947D01*
X056724*
X057421Y027251*
X056206Y02755D02*
X056598Y027157D01*
X055446Y02755D02*
X056206D01*
X050494Y023142D02*
X050773Y022862D01*
X051287*
X0515Y027724D02*
X051958D01*
X052211Y027348D02*
X052213Y027349D01*
X05246*
X052461Y027348*
X054207*
X051109D02*
X052211D01*
X051627Y024981D02*
X052951Y026305D01*
X054872Y025308D02*
X055213Y024967D01*
X049462Y02351D02*
X049884D01*
X049076Y023897D02*
X049462Y02351D01*
X054872Y025308D02*
Y025406D01*
Y026305*
X052122Y024763D02*
X052765Y025406D01*
X054872*
X050255Y026743D02*
X050295D01*
X05074Y026298*
X049772Y026149D02*
Y026152D01*
X049591Y025968D02*
X049772Y026149D01*
X049591Y025583D02*
Y025968D01*
X049911Y026012D02*
Y026037D01*
X050054Y02618*
Y026541*
X050255Y026743*
X051325Y026106D02*
Y026847D01*
X051129Y025909D02*
X051325Y026106D01*
X05108Y024957D02*
X051627D01*
X051135Y024362D02*
X051581D01*
X049354Y024175D02*
X049497Y024032D01*
X050155*
X05108Y024957*
X049215Y024036D02*
X04946Y02379D01*
X049761*
X049766Y023796*
X050003*
X050008Y02379*
X055213Y024417D02*
X057413D01*
X057484Y024346*
X050008Y02379D02*
X051627D01*
X052122Y024286*
Y024763*
X042618Y030106D02*
X043814Y02891D01*
X042215Y029888D02*
X042586D01*
X043741Y028733*
X04214Y030106D02*
X042618D01*
X044174Y02891D02*
X044558Y029294D01*
X044481Y028733D02*
X04478Y029032D01*
X043741Y028733D02*
X044481D01*
X043814Y02891D02*
X044174D01*
X051837Y022266D02*
Y022862D01*
X046891Y022824D02*
Y022989D01*
X04738Y023478*
X047346Y022998D02*
Y02317D01*
X047517Y02334*
X046403Y023535D02*
Y023897D01*
X046681Y024175*
X04402Y022411D02*
Y022786D01*
X040341Y022643D02*
X041512D01*
X042612Y023744*
X043564Y024433D02*
Y025044D01*
X041204Y024098D02*
X043229D01*
X043564Y024433*
X044995Y025474D02*
X048793D01*
X045085Y025297D02*
X049147D01*
X041874Y023921D02*
X043442D01*
X044995Y025474*
X042612Y023744D02*
X043531D01*
X045085Y025297*
X042855Y023552D02*
X043613D01*
X044932Y024871*
X045985*
X034611Y022293D02*
X034774D01*
X034611D02*
X035747Y021158D01*
X036286*
X036744Y021615*
X040918*
X042855Y023552*
X036658Y022293D02*
X036792D01*
X037033Y022052*
X037941*
X048004Y021524D02*
X056663D01*
X044861Y02182D02*
X045344Y021337D01*
X047817*
X048004Y021524*
G54D37*
X056402Y026607D02*
X057379D01*
X03071Y027722D02*
X032304D01*
X029116D02*
X03071D01*
X035864Y024118D02*
X036913Y025167D01*
X035864Y023102D02*
Y024118D01*
Y023102D02*
X036173Y022793D01*
X036658*
X04522Y035655D02*
X047571D01*
X044867Y035303D02*
X04522Y035655D01*
X044867Y034537D02*
Y035303D01*
X043117Y032787D02*
X044867Y034537D01*
X042385Y032787D02*
X043117D01*
X035898Y025902D02*
X036913D01*
X035437Y026362D02*
X035898Y025902D01*
X035437Y026362D02*
Y02639D01*
X042811Y03499D02*
X044266D01*
X051874Y03152D02*
X053047D01*
X054138Y03515D02*
X054531D01*
X05368Y035607D02*
X054138Y03515D01*
X053252Y035607D02*
X05368D01*
X051229Y035858D02*
X05148Y035607D01*
X045346Y039238D02*
X047287D01*
X04585Y037851D02*
Y039185D01*
X045205Y037851D02*
X04585D01*
X045205D02*
Y037854D01*
X039276Y03062D02*
Y030622D01*
X039571Y030917*
Y031508D02*
Y031657D01*
Y030917D02*
Y031508D01*
Y031657D02*
X039791Y031878D01*
X036761Y022806D02*
X037701D01*
X035438Y030879D02*
X036173D01*
X037209Y03328D02*
X038291Y034362D01*
X037209Y031606D02*
Y03328D01*
X036482Y030879D02*
X037209Y031606D01*
X039791Y032799D02*
X040596D01*
X039791Y031878D02*
Y032799D01*
X040596Y03152D02*
Y031995D01*
X039791Y032799D02*
X040596Y031995D01*
X038602Y029947D02*
X039276Y03062D01*
X039791Y032799D02*
Y034657D01*
X04885Y032448D02*
X048921Y032376D01*
X038597Y027798D02*
Y028937D01*
X044591Y038738D02*
Y039494D01*
X044835Y039738*
X04524*
X034665Y030107D02*
X035438Y030879D01*
X036173D02*
X036482D01*
X048921Y031803D02*
Y032376D01*
X048939Y032543D02*
X049976D01*
X048898Y032496D02*
X048945Y032543D01*
X033961Y02639D02*
X035437D01*
X053047Y033311D02*
Y033567D01*
X044318Y037854D02*
X045205D01*
X047287Y039238D02*
Y039738D01*
X041291Y033823D02*
Y034998D01*
X042722Y036429*
Y038594*
X044447D02*
X044591Y038738D01*
X042722Y038594D02*
X044447D01*
X044591Y038738D02*
X04524D01*
Y038238D02*
Y038738D01*
X055063Y036488D02*
X056087D01*
X054728Y036823D02*
X055063Y036488D01*
X038291Y034362D02*
Y034851D01*
X037307Y035051D02*
X038091D01*
X039791Y034851D02*
Y037851D01*
X038602Y028947D02*
Y029947D01*
X02875Y028088D02*
X029116Y027722D01*
X02875Y028088D02*
D01*
Y028432*
X028337Y028845D02*
X02875Y028432D01*
X028337Y028845D02*
Y02889D01*
X034193Y030024D02*
X034663Y030494D01*
X034193Y029356D02*
Y030024D01*
X033665Y028829D02*
X034193Y029356D01*
X034663Y030547D02*
Y033952D01*
X035389Y034014D02*
X03545Y033952D01*
X027268Y0237D02*
X02832Y022647D01*
X027268Y0237D02*
Y02889D01*
X027898Y02952*
X028337*
X032499Y030995D02*
X033665Y029829D01*
X031365Y031047D02*
X032499D01*
X030251Y029933D02*
X031365Y031047D01*
X02875Y029933D02*
X030251D01*
X028337Y02952D02*
X02875Y029933D01*
X034665Y028829D02*
Y029829D01*
Y030107*
X053047Y033311D02*
D01*
X042259Y02783D02*
X042269Y02782D01*
X050635Y02952D02*
Y029856D01*
X05089Y030111*
X05148*
X038791Y03382D02*
Y034851D01*
X037759Y032787D02*
X038791Y03382D01*
X039291Y032959D02*
Y034851D01*
X039021Y032689D02*
X039291Y032959D01*
X039021Y031508D02*
Y032689D01*
X040291Y033681D02*
Y034851D01*
Y033681D02*
X041146Y032827D01*
Y032799D02*
Y032827D01*
X040791Y033812D02*
Y034851D01*
X041291Y033823D02*
X041547Y033567D01*
X054531Y03515D02*
X055142D01*
X05522Y035228*
X056087*
X054571Y036665D02*
X054728Y036823D01*
X054571Y035739D02*
Y036665D01*
X054531Y0357D02*
X054571Y035739D01*
X041441Y02783D02*
X042259D01*
X036913Y025167D02*
Y025902D01*
X044271Y036626D02*
X045222D01*
X040791Y033812D02*
X041835Y032769D01*
X041146Y03152D02*
X041748D01*
X041835Y031606*
Y032769*
X041547Y033567D02*
X041813D01*
X04241Y032969*
Y032813D02*
Y032969D01*
X042385Y031508D02*
Y032787D01*
X051874Y031508D02*
Y03152D01*
X052587Y033311D02*
X053047D01*
X04461Y032247D02*
X045003Y031855D01*
X04461Y032247D02*
Y032294D01*
X044492Y028358D02*
X044982Y028848D01*
X048898Y033046D02*
X049176Y033325D01*
Y035384D02*
X04965Y035858D01*
X051229D01*
X049176Y033325D02*
Y035384D01*
X054728Y036823D02*
Y037159D01*
X052437Y033033D02*
Y033161D01*
X052587Y033311*
X052125Y032672D02*
Y032721D01*
X052437Y033033*
X052188Y033302D02*
Y0349D01*
X05148Y035607D02*
X052188Y0349D01*
X049976Y032543D02*
X050565D01*
X050929Y032029D02*
Y032179D01*
X050565Y032543D02*
X050929Y032179D01*
X051769Y032883D02*
X052188Y033302D01*
X052125Y032672D02*
X05251Y032287D01*
X053047*
X05215Y032012D02*
X052567D01*
X051769Y032537D02*
Y032883D01*
Y032537D02*
X052142Y032164D01*
Y03202D02*
Y032164D01*
X038886Y032689D02*
X039021D01*
X037701Y031503D02*
X038886Y032689D01*
X054138Y037159D02*
X054728D01*
X047287Y038238D02*
Y038738D01*
X052392Y036566D02*
X053997D01*
X039642Y024453D02*
Y02511D01*
X033787Y024815D02*
Y026216D01*
X033961Y02639*
X032304Y027722D02*
X032307Y027719D01*
X032698Y027738D02*
X035393D01*
X037602Y029947*
X032304Y027722D02*
X032681D01*
X032698Y027738*
X02832Y022017D02*
X028767Y022464D01*
Y022589*
X029517Y023339*
X03071*
Y027722*
X038134Y025406D02*
Y02695D01*
X038263Y027079*
X047571Y035655D02*
X048895Y036979D01*
X051979*
X052392Y036566*
X0361Y019877D02*
D01*
X036085Y019973*
X036063Y020068*
X036035Y020162*
X036001Y020253*
X03596Y020341*
X035914Y020427*
X035861Y020509*
X035803Y020587*
X035739Y020661*
X035671Y020731*
X035597Y020795*
X03552Y020854*
X035438Y020908*
X035353Y020956*
X035265Y020998*
X035174Y021033*
X035081Y021062*
X034986Y021085*
X03489Y0211*
X034793Y02111*
X034695Y021112*
X034598Y021107*
X034501Y021096*
X034405Y021078*
X034311Y021053*
X034219Y021022*
X034129Y020985*
X034041Y020941*
X033957Y020891*
X033877Y020836*
X033801Y020775*
X033729Y020709*
X033662Y020638*
X033601Y020562*
X033544Y020483*
X033493Y020399*
X033449Y020313*
X03341Y020223*
X033378Y020131*
X033352Y020037*
X033333Y019941*
X033327Y0199*
X05219Y019906D02*
D01*
X052173Y020002*
X05215Y020097*
X052121Y02019*
X052085Y020281*
X052043Y020369*
X051995Y020454*
X051941Y020536*
X051881Y020613*
X051816Y020686*
X051746Y020755*
X051672Y020818*
X051594Y020876*
X051511Y020929*
X051425Y020975*
X051336Y021016*
X051245Y02105*
X051151Y021077*
X051055Y021098*
X050959Y021113*
X050861Y02112*
X050764Y021121*
X050666Y021115*
X050569Y021102*
X050473Y021083*
X050379Y021056*
X050287Y021024*
X050198Y020985*
X050111Y02094*
X050028Y020888*
X049948Y020832*
X049873Y020769*
X049802Y020702*
X049736Y02063*
X049675Y020553*
X04962Y020473*
X04957Y020388*
X049527Y020301*
X04949Y020211*
X049459Y020118*
X049434Y020023*
X049417Y019929*
X0494Y039257D02*
D01*
X049414Y03916*
X049436Y039065*
X049464Y038971*
X049498Y03888*
X049539Y038792*
X049585Y038706*
X049638Y038624*
X049696Y038546*
X04976Y038472*
X049828Y038402*
X049902Y038338*
X049979Y038279*
X050061Y038225*
X050146Y038177*
X050234Y038135*
X050325Y0381*
X050418Y038071*
X050513Y038048*
X050609Y038033*
X050706Y038023*
X050804Y038021*
X050901Y038026*
X050998Y038037*
X051094Y038055*
X051188Y03808*
X05128Y038111*
X05137Y038148*
X051458Y038192*
X051542Y038242*
X051622Y038297*
X051698Y038358*
X05177Y038424*
X051837Y038495*
X051898Y038571*
X051955Y03865*
X052006Y038734*
X05205Y03882*
X052089Y03891*
X052121Y039002*
X052147Y039096*
X052166Y039192*
X052174Y039234*
X033361Y0391D02*
D01*
X033384Y039006*
X033414Y038914*
X03345Y038825*
X033493Y038739*
X033541Y038655*
X033595Y038575*
X033655Y0385*
X033719Y038428*
X033789Y038361*
X033863Y0383*
X033941Y038243*
X034023Y038192*
X034108Y038147*
X034196Y038108*
X034287Y038075*
X034379Y038049*
X034474Y038029*
X034569Y038016*
X034665Y038009*
X034762Y03801*
X034858Y038017*
X034953Y03803*
X035047Y03805*
X03514Y038077*
X035231Y03811*
X035318Y03815*
X035403Y038195*
X035485Y038246*
X035563Y038303*
X035637Y038365*
X035706Y038432*
X03577Y038504*
X035829Y03858*
X035883Y03866*
X035931Y038744*
X035973Y038831*
X036009Y03892*
X036039Y039012*
X036062Y039105*
X03607Y039147*
X02657Y018497D02*
Y040607D01*
X02655Y018477D02*
X02657Y018497D01*
X02655Y018477D02*
X03333D01*
Y018497D02*
Y019837D01*
X0361Y018477D02*
Y019837D01*
Y018477D02*
X04942D01*
Y019887*
X05219Y018517D02*
Y019887D01*
Y018517D02*
X05892D01*
X05889D02*
X05892Y018487D01*
Y040627*
X05893Y040637*
X05216D02*
X05893D01*
X05216Y039167D02*
Y040647D01*
X04941Y039167D02*
X04942Y039157D01*
X04941Y039167D02*
Y040627D01*
X0494D02*
X04945Y040577D01*
X03607Y040627D02*
X0494D01*
X03607Y039137D02*
Y040657D01*
X03334Y039097D02*
Y040607D01*
X02659D02*
X03334D01*
G54D38*
X052268Y030964D02*
X052567Y031264D01*
X052268Y029468D02*
Y030964D01*
X052197Y029468D02*
X052268D01*
X051185D02*
X052197D01*
X052268Y029398*
X052169Y029496D02*
X052197Y029468D01*
X049976Y033311D02*
X050016Y03335D01*
X05042*
X050448Y033378*
X051735Y031173D02*
X052013D01*
X052567Y031264D02*
X053047D01*
X052013Y031173D02*
X052103Y031264D01*
X052567*
X051333Y031576D02*
X051735Y031173D01*
X051333Y031576D02*
Y033187D01*
X050448Y033378D02*
X051141D01*
X051333Y033187*
G54D39*
X057484Y025346D03*
X037602Y029947D03*
X033665Y029829D03*
G54D40*
X057484Y024346D03*
Y023346D03*
Y022346D03*
X038602Y029947D03*
X037602Y028947D03*
X038602D03*
X055532Y03948D03*
X056532D03*
X057531D03*
X034665Y029829D03*
X033665Y028829D03*
X034665D03*
G54D41*
X054531Y03948D03*
G54D42*
X04085Y028817D03*
Y026896D03*
X054872Y026305D03*
X052951D03*
G54D43*
X054335Y032197D03*
X03524Y025012D03*
X037922Y023774D03*
X032307Y028457D03*
X042446Y02929D03*
X052268Y029468D03*
X031897Y021026D03*
G54D44*
X035379Y037174D03*
X035389Y034014D03*
G54D45*
X02832Y022647D03*
X02918Y021617D03*
X02832Y022017D03*
Y021387D03*
X02918Y022417D03*
X029197Y02929D03*
X028337Y02826D03*
Y02889D03*
X029197Y02849D03*
X028337Y02952D03*
G54D46*
X0287Y024407D03*
Y019687D03*
X028717Y02656D03*
Y03128D03*
G54D47*
X044406Y020789D03*
X047937Y022551D03*
X047957Y024036D03*
X050496Y022639D03*
X037759Y027079D03*
X037701Y022806D03*
X038685Y022796D03*
X039112Y023552D03*
X053437Y028266D03*
X042622Y024575D03*
X047489Y024421D03*
X048454Y026466D03*
X047051Y024717D03*
X042425Y025408D03*
X043705Y025307D03*
X044266Y03499D03*
X046569Y034953D03*
X047287D03*
X03954Y026291D03*
X039488Y02974D03*
X038587Y027722D03*
X048921Y031803D03*
X054728Y036823D03*
X046092Y023864D03*
X05148Y030111D03*
X044492Y028358D03*
X054335Y030226D03*
X055171Y028947D03*
X036913Y025167D03*
X044271Y036626D03*
X048823Y038201D03*
X046559Y036823D03*
X04902Y025701D03*
X049309Y025406D03*
X049807Y034502D03*
X043016Y024574D03*
X044689Y026847D03*
Y026152D03*
X041736Y02639D03*
X041441Y02783D03*
X043803Y027404D03*
X045003Y030524D03*
X045673Y024323D03*
X045253Y029715D03*
X048134Y026882D03*
X044177Y032295D03*
X046815Y030398D03*
X050496Y025406D03*
X044583Y027601D03*
X048724Y025996D03*
X047642Y02656D03*
X051087Y033919D03*
X044866Y032833D03*
X043882Y031896D03*
X045378Y032848D03*
X04461Y032294D03*
X047031Y033969D03*
X047622Y033994D03*
X042457Y027088D03*
X047289Y036478D03*
X051874Y031508D03*
X052103Y032689D03*
X050929Y032029D03*
X05156Y033898D03*
X050877Y032787D03*
X053997Y036566D03*
X039642Y024453D03*
X048895Y023043D03*
X049884Y02351D03*
X045464Y027349D03*
X05342Y03715D03*
X054153Y027838D03*
X041351Y036855D03*
Y037445D03*
Y038036D03*
Y038627D03*
Y039217D03*
X04076Y038627D03*
Y037445D03*
Y036855D03*
X040169D03*
X039579D03*
X038988D03*
Y037445D03*
Y038627D03*
X04076Y039217D03*
X040169D03*
X039579D03*
X038988D03*
X038398Y038627D03*
Y038036D03*
Y037445D03*
Y036855D03*
Y039217D03*
X03594Y021665D03*
X055446Y02755D03*
X051837Y022266D03*
X0515Y027724D03*
X051325Y026847D03*
X051135Y024362D03*
X046891Y022824D03*
X046403Y023535D03*
X044251Y023018D03*
X037941Y022052D03*
X038263Y027079D03*
G54D48*
X044271Y037854D03*
G54D49*
X02723Y035607D03*
G54D50*
X039874Y038036D03*
M02*